<?xml version="1.0" encoding="UTF-8" standalone="no"?>
<!DOCTYPE svg PUBLIC "-//W3C//DTD SVG 1.1//EN" "http://www.w3.org/Graphics/SVG/1.1/DTD/svg11.dtd">
<svg width="100%" height="100%" viewBox="0 0 1210 1200" version="1.1" xmlns="http://www.w3.org/2000/svg" xmlns:xlink="http://www.w3.org/1999/xlink" xml:space="preserve" xmlns:serif="http://www.serif.com/" style="fill-rule:evenodd;clip-rule:evenodd;stroke-linejoin:round;stroke-miterlimit:2;">
    <g id="Artboard1" transform="matrix(1.00777,0,0,1,2.22279,1.70061)">
        <rect x="-2.206" y="-1.701" width="1199.99" height="1199.99" style="fill:none;"/>
        <g transform="matrix(4.13453,0,0,4.16667,10.0256,0.299395)">
            <g transform="matrix(1,0,0,1,-27.5046,-6.87614)">
                <path d="M208.945,293C193.921,293 181.742,286.523 181.742,278.53C181.742,278.383 181.775,278.242 181.783,278.096C182.217,270.305 194.196,264.059 208.945,264.059C223.697,264.059 235.676,270.305 236.112,278.096C236.12,278.242 236.153,278.383 236.153,278.53C236.153,286.523 223.972,293 208.945,293Z" style="fill:rgb(221,219,238);fill-rule:nonzero;"/>
            </g>
            <g transform="matrix(1,0,0,1,-27.5046,-6.87614)">
                <path d="M287.633,292.382C274.101,292.382 263.131,286.55 263.131,279.35C263.131,279.218 263.162,279.091 263.169,278.96C263.56,271.943 274.349,266.317 287.633,266.317C300.919,266.317 311.709,271.943 312.1,278.96C312.108,279.091 312.137,279.218 312.137,279.35C312.137,286.55 301.168,292.382 287.633,292.382Z" style="fill:rgb(221,219,238);fill-rule:nonzero;"/>
            </g>
            <path d="M46.477,285.791L36.417,279.983L54.527,269.527L55.618,270.15C57.162,271.086 58.991,271.555 60.923,271.555C63.208,271.555 65.638,270.899 67.911,269.587L144.776,225.21C147.979,223.36 150.935,220.169 153.276,216.339L160.023,220.235L46.477,285.791Z" style="fill:rgb(221,219,238);fill-rule:nonzero;"/>
            <g transform="matrix(1,0,0,1,-27.5046,-6.87614)">
                <path d="M248.283,247.751C234.764,247.751 223.804,241.923 223.804,234.73C223.804,234.598 223.834,234.47 223.841,234.34C224.232,227.33 235.011,221.71 248.283,221.71C261.557,221.71 272.336,227.33 272.728,234.34C272.735,234.47 272.765,234.598 272.765,234.73C272.765,241.923 261.803,247.751 248.283,247.751Z" style="fill:rgb(221,219,238);fill-rule:nonzero;"/>
            </g>
            <path d="M153.172,20.579L146.567,16.821L146.251,16.642L146.231,16.65C143.094,14.966 139.116,14.973 135.461,17.084L58.275,61.647C50.733,66.001 44.562,77.791 44.562,87.847L44.562,257.288C44.562,261.616 46.285,264.606 48.842,266.27L48.842,266.279L48.89,266.306C49.005,266.38 49.127,266.44 49.244,266.509L55.8,270.255L61.37,265.867L138.235,221.489C145.777,217.134 151.947,205.344 151.947,195.289L151.947,27.32C151.947,25.825 151.73,24.469 151.369,23.23L151.947,23.584L153.172,20.579Z" style="fill:rgb(103,47,234);fill-rule:nonzero;"/>
            <path d="M144.776,225.21L67.911,269.587C60.369,273.941 51.103,271.064 51.103,261.008L51.103,91.567C51.103,81.511 57.274,69.721 64.816,65.367L142.002,20.804C149.544,16.449 158.488,20.984 158.488,31.04L158.488,199.01C158.488,209.065 152.317,220.855 144.776,225.21Z" style="fill:rgb(88,107,178);fill-rule:nonzero;"/>
            <path d="M61.483,268.475C56.836,268.475 53.597,264.443 53.597,257.18L53.597,92.699C53.597,82.708 59.728,70.993 67.222,66.667L142.37,23.281C144.276,22.18 146.094,21.66 147.746,21.66C152.586,21.66 155.994,26.131 155.994,33.581L155.994,198.062C155.994,208.053 149.863,219.01 142.37,223.337L67.222,266.723C65.175,267.905 63.229,268.475 61.483,268.475Z" style="fill:rgb(139,146,200);fill-rule:nonzero;"/>
            <path d="M150.619,204.379L58.973,257.291L58.973,86.198L150.619,33.286L150.619,204.379Z" style="fill:white;fill-rule:nonzero;"/>
            <path d="M99.842,55.041C99.842,56.284 99.087,57.729 98.153,58.267C97.221,58.805 96.465,58.234 96.465,56.991C96.465,55.747 97.221,54.303 98.153,53.764C99.087,53.226 99.842,53.798 99.842,55.041Z" style="fill:white;fill-rule:nonzero;"/>
            <path d="M116.697,47.562L105.59,53.974C104.662,54.51 103.901,53.936 103.901,52.697C103.901,51.459 104.662,50.008 105.59,49.471L116.697,43.058C117.626,42.523 118.386,43.097 118.386,44.335C118.386,45.573 117.626,47.025 116.697,47.562Z" style="fill:white;fill-rule:nonzero;"/>
            <path d="M115.83,228.979L104.187,235.702C103.191,236.276 102.377,237.833 102.377,239.159C102.377,240.486 103.191,241.101 104.187,240.526L115.83,233.804C116.825,233.23 117.64,231.675 117.64,230.347C117.64,229.02 116.825,228.405 115.83,228.979Z" style="fill:white;fill-rule:nonzero;"/>
            <g id="bubble">
                <path d="M230.371,3.133L227.417,1.475C227.148,1.299 226.869,1.141 226.578,1.005L226.559,0.994L226.558,0.995C224.737,0.151 222.53,0.115 220.544,1.262L141.92,46.655C133.399,51.575 128.149,60.667 128.149,70.505L128.149,80.032C128.149,82.243 129.2,84.091 130.746,85.256L130.753,85.26C131.155,85.562 131.592,85.813 132.051,86.017L134.869,87.661L137.978,85.706L142.333,83.191L142.333,102.073L145.742,104.01L148.747,92.175L147.285,92.612L156.495,75.015L216.601,40.313C225.122,35.393 230.371,26.301 230.371,16.463L230.371,6.936C230.371,6.072 230.201,5.268 229.913,4.534L230.371,3.133Z" style="fill:rgb(154,153,204);fill-rule:nonzero;"/>
                <path d="M223.953,3.199L145.329,48.592C136.808,53.512 131.559,62.603 131.559,72.443L131.559,81.969C131.559,87.012 137.019,90.165 141.387,87.643L145.742,85.128L145.742,104.01L159.904,76.952L220.01,42.25C228.531,37.33 233.78,28.238 233.78,18.4L233.78,8.873C233.78,3.829 228.321,0.677 223.953,3.199Z" style="fill:rgb(187,183,219);fill-rule:nonzero;"/>
                <path d="M147.739,67.177C148.356,66.819 148.815,67.196 148.815,68.049C148.815,68.888 148.356,69.798 147.739,70.156C147.123,70.51 146.664,70.131 146.664,69.291C146.664,68.438 147.123,67.531 147.739,67.177Z" style="fill:white;fill-rule:nonzero;"/>
                <path d="M151.363,65.082C151.98,64.727 152.439,65.104 152.439,65.957C152.439,66.797 151.98,67.706 151.363,68.061C150.746,68.418 150.287,68.038 150.287,67.199C150.287,66.346 150.746,65.439 151.363,65.082Z" style="fill:white;fill-rule:nonzero;"/>
                <path d="M154.987,62.992C155.604,62.635 156.063,63.012 156.063,63.865C156.063,64.704 155.604,65.614 154.987,65.971C154.371,66.326 153.912,65.946 153.912,65.107C153.912,64.254 154.371,63.347 154.987,62.992Z" style="fill:white;fill-rule:nonzero;"/>
                <path d="M158.611,60.898C159.228,60.543 159.687,60.92 159.687,61.773C159.687,62.612 159.228,63.522 158.611,63.877C157.994,64.235 157.535,63.854 157.535,63.015C157.535,62.162 157.994,61.255 158.611,60.898Z" style="fill:white;fill-rule:nonzero;"/>
                <path d="M183.975,46.256C184.592,45.898 185.051,46.275 185.051,47.128C185.051,47.967 184.592,48.877 183.975,49.235C183.359,49.59 182.9,49.209 182.9,48.37C182.9,47.517 183.359,46.611 183.975,46.256Z" style="fill:white;fill-rule:nonzero;"/>
                <path d="M187.599,44.16C188.215,43.806 188.674,44.183 188.674,45.036C188.674,45.876 188.215,46.785 187.599,47.139C186.983,47.497 186.524,47.117 186.524,46.278C186.524,45.425 186.983,44.518 187.599,44.16Z" style="fill:white;fill-rule:nonzero;"/>
                <path d="M191.223,42.071C191.839,41.714 192.299,42.091 192.299,42.944C192.299,43.783 191.839,44.693 191.223,45.05C190.606,45.405 190.148,45.025 190.148,44.186C190.148,43.333 190.606,42.426 191.223,42.071Z" style="fill:white;fill-rule:nonzero;"/>
                <path d="M194.847,39.976C195.463,39.621 195.922,39.999 195.922,40.852C195.922,41.691 195.463,42.601 194.847,42.955C194.23,43.313 193.771,42.933 193.771,42.093C193.771,41.24 194.23,40.334 194.847,39.976Z" style="fill:white;fill-rule:nonzero;"/>
                <path d="M198.471,37.887C199.087,37.529 199.546,37.907 199.546,38.76C199.546,39.599 199.087,40.508 198.471,40.866C197.854,41.221 197.395,40.841 197.395,40.002C197.395,39.149 197.854,38.242 198.471,37.887Z" style="fill:white;fill-rule:nonzero;"/>
                <path d="M202.095,35.792C202.712,35.437 203.17,35.815 203.17,36.668C203.17,37.507 202.712,38.417 202.095,38.771C201.478,39.129 201.019,38.749 201.019,37.91C201.019,37.056 201.478,36.15 202.095,35.792Z" style="fill:white;fill-rule:nonzero;"/>
                <path d="M205.719,33.703C206.336,33.345 206.795,33.722 206.795,34.576C206.795,35.415 206.336,36.324 205.719,36.682C205.102,37.036 204.643,36.656 204.643,35.818C204.643,34.965 205.102,34.057 205.719,33.703Z" style="fill:white;fill-rule:nonzero;"/>
                <path d="M209.342,31.608C209.96,31.253 210.419,31.63 210.419,32.484C210.419,33.323 209.96,34.232 209.342,34.587C208.726,34.945 208.267,34.564 208.267,33.725C208.267,32.872 208.726,31.966 209.342,31.608Z" style="fill:white;fill-rule:nonzero;"/>
                <path d="M212.966,29.518C213.584,29.161 214.043,29.538 214.043,30.391C214.043,31.231 213.584,32.14 212.966,32.498C212.35,32.852 211.891,32.472 211.891,31.633C211.891,30.78 212.35,29.873 212.966,29.518Z" style="fill:white;fill-rule:nonzero;"/>
                <path d="M216.59,27.424C217.208,27.069 217.667,27.446 217.667,28.299C217.667,29.138 217.208,30.048 216.59,30.403C215.971,30.76 215.515,30.38 215.515,29.541C215.515,28.688 215.971,27.781 216.59,27.424Z" style="fill:white;fill-rule:nonzero;"/>
                <path d="M220.214,25.334C220.832,24.977 221.288,25.354 221.288,26.207C221.288,27.046 220.832,27.956 220.214,28.314C219.595,28.668 219.138,28.288 219.138,27.449C219.138,26.595 219.595,25.689 220.214,25.334Z" style="fill:white;fill-rule:nonzero;"/>
                <path d="M223.836,23.239C224.455,22.884 224.911,23.262 224.911,24.115C224.911,24.954 224.455,25.863 223.836,26.218C223.219,26.576 222.763,26.196 222.763,25.357C222.763,24.504 223.219,23.597 223.836,23.239Z" style="fill:white;fill-rule:nonzero;"/>
            </g>
            <g transform="matrix(1,0,0,1,-96.5716,-2.06284)">
                <path d="M162.235,58.808C162.852,58.45 163.311,58.828 163.311,59.681C163.311,60.52 162.852,61.43 162.235,61.787C161.618,62.142 161.159,61.762 161.159,60.923C161.159,60.07 161.618,59.163 162.235,58.808Z" style="fill:white;fill-rule:nonzero;"/>
            </g>
            <g transform="matrix(1,0,0,1,-96.5716,-2.06284)">
                <path d="M165.858,56.713C166.476,56.359 166.935,56.736 166.935,57.589C166.935,58.428 166.476,59.338 165.858,59.693C165.242,60.05 164.783,59.67 164.783,58.831C164.783,57.978 165.242,57.071 165.858,56.713Z" style="fill:white;fill-rule:nonzero;"/>
            </g>
            <g transform="matrix(1,0,0,1,-96.5716,15.8915)">
                <path d="M169.482,54.624C170.099,54.266 170.558,54.644 170.558,55.497C170.558,56.336 170.099,57.245 169.482,57.603C168.866,57.958 168.407,57.578 168.407,56.738C168.407,55.885 168.866,54.979 169.482,54.624Z" style="fill:white;fill-rule:nonzero;"/>
            </g>
            <g transform="matrix(1,0,0,1,-96.5716,15.8915)">
                <path d="M173.107,52.529C173.723,52.174 174.179,52.551 174.179,53.404C174.179,54.244 173.723,55.154 173.107,55.508C172.487,55.865 172.031,55.486 172.031,54.647C172.031,53.793 172.487,52.886 173.107,52.529Z" style="fill:white;fill-rule:nonzero;"/>
            </g>
            <g transform="matrix(1,0,0,1,-96.5716,15.8915)">
                <path d="M176.728,50.44C177.347,50.082 177.803,50.459 177.803,51.313C177.803,52.152 177.347,53.061 176.728,53.419C176.111,53.774 175.655,53.394 175.655,52.554C175.655,51.701 176.111,50.794 176.728,50.44Z" style="fill:white;fill-rule:nonzero;"/>
            </g>
            <g transform="matrix(1,0,0,1,-96.5716,15.8915)">
                <path d="M180.351,48.345C180.968,47.99 181.427,48.367 181.427,49.22C181.427,50.059 180.968,50.969 180.351,51.324C179.735,51.681 179.276,51.301 179.276,50.462C179.276,49.609 179.735,48.702 180.351,48.345Z" style="fill:white;fill-rule:nonzero;"/>
            </g>
            <g transform="matrix(1,0,0,1,-96.5716,15.8915)">
                <path d="M222.349,92.193L168.888,123.058L168.888,85.199L222.349,54.334L222.349,92.193Z" style="fill:rgb(249,202,223);fill-rule:nonzero;"/>
            </g>
            <g transform="matrix(1,0,0,1,-96.5716,15.8915)">
                <path d="M168.888,85.199L165.568,83.262L165.568,121.121L168.888,123.058L168.888,85.199Z" style="fill:rgb(245,161,198);fill-rule:nonzero;"/>
            </g>
            <g transform="matrix(1,0,0,1,-96.5716,15.8915)">
                <path d="M222.349,54.334L219.03,52.396L165.568,83.262L168.888,85.199L222.349,54.334Z" style="fill:rgb(248,187,214);fill-rule:nonzero;"/>
            </g>
            <g transform="matrix(1,0,0,1,-96.5716,15.8915)">
                <path d="M216.428,65.469L173.266,90.388C172.714,90.707 172.263,90.366 172.263,89.63C172.263,88.894 172.714,88.031 173.266,87.713L216.428,62.794C216.98,62.475 217.431,62.816 217.431,63.552C217.431,64.288 216.98,65.151 216.428,65.469Z" style="fill:rgb(97,83,163);fill-rule:nonzero;"/>
            </g>
            <g transform="matrix(1,0,0,1,-96.5716,15.8915)">
                <path d="M202.547,79.095L173.266,96.001C172.714,96.319 172.263,95.978 172.263,95.242C172.263,94.506 172.714,93.644 173.266,93.325L202.547,76.419C203.099,76.101 203.551,76.442 203.551,77.178C203.551,77.913 203.099,78.776 202.547,79.095Z" style="fill:rgb(97,83,163);fill-rule:nonzero;"/>
            </g>
            <g transform="matrix(1,0,0,1,-96.5716,15.8915)">
                <path d="M178.511,114.646L174.968,116.691L174.968,103.598L178.511,101.553L178.511,114.646Z" style="fill:rgb(239,86,153);fill-rule:nonzero;"/>
            </g>
            <g transform="matrix(1,0,0,1,-96.5716,15.8915)">
                <path d="M185.676,110.509L182.133,112.554L182.133,96.337L185.676,94.292L185.676,110.509Z" style="fill:rgb(97,83,163);fill-rule:nonzero;"/>
            </g>
            <g transform="matrix(1,0,0,1,-96.5716,15.8915)">
                <path d="M192.841,106.372L189.298,108.417L189.298,98.644L192.841,96.598L192.841,106.372Z" style="fill:rgb(239,86,153);fill-rule:nonzero;"/>
            </g>
            <g transform="matrix(1,0,0,1,-96.5716,15.8915)">
                <path d="M200.066,102.201L196.524,104.246L196.524,86.666L200.066,84.621L200.066,102.201Z" style="fill:rgb(239,86,153);fill-rule:nonzero;"/>
            </g>
            <g transform="matrix(1,0,0,1,-96.5716,15.8915)">
                <path d="M207.231,98.065L203.689,100.11L203.689,87.017L207.231,84.972L207.231,98.065Z" style="fill:rgb(239,86,153);fill-rule:nonzero;"/>
            </g>
            <g transform="matrix(1,0,0,1,-96.5716,15.8915)">
                <path d="M214.396,93.928L210.854,95.973L210.854,86.222L214.396,84.177L214.396,93.928Z" style="fill:rgb(239,86,153);fill-rule:nonzero;"/>
            </g>
            <path d="M174.519,154.603C176.155,153.959 176.654,157.088 178.143,159.898C179.633,162.71 181.489,165.751 179.621,167.065C177.753,168.379 172.661,169.236 171.536,164.511C170.412,159.786 173.116,155.155 174.519,154.603Z" style="fill:rgb(76,196,214);fill-rule:nonzero;"/>
            <path d="M202.33,149.095C199.259,148.317 197.385,151.037 193.755,151.602C189.357,152.286 187.742,151.754 186.148,150.386C185.707,150.007 188.05,149.407 188.915,147.807C190.099,145.613 189.521,144.608 185.955,146.556C182.388,148.504 179.466,149.941 178.825,152.246C178.533,153.299 177.95,154.359 176.372,155.602C175.4,156.367 173.77,157.183 172.435,158.157C171.918,158.536 171.449,159.369 171.014,160.482C171.446,162.529 171.791,164.552 173.153,166.345C173.538,166.851 173.972,167.247 174.429,167.592L174.432,167.575C174.664,167.043 180.284,163.3 184.582,161.051C186.943,159.816 192.968,160.652 197.181,159.051C201.393,157.449 205.4,149.874 202.33,149.095Z" style="fill:rgb(250,194,194);fill-rule:nonzero;"/>
            <path d="M175.013,160.288C173.862,157.216 174.519,154.603 174.519,154.603C174.519,154.603 153.031,162.683 150.376,164.2C148.791,159.47 146.188,149.768 143.341,142.747C136.144,124.993 131.348,119.699 124.118,122.628C115.167,129.779 129.244,144.915 129.994,156.595C133.205,169.688 139.428,180.85 142.64,182.711C142.766,182.817 142.891,182.926 143.054,182.978C146.584,184.097 149.492,183.141 155.974,180.85C164.857,177.712 179.621,167.065 179.621,167.065C179.621,167.065 176.423,164.048 175.013,160.288Z" style="fill:rgb(113,206,229);fill-rule:nonzero;"/>
            <path d="M86.165,195.343C88.687,182.857 81.376,169.339 82.41,154.829C81.243,142.758 101.522,131.054 101.522,131.054L121.15,119.962C121.15,119.962 130.255,126.886 135.897,134.585C146.622,149.219 142.154,179.684 143.8,193.105C144.008,194.804 145.808,207.156 145.808,207.156C145.808,207.156 127.641,217.856 121.811,221.223C110.16,227.949 75.882,247.528 75.882,247.528C75.882,247.528 84.586,203.159 86.165,195.343Z" style="fill:rgb(170,223,238);fill-rule:nonzero;"/>
            <path d="M129.378,131.924C131.032,135.002 135.189,144.635 135.189,144.635L130.255,148.927L136.143,151.427C136.143,151.427 137.692,166.792 136.143,175.04C134.592,183.288 129.378,196.364 129.378,196.364C129.378,196.364 124.604,149.189 123.399,142.817C122.193,136.445 117.582,133.976 117.582,133.976L118.921,126.886C118.921,126.886 126.671,126.886 129.378,131.924Z" style="fill:rgb(113,206,229);fill-rule:nonzero;"/>
            <path d="M118.346,131.795C118.346,131.795 125.81,142.863 127.876,152.574C129.942,162.283 130.255,193.794 130.255,193.794L126.956,197.317C126.956,197.317 119.402,161.76 114.856,154.183C110.31,146.606 104.909,139.579 104.909,139.579L118.346,131.795Z" style="fill:rgb(97,83,163);fill-rule:nonzero;"/>
            <path d="M135.652,154.869L137.005,154.608C137.005,154.608 133.826,138.181 132.553,131.663C131.395,125.738 127.232,122.881 124.855,121.703C123.645,121.108 121.579,120.346 120.845,120.711L121.456,121.946L121.462,121.946C122.046,121.946 129.627,123.869 131.2,131.926C132.472,138.445 135.652,154.869 135.652,154.869Z" style="fill:rgb(51,33,31);fill-rule:nonzero;"/>
            <path d="M118.944,127.9L121.15,139.633C121.15,139.633 121.15,142.758 119.488,144.331C117.316,146.387 112.222,146.044 108.204,142.599C101.801,137.11 100.887,134.586 100.887,134.586L104.039,117.071L118.944,127.9Z" style="fill:rgb(248,178,175);fill-rule:nonzero;"/>
            <path d="M102.293,97.82C106.535,92.412 118.731,87.857 126.677,99.616C135.009,111.947 127.135,132.107 119.837,130.93C115.749,130.271 106.545,126.547 102.513,119.962C97.974,112.551 98.996,102.02 102.293,97.82Z" style="fill:rgb(250,194,194);fill-rule:nonzero;"/>
            <path d="M130.255,103.78C128.651,106.573 124.742,109.738 117.896,110.365C112.293,110.879 107.791,109.372 107.791,109.372L108.646,115.006C108.646,115.006 107.52,115.092 106.579,114.802C105.727,111.984 103.193,112.257 102.39,113.843C101.449,115.698 102.513,119.962 102.513,119.962C102.513,119.962 95.823,116.19 95.515,107.606C95.324,102.256 99.551,90.487 109.305,88.894C119.059,87.299 126.782,92.21 129.378,97.351C130.677,99.927 130.979,102.518 130.255,103.78Z" style="fill:rgb(51,33,31);fill-rule:nonzero;"/>
            <path d="M101.912,128.886C101.912,128.886 112.623,142.309 116.854,151.6C124.776,168.994 126.956,197.317 126.956,197.317C126.956,197.317 119.018,181.021 116.028,175.579C113.844,171.604 105.97,158.938 105.97,158.938L112.882,153.839L103.765,152.574L95.509,135.134C95.509,135.134 97.393,130.979 101.912,128.886Z" style="fill:rgb(113,206,229);fill-rule:nonzero;"/>
            <path d="M129.858,216.533C129.636,206.71 129.332,195.316 129.332,195.221L127.954,195.211C127.954,195.31 128.278,207.404 128.5,217.422C128.906,217.091 129.858,216.533 129.858,216.533Z" style="fill:rgb(113,206,229);fill-rule:nonzero;"/>
            <path d="M133.229,157.147C133.229,159.621 134.616,161.626 136.328,161.626C138.04,161.626 139.428,159.621 139.428,157.147C139.428,154.675 138.04,152.67 136.328,152.67C134.616,152.67 133.229,154.675 133.229,157.147Z" style="fill:rgb(182,157,157);fill-rule:nonzero;"/>
            <path d="M138.948,154.356C138.728,153.999 137.704,153.141 136.558,153.602L136.549,153.61C135.364,153.922 134.463,155.414 134.463,157.216C134.463,159.244 135.602,160.887 137.005,160.887C137.202,160.887 137.391,160.848 137.574,160.788C138.068,160.681 138.799,160.323 139.428,159.174C140.487,157.236 139.628,155.457 138.948,154.356Z" style="fill:rgb(92,67,66);fill-rule:nonzero;"/>
            <path d="M135.717,157.216C135.717,158.993 136.713,160.433 137.943,160.433C139.173,160.433 140.17,158.993 140.17,157.216C140.17,155.439 139.173,153.999 137.943,153.999C136.713,153.999 135.717,155.439 135.717,157.216Z" style="fill:white;fill-rule:nonzero;"/>
            <path d="M97.766,131.665C99.13,128.822 102.064,127.466 102.172,127.442L102.087,129.107C102.004,129.125 100.053,130.048 98.991,132.294C97.98,134.435 97.593,138.65 101.504,146.564C104.899,153.435 107.021,159.042 108.368,163.491C108.004,163.521 107.637,163.592 107.283,163.747C107.677,163.589 107.667,163.555 107.254,163.646C107.158,163.659 107.081,163.723 106.99,163.752C105.664,159.383 103.581,153.879 100.269,147.174C96.921,140.397 96.078,135.179 97.766,131.665Z" style="fill:rgb(51,33,31);fill-rule:nonzero;"/>
            <path d="M101.228,178.467L113.074,173.195L111.757,170.256L99.91,175.527L101.228,178.467Z" style="fill:rgb(113,206,229);fill-rule:nonzero;"/>
            <path d="M110.066,192.18L111.487,191.087C111.44,191.026 106.726,184.825 104.186,176.002C103.325,173.015 103.105,170.384 103.546,168.388C104.032,166.191 105.269,164.836 107.325,164.245C110.244,163.399 113.984,163.661 117.1,173.162C120.259,182.799 118.501,188.982 118.483,189.043L120.203,189.551C120.283,189.279 122.136,182.765 118.804,172.603C116.075,164.287 112.156,160.992 106.83,162.52C104.159,163.288 102.419,165.183 101.795,168.002C101.289,170.288 101.521,173.225 102.462,176.498C105.101,185.664 109.864,191.919 110.066,192.18Z" style="fill:white;fill-rule:nonzero;"/>
            <path d="M117.727,189.377C117.771,190.269 118.53,190.958 119.422,190.914C120.315,190.87 121.003,190.11 120.959,189.218C120.915,188.325 120.155,187.637 119.263,187.681C118.37,187.725 117.682,188.484 117.727,189.377Z" style="fill:rgb(141,141,141);fill-rule:nonzero;"/>
            <path d="M109.16,191.714C109.204,192.606 109.963,193.294 110.855,193.25C111.748,193.206 112.436,192.446 112.392,191.553C112.348,190.662 111.588,189.973 110.696,190.017C109.803,190.061 109.115,190.821 109.16,191.714Z" style="fill:rgb(141,141,141);fill-rule:nonzero;"/>
            <path d="M120.203,189.551C120.203,189.551 129.546,185.819 134.797,182.587C140.047,179.354 144.909,177.89 143.378,180.721C141.847,183.552 138.396,183.755 137.273,185.903C136.149,188.051 141.387,186.154 145.815,185.903C150.244,185.652 159.123,186.757 153.184,193.252C147.245,199.747 140.504,198.247 133.229,198.547C125.953,198.847 122.54,199.659 122.54,199.659L120.203,189.551Z" style="fill:rgb(250,194,194);fill-rule:nonzero;"/>
            <path d="M73.807,176.955C74.496,162.144 72.123,150.089 86.963,142.758C94.472,143.598 99.457,174.362 97.123,186.183C99.23,186.289 126.193,184.705 126.193,184.705C126.193,184.705 130.5,200.269 125.794,203.048C117.582,204.02 102.357,206.232 95.509,206.232C88.662,206.232 77.484,207.022 74.355,198.971C72.937,195.323 73.612,181.13 73.807,176.955Z" style="fill:rgb(113,206,229);fill-rule:nonzero;"/>
            <g id="paper">
                <g transform="matrix(1,0,0,1,1.77636e-15,-17.9544)">
                    <path d="M65.879,199.14L2.976,235.391L2.976,88.102L65.879,51.851L65.879,199.14Z" style="fill:rgb(249,202,223);fill-rule:nonzero;"/>
                </g>
                <g transform="matrix(1,0,0,1,1.77636e-15,-17.9544)">
                    <path d="M65.879,51.851L62.903,50.124L0,86.375L2.976,88.102L65.879,51.851Z" style="fill:rgb(248,187,214);fill-rule:nonzero;"/>
                </g>
                <g transform="matrix(1,0,0,1,1.77636e-15,-17.9544)">
                    <path d="M2.976,235.391L0,233.665L0,86.375L2.976,88.102L2.976,235.391Z" style="fill:rgb(245,161,198);fill-rule:nonzero;"/>
                </g>
                <g transform="matrix(1,0,0,1,1.77636e-15,-17.9544)">
                    <path d="M58.506,67.474L35.602,80.697C34.956,81.07 34.427,80.671 34.427,79.809C34.427,78.948 34.956,77.938 35.602,77.565L58.506,64.341C59.153,63.968 59.681,64.368 59.681,65.229C59.681,66.091 59.153,67.101 58.506,67.474Z" style="fill:rgb(245,161,198);fill-rule:nonzero;"/>
                </g>
                <g transform="matrix(1,0,0,1,1.77636e-15,-17.9544)">
                    <path d="M58.506,74.556L35.602,87.78C34.956,88.153 34.427,87.753 34.427,86.892C34.427,86.03 34.956,85.02 35.602,84.647L58.506,71.424C59.153,71.05 59.681,71.45 59.681,72.311C59.681,73.173 59.153,74.183 58.506,74.556Z" style="fill:rgb(245,161,198);fill-rule:nonzero;"/>
                </g>
                <g transform="matrix(1,0,0,1,1.77636e-15,-17.9544)">
                    <path d="M58.506,81.612L35.602,94.837C34.956,95.21 34.427,94.81 34.427,93.948C34.427,93.087 34.956,92.077 35.602,91.704L58.506,78.48C59.153,78.107 59.681,78.507 59.681,79.368C59.681,80.23 59.153,81.239 58.506,81.612Z" style="fill:rgb(245,161,198);fill-rule:nonzero;"/>
                </g>
                <g transform="matrix(1,0,0,1,1.77636e-15,-17.9544)">
                    <path d="M58.506,117.392L35.602,130.616C34.956,130.989 34.427,130.59 34.427,129.728C34.427,128.866 34.956,127.857 35.602,127.483L58.506,114.259C59.153,113.886 59.681,114.286 59.681,115.148C59.681,116.009 59.153,117.019 58.506,117.392Z" style="fill:rgb(245,161,198);fill-rule:nonzero;"/>
                </g>
                <g transform="matrix(1,0,0,1,1.77636e-15,-17.9544)">
                    <path d="M58.506,124.474L35.602,137.698C34.956,138.072 34.427,137.672 34.427,136.81C34.427,135.948 34.956,134.939 35.602,134.566L58.506,121.342C59.153,120.969 59.681,121.368 59.681,122.23C59.681,123.092 59.153,124.101 58.506,124.474Z" style="fill:rgb(245,161,198);fill-rule:nonzero;"/>
                </g>
                <g transform="matrix(1,0,0,1,-27.3823,-2.93321)">
                    <path d="M58.506,131.531L35.602,144.755C34.956,145.128 34.427,144.728 34.427,143.867C34.427,143.005 34.956,141.995 35.602,141.622L58.506,128.399C59.153,128.026 59.681,128.425 59.681,129.287C59.681,130.148 59.153,131.158 58.506,131.531Z" style="fill:rgb(245,161,198);fill-rule:nonzero;"/>
                </g>
                <g transform="matrix(1,0,0,1,-27.2258,-3.08968)">
                    <path d="M59.681,108.183L34.427,122.763L34.427,99.891L59.681,85.311L59.681,108.183Z" style="fill:white;fill-rule:nonzero;"/>
                </g>
                <g transform="matrix(1,0,0,1,-27.5388,-2.4638)">
                    <path d="M59.681,172.758L34.427,187.339L34.427,171.348L59.681,156.768L59.681,172.758Z" style="fill:white;fill-rule:nonzero;"/>
                </g>
                <g transform="matrix(1,0,0,1,-27.3823,-2.93321)">
                    <path d="M58.506,138.712L35.602,151.935C34.956,152.308 34.427,151.909 34.427,151.048C34.427,150.186 34.956,149.176 35.602,148.803L58.506,135.579C59.153,135.206 59.681,135.606 59.681,136.467C59.681,137.328 59.153,138.339 58.506,138.712Z" style="fill:rgb(245,161,198);fill-rule:nonzero;"/>
                </g>
                <g transform="matrix(1,0,0,1,-27.3823,-2.93321)">
                    <path d="M58.506,145.794L35.602,159.017C34.956,159.39 34.427,158.991 34.427,158.13C34.427,157.268 34.956,156.258 35.602,155.885L58.506,142.661C59.153,142.288 59.681,142.688 59.681,143.549C59.681,144.411 59.153,145.421 58.506,145.794Z" style="fill:rgb(245,161,198);fill-rule:nonzero;"/>
                </g>
                <g transform="matrix(1,0,0,1,1.77636e-15,-17.9544)">
                    <path d="M58.506,152.85L35.602,166.074C34.956,166.447 34.427,166.048 34.427,165.186C34.427,164.325 34.956,163.315 35.602,162.942L58.506,149.718C59.153,149.345 59.681,149.745 59.681,150.606C59.681,151.468 59.153,152.477 58.506,152.85Z" style="fill:rgb(245,161,198);fill-rule:nonzero;"/>
                </g>
                <g transform="matrix(1,0,0,1,1.77636e-15,-17.9544)">
                    <path d="M58.506,181.316L35.602,194.54C34.956,194.913 34.427,194.513 34.427,193.652C34.427,192.791 34.956,191.78 35.602,191.407L58.506,178.183C59.153,177.81 59.681,178.21 59.681,179.072C59.681,179.933 59.153,180.943 58.506,181.316Z" style="fill:rgb(245,161,198);fill-rule:nonzero;"/>
                </g>
                <g transform="matrix(1,0,0,1,1.77636e-15,-17.9544)">
                    <path d="M58.506,188.398L35.602,201.623C34.956,201.995 34.427,201.595 34.427,200.734C34.427,199.873 34.956,198.863 35.602,198.49L58.506,185.265C59.153,184.892 59.681,185.293 59.681,186.154C59.681,187.015 59.153,188.025 58.506,188.398Z" style="fill:rgb(245,161,198);fill-rule:nonzero;"/>
                </g>
                <g transform="matrix(1,0,0,1,1.77636e-15,-17.9544)">
                    <path d="M58.506,195.455L35.602,208.679C34.956,209.051 34.427,208.652 34.427,207.791C34.427,206.929 34.956,205.92 35.602,205.547L58.506,192.322C59.153,191.949 59.681,192.349 59.681,193.211C59.681,194.072 59.153,195.082 58.506,195.455Z" style="fill:rgb(245,161,198);fill-rule:nonzero;"/>
                </g>
            </g>
            <g id="heart">
                <g transform="matrix(1,0,0,1,122.242,8.31249)">
                    <path d="M87.434,91.427L88.472,90.247L84.11,87.954L83.964,87.877L83.669,87.722L83.656,87.735C75.531,83.928 66.669,100.826 65.689,102.759L63.887,101.813C63.793,101.762 63.696,101.711 63.594,101.66L63.495,101.608L63.493,101.61C59.847,99.803 52.088,98.285 45.397,112.557C40.327,123.371 42.534,129.815 46.154,133.546C46.389,133.788 46.629,134.021 46.874,134.241C47.976,135.229 49.164,135.987 50.297,136.572L50.29,136.575L56.339,139.687L56.779,138.741C60.692,139.945 65.593,142.043 65.593,142.043C65.593,142.043 72.77,130.682 76.686,125.319C78.276,123.141 81.574,118.247 84.321,112.608C84.566,112.105 84.805,111.596 85.039,111.083C88.172,104.23 90.234,96.575 87.434,91.427Z" style="fill:rgb(238,48,133);fill-rule:nonzero;"/>
                </g>
                <g transform="matrix(1,0,0,1,122.242,8.31249)">
                    <path d="M79.123,99.734L74.867,128.787L72.202,124.001L69.049,125.815L66.13,107.235L61.874,136.288L59.209,131.509L51.157,136.158C47.537,132.426 45.329,125.983 50.399,115.168C59.503,95.75 70.595,105.562 70.595,105.562C70.595,105.562 81.688,82.941 90.792,91.848C95.858,96.804 93.657,105.787 90.041,113.695L82.042,118.313L79.123,99.734Z" style="fill:rgb(239,86,153);fill-rule:nonzero;"/>
                </g>
                <g transform="matrix(1,0,0,1,122.242,8.31249)">
                    <path d="M62.228,139.188L66.088,112.846L68.36,127.322L71.699,125.394L75.221,131.686L79.081,105.344L81.353,119.821L89.324,115.219C86.576,120.859 83.278,125.753 81.688,127.93C77.772,133.294 70.595,144.654 70.595,144.654C70.595,144.654 63.419,141.58 59.503,140.739C57.914,140.398 54.622,139.313 51.876,136.852L58.722,132.9L62.228,139.188Z" style="fill:rgb(239,86,153);fill-rule:nonzero;"/>
                </g>
                <g transform="matrix(1,0,0,1,122.242,8.31249)">
                    <path d="M59.209,131.509L61.874,136.288L66.13,107.235L69.049,125.815L72.202,124.001L74.867,128.787L79.123,99.734L82.042,118.313L90.041,113.695C89.807,114.207 89.568,114.717 89.324,115.219L81.353,119.821L79.081,105.344L75.221,131.686L71.699,125.394L68.36,127.322L66.088,112.846L62.228,139.188L58.722,132.9L51.876,136.852C51.631,136.633 51.391,136.4 51.157,136.158L59.209,131.509Z" style="fill:white;fill-rule:nonzero;"/>
                </g>
            </g>
            <g transform="matrix(1,0,0,1,-27.5046,-6.87614)">
                <path d="M217.419,238.655C217.419,238.655 223.662,237.573 224.044,244.682C224.424,251.793 215.615,244.917 215.615,244.917L217.419,238.655Z" style="fill:rgb(154,153,204);fill-rule:nonzero;"/>
            </g>
            <g transform="matrix(1,0,0,1,-27.5046,-6.87614)">
                <path d="M200.238,246.205C200.238,246.205 199.59,244.134 198.393,244.506C196.771,245.009 192.117,247.473 191.122,248.187C191.37,248.682 198.711,262.598 198.711,262.598L201.147,261.059L200.238,246.205Z" style="fill:rgb(199,176,213);fill-rule:nonzero;"/>
            </g>
            <g transform="matrix(1,0,0,1,-27.5046,-6.87614)">
                <path d="M192.832,249.918C192.832,249.918 192.435,248.692 191.724,248.228C191.012,247.763 190.664,248.714 191.019,249.394C191.352,250.035 192.342,251.004 193.101,252.475C194.427,255.048 198.711,262.598 198.711,262.598L199.093,262.357L192.832,249.918Z" style="fill:rgb(172,147,194);fill-rule:nonzero;"/>
            </g>
            <g transform="matrix(1,0,0,1,-27.5046,-6.87614)">
                <path d="M206.432,259.14L199.026,262.852L192.342,250.413L199.749,246.7L206.432,259.14Z" style="fill:rgb(222,200,225);fill-rule:nonzero;"/>
            </g>
            <g transform="matrix(1,0,0,1,-27.5046,-6.87614)">
                <path d="M206.921,258.645L199.515,262.357L192.832,249.918L200.238,246.205L206.921,258.645Z" style="fill:rgb(241,223,237);fill-rule:nonzero;"/>
            </g>
            <g transform="matrix(1,0,0,1,-27.5046,-6.87614)">
                <path d="M192.832,249.918L192.342,250.413L199.026,262.852L199.515,262.357L192.832,249.918Z" style="fill:rgb(222,200,225);fill-rule:nonzero;"/>
            </g>
            <g transform="matrix(1,0,0,1,-27.5046,-6.87614)">
                <path d="M206.432,259.14L206.921,258.645L199.515,262.357L199.026,262.852L206.432,259.14Z" style="fill:rgb(199,176,213);fill-rule:nonzero;"/>
            </g>
            <g transform="matrix(1,0,0,1,-27.5046,-6.87614)">
                <path d="M191.724,273.298C191.724,273.298 201.832,267.84 203.952,267.8C208.397,261.313 212.315,258.62 212.823,258.914C215.659,260.555 213.272,276.241 213.272,276.241C213.272,276.241 193.693,276.54 191.724,273.298Z" style="fill:rgb(51,33,31);fill-rule:nonzero;"/>
            </g>
            <g transform="matrix(1,0,0,1,-27.5046,-6.87614)">
                <path d="M201.5,246.464L200.857,247.992L200.599,249.166L201.416,248.288L202.328,246.628L201.5,246.464Z" style="fill:rgb(73,46,46);fill-rule:nonzero;"/>
            </g>
            <g transform="matrix(1,0,0,1,-27.5046,-6.87614)">
                <path d="M210.556,254.135C211.414,252.906 212.314,251.707 213.16,250.468C211.4,247.983 207.373,245.515 206.238,244.164C204.944,242.623 203.661,243.094 202.49,244.399C201.318,245.704 200.713,246.17 200.713,246.17C200.871,246.587 200.953,246.479 201.5,246.464C201.337,246.748 201.448,246.865 201.665,246.836C202.366,246.742 202.729,246.745 203.257,247.017C203.593,247.191 204.836,247.198 205.824,247.497C206.495,247.699 207.585,249.233 209.8,253.128C209.963,253.414 210.254,253.775 210.556,254.135Z" style="fill:rgb(250,194,194);fill-rule:nonzero;"/>
            </g>
            <g transform="matrix(1,0,0,1,-27.5046,-6.87614)">
                <path d="M202.549,245.863C202.549,245.863 203.489,245.788 203.95,245.431C204.411,245.075 204.198,244.633 203.71,244.562C203.221,244.492 202.728,244.747 202.728,244.747L202.549,245.863Z" style="fill:rgb(248,178,175);fill-rule:nonzero;"/>
            </g>
            <g transform="matrix(1,0,0,1,-27.5046,-6.87614)">
                <path d="M202.549,245.863L203.884,243.14L203.198,242.882C203.198,242.882 202.035,245.42 201.572,246.332C201.788,246.031 202.184,245.835 202.549,245.863Z" style="fill:rgb(73,46,46);fill-rule:nonzero;"/>
            </g>
            <g transform="matrix(1,0,0,1,-27.5046,-6.87614)">
                <path d="M203.884,243.14C203.84,243.255 203.652,243.29 203.462,243.218C203.273,243.147 203.155,242.996 203.198,242.882C203.241,242.767 203.429,242.732 203.619,242.804C203.808,242.876 203.927,243.026 203.884,243.14Z" style="fill:rgb(96,65,64);fill-rule:nonzero;"/>
            </g>
            <g transform="matrix(1,0,0,1,-27.5046,-6.87614)">
                <path d="M202.967,273.07C202.967,273.07 202.967,270.443 203.952,268.69C204.635,267.473 204.796,265.878 203.686,264.518C201.585,261.944 201.196,261.106 200.387,263.062C199.578,265.019 200.642,265.528 199.291,267.716C197.939,269.903 196.121,273.509 196.121,273.509C196.121,273.509 203.041,275.338 202.967,273.07Z" style="fill:white;fill-rule:nonzero;"/>
            </g>
            <g transform="matrix(1,0,0,1,-27.5046,-6.87614)">
                <path d="M226.101,265.401C226.101,265.401 230.139,272.58 228.733,277.389C228.286,278.919 226.659,280.19 224.183,281.969C221.34,284.011 220.814,286.008 214.821,286.613C209.143,287.187 194.071,284.616 190.664,279.988C187.736,276.012 190.468,271.573 194.298,271.57C199.66,271.566 208.635,271.439 208.53,271.379L226.101,265.401Z" style="fill:rgb(71,46,46);fill-rule:nonzero;"/>
            </g>
            <g transform="matrix(1,0,0,1,-27.5046,-6.87614)">
                <path d="M217.497,239.472C217.497,239.472 220.377,239.452 221.457,240.402C223.733,242.405 224.637,245.977 225.091,249.74C225.545,253.503 224.688,256.264 224.688,259.748C224.688,263.231 227.308,265.486 227.313,268.095C227.321,272.992 221.969,275.312 218.226,276.012C212.823,277.022 208.53,274.498 207.104,272.082C206.838,270.967 206.867,269.375 207.853,267.944C208.539,266.951 205.818,259.589 205.808,255.796C205.798,252.217 205.282,248.147 207.696,245.901C208.829,244.846 210.388,244.119 211.619,243.643C214.743,242.434 217.497,239.472 217.497,239.472Z" style="fill:rgb(187,183,219);fill-rule:nonzero;"/>
            </g>
            <g transform="matrix(1,0,0,1,-27.5046,-6.87614)">
                <path d="M218.228,235.13C218.228,235.13 217.875,239.984 218.784,241.05C219.692,242.115 218.784,243.115 216.534,243.473C213.952,243.884 212.067,244.265 210.857,243.499C211.212,242.732 211.619,237.54 211.619,237.54L218.228,235.13Z" style="fill:rgb(248,178,175);fill-rule:nonzero;"/>
            </g>
            <g transform="matrix(1,0,0,1,-27.5046,-6.87614)">
                <path d="M220.408,228.815C219.26,226.381 215.002,223.575 210.94,227.37C206.68,231.35 208.358,239.362 211.495,239.915C213.091,240.197 216.272,239.413 218.387,237.252C220.769,234.818 221.298,230.708 220.408,228.815Z" style="fill:rgb(250,194,194);fill-rule:nonzero;"/>
            </g>
            <g transform="matrix(1,0,0,1,-27.5046,-6.87614)">
                <path d="M208.53,226.428C208.53,226.428 209.283,229.625 212.274,230.886C212.583,231.926 212.42,232.483 211.844,233.645C211.949,233.977 212.48,234.168 212.48,234.168C213.181,233.172 214.491,232.614 214.975,233.73C215.413,234.736 214.802,235.457 213.927,236.509C213.278,239.48 217.458,241.276 217.458,241.276C217.458,241.276 219.384,238.324 221.163,236.371C222.94,234.417 223.553,230.139 220.929,228.178C220.255,225.049 217.341,223.228 214.288,224.39C212.898,224.92 212.095,225.472 211.157,225.866C209.644,226.502 208.53,226.428 208.53,226.428Z" style="fill:rgb(51,33,31);fill-rule:nonzero;"/>
            </g>
            <g transform="matrix(1,0,0,1,-27.5046,-6.87614)">
                <path d="M200.6,266.173C201.743,266.326 201.764,266.182 202.7,265.295C206.735,261.464 210.004,255.356 210.857,253.53C211.866,251.37 205.282,251.141 205.282,251.141C205.282,251.141 200.515,259.504 198.594,262.799C198.213,263.452 199.618,266.041 200.6,266.173Z" style="fill:rgb(250,194,194);fill-rule:nonzero;"/>
            </g>
            <g transform="matrix(1,0,0,1,-27.5046,-6.87614)">
                <path d="M208.382,260.677C205.325,259.835 203.07,258.942 201.147,256.325C203.827,250.255 206.835,244.393 209.443,245.538C212.48,246.87 213.791,251.189 211.619,255.618C210.902,257.078 209.846,259.305 208.382,260.677Z" style="fill:rgb(154,153,204);fill-rule:nonzero;"/>
            </g>
            <g transform="matrix(1,0,0,1,-27.5046,-6.87614)">
                <path d="M209.846,268.541C209.846,268.541 212.586,269.381 214.598,269.314C216.611,269.248 218.784,268.929 218.784,268.929C218.784,268.929 217.331,270.662 214.598,270.56C211.866,270.46 209.846,268.541 209.846,268.541Z" style="fill:rgb(154,153,204);fill-rule:nonzero;"/>
            </g>
            <g transform="matrix(1,0,0,1,-27.5046,-6.87614)">
                <path d="M217.419,265.401C217.419,265.401 215.904,266.32 213.784,266.724C211.664,267.128 209.846,267.164 209.846,267.164C209.846,267.164 211.563,265.895 213.632,265.401C215.702,264.907 217.419,265.401 217.419,265.401Z" style="fill:rgb(154,153,204);fill-rule:nonzero;"/>
            </g>
            <g transform="matrix(1,0,0,1,-27.5046,-6.87614)">
                <path d="M218.349,239.97C218.349,239.97 219.337,240.746 219.639,241.972C219.942,243.2 217.951,244.715 215.615,244.917C213.279,245.118 209.275,244.752 209.275,244.752C209.275,244.752 209.544,242.786 211.966,242.488C214.389,242.19 216.611,242.244 217.57,241.548C218.529,240.851 218.349,239.97 218.349,239.97Z" style="fill:rgb(154,153,204);fill-rule:nonzero;"/>
            </g>
            <g transform="matrix(1,0,0,1,-27.5046,-6.87614)">
                <path d="M200.621,261.586C200.621,261.586 197.531,257.27 196.99,256.263C196.45,255.258 196.492,254.458 196.351,253.293C196.211,252.129 197.204,250.504 196.738,250.199C195.531,249.41 195.433,251.729 194.986,252.334C194.538,252.939 193.506,252.727 193.506,252.727C193.506,252.727 192.807,251.854 192.28,251.141C191.752,250.428 191.363,249.918 191.363,249.918C191.363,249.918 191.122,251.282 191.724,253.036C192.191,254.395 193.38,256.139 194.124,257.068C194.866,257.996 195.714,260.715 197.014,262.852C198.313,264.989 198.445,266.118 200.306,266.173C202.169,266.227 202.601,265.608 202.664,264.556C202.725,263.504 200.621,261.586 200.621,261.586Z" style="fill:rgb(250,194,194);fill-rule:nonzero;"/>
            </g>
            <g transform="matrix(1,0,0,1,-27.5046,-6.87614)">
                <path d="M240.417,203.48C240.417,203.48 239.769,201.409 238.572,201.781C236.949,202.284 232.295,204.749 231.3,205.463C231.547,205.958 238.889,219.874 238.889,219.874L241.326,218.335L240.417,203.48Z" style="fill:rgb(199,176,213);fill-rule:nonzero;"/>
            </g>
            <g transform="matrix(1,0,0,1,-27.5046,-6.87614)">
                <path d="M233.01,207.193C233.01,207.193 232.614,205.968 231.902,205.504C231.191,205.039 230.842,205.989 231.197,206.67C231.531,207.31 232.521,208.279 233.28,209.751C234.606,212.323 238.889,219.874 238.889,219.874L239.271,219.633L233.01,207.193Z" style="fill:rgb(172,147,194);fill-rule:nonzero;"/>
            </g>
            <g transform="matrix(1,0,0,1,-27.5046,-6.87614)">
                <path d="M246.611,216.415L239.205,220.128L232.521,207.688L239.927,203.975L246.611,216.415Z" style="fill:rgb(222,200,225);fill-rule:nonzero;"/>
            </g>
            <g transform="matrix(1,0,0,1,-27.5046,-6.87614)">
                <path d="M247.1,215.92L239.694,219.633L233.01,207.193L240.417,203.48L247.1,215.92Z" style="fill:rgb(241,223,237);fill-rule:nonzero;"/>
            </g>
            <g transform="matrix(1,0,0,1,-27.5046,-6.87614)">
                <path d="M233.01,207.193L232.521,207.688L239.205,220.128L239.694,219.633L233.01,207.193Z" style="fill:rgb(222,200,225);fill-rule:nonzero;"/>
            </g>
            <g transform="matrix(1,0,0,1,-27.5046,-6.87614)">
                <path d="M246.611,216.415L247.1,215.92L239.694,219.633L239.205,220.128L246.611,216.415Z" style="fill:rgb(199,176,213);fill-rule:nonzero;"/>
            </g>
            <g transform="matrix(1,0,0,1,-27.5046,-6.87614)">
                <path d="M241.642,218.655C241.642,218.655 237.709,214.545 237.169,213.539C236.628,212.533 236.67,211.733 236.53,210.568C236.388,209.404 237.382,207.779 236.917,207.474C235.71,206.685 235.612,209.005 235.165,209.609C234.716,210.215 233.685,210.003 233.685,210.003C233.685,210.003 232.986,209.13 232.458,208.417C231.93,207.704 231.542,207.193 231.542,207.193C231.542,207.193 231.3,208.557 231.902,210.311C232.369,211.671 233.559,213.415 234.301,214.343C235.045,215.271 235.893,217.99 237.192,220.128C238.492,222.264 238.624,223.393 240.485,223.448C241.326,223.259 243.03,221.705 243.092,220.653C243.154,219.601 241.642,218.655 241.642,218.655Z" style="fill:rgb(250,194,194);fill-rule:nonzero;"/>
            </g>
            <g transform="matrix(1,0,0,1,-27.5046,-6.87614)">
                <path d="M241.678,203.739L241.036,205.267L240.778,206.441L241.593,205.563L242.506,203.903L241.678,203.739Z" style="fill:rgb(73,46,46);fill-rule:nonzero;"/>
            </g>
            <g transform="matrix(1,0,0,1,-27.5046,-6.87614)">
                <path d="M250.735,211.411C251.592,210.181 252.493,208.982 253.338,207.743C251.579,205.259 247.55,202.791 246.417,201.439C245.123,199.898 243.839,200.37 242.668,201.675C241.497,202.979 240.892,203.445 240.892,203.445C241.049,203.862 241.131,203.755 241.678,203.739C241.516,204.023 241.627,204.14 241.843,204.111C242.545,204.017 242.908,204.02 243.435,204.293C243.772,204.467 245.014,204.474 246.003,204.772C246.673,204.974 247.763,206.509 249.979,210.403C250.141,210.689 250.433,211.051 250.735,211.411Z" style="fill:rgb(250,194,194);fill-rule:nonzero;"/>
            </g>
            <g transform="matrix(1,0,0,1,-27.5046,-6.87614)">
                <path d="M242.728,203.138C242.728,203.138 243.668,203.063 244.128,202.707C244.589,202.35 244.377,201.908 243.888,201.838C243.4,201.767 242.907,202.022 242.907,202.022L242.728,203.138Z" style="fill:rgb(248,178,175);fill-rule:nonzero;"/>
            </g>
            <g transform="matrix(1,0,0,1,-27.5046,-6.87614)">
                <path d="M242.728,203.138L244.062,200.416L243.377,200.157C243.377,200.157 242.213,202.695 241.751,203.607C241.966,203.306 242.363,203.11 242.728,203.138Z" style="fill:rgb(73,46,46);fill-rule:nonzero;"/>
            </g>
            <g transform="matrix(1,0,0,1,-27.5046,-6.87614)">
                <path d="M244.062,200.416C244.019,200.53 243.831,200.565 243.641,200.494C243.452,200.423 243.334,200.271 243.377,200.157C243.42,200.043 243.608,200.008 243.797,200.08C243.987,200.151 244.105,200.301 244.062,200.416Z" style="fill:rgb(96,65,64);fill-rule:nonzero;"/>
            </g>
            <g transform="matrix(1,0,0,1,-27.5046,-6.87614)">
                <path d="M263.005,200.192C265.641,202.441 264.128,207.229 264.128,207.229C264.128,207.229 256.47,208.046 256.032,206.017C255.594,203.988 256.251,200.822 256.251,200.822C256.251,200.822 260.37,197.944 263.005,200.192Z" style="fill:rgb(238,48,133);fill-rule:nonzero;"/>
            </g>
            <g transform="matrix(1,0,0,1,-27.5046,-6.87614)">
                <path d="M250.998,220.653C250.998,220.653 246.31,222.721 242.198,224.663C238.135,225.582 236.716,229.304 236.716,229.304L241.27,232C241.27,232 250.714,230.259 251.698,226.988C252.681,223.718 250.998,220.653 250.998,220.653Z" style="fill:rgb(51,33,31);fill-rule:nonzero;"/>
            </g>
            <g transform="matrix(1,0,0,1,-27.5046,-6.87614)">
                <path d="M244.733,226.988C244.733,226.988 245.479,224.802 242.198,224.663C238.916,224.524 237.295,225.166 235.259,224.164C233.222,223.163 232.604,224.034 231.985,225.455C231.366,226.876 232.162,230.335 234.24,230.338C236.317,230.342 244.846,229.824 244.733,226.988Z" style="fill:white;fill-rule:nonzero;"/>
            </g>
            <g transform="matrix(1,0,0,1,-27.5046,-6.87614)">
                <path d="M236.716,225.822C238.756,225.854 243.092,226.054 246.075,226.326C247.432,226.45 250.391,226.518 250.391,226.518C250.391,226.518 254.943,228.294 253.441,230.338C251.939,232.383 248.349,235.039 245.255,234.701C242.161,234.363 234.24,230.338 234.24,230.338L230.65,228.234C230.65,228.234 234.495,225.788 236.716,225.822Z" style="fill:rgb(71,46,46);fill-rule:nonzero;"/>
            </g>
            <g transform="matrix(1,0,0,1,-27.5046,-6.87614)">
                <path d="M237.582,226.988C237.582,226.988 241.27,226.971 243.011,227.4C245.094,227.914 248.603,228.089 248.603,228.089L247.355,230.773C247.355,230.773 246.864,231.639 243.275,230.773C239.685,229.907 237.582,226.988 237.582,226.988Z" style="fill:rgb(51,33,31);fill-rule:nonzero;"/>
            </g>
            <g transform="matrix(1,0,0,1,-27.5046,-6.87614)">
                <path d="M237.582,226.988C239.968,227.65 243.564,228.531 246.799,229.3C249.711,220.653 260.842,221.306 260.842,221.306C260.842,221.306 262.297,226.882 263.487,230.428C265.653,236.885 262.612,239.633 259.428,241.397C257.664,242.377 256.049,244.454 249.803,243.506C243.569,242.558 234.021,238.174 232.135,235.937C229.936,233.33 228.034,229.852 230.65,228.234C231.078,227.969 231.548,227.711 232.059,227.483C233.589,226.801 235.47,226.403 237.582,226.988Z" style="fill:rgb(71,46,46);fill-rule:nonzero;"/>
            </g>
            <g transform="matrix(1,0,0,1,-27.5046,-6.87614)">
                <path d="M254.645,187.727C256.282,186.591 259.432,186.945 260.799,189.832C261.555,191.43 260.487,195.728 260.318,198.746C260.181,201.179 260.997,202.586 260.997,202.586L258.91,203.446C256.821,204.306 254.645,203.446 254.645,203.446L254.713,199.734C254.713,199.734 252.958,199.74 252.465,199.535C251.572,199.163 250.604,198.018 251.162,193.624C251.791,188.664 254.042,188.146 254.645,187.727Z" style="fill:rgb(250,194,194);fill-rule:nonzero;"/>
            </g>
            <g transform="matrix(1,0,0,1,-27.5046,-6.87614)">
                <path d="M258.446,186.146C260.514,186.833 263.013,187.369 263.005,192.218C263.001,195.904 260.82,197.131 259.484,200.391C256.032,198.752 254.358,196.01 253.804,195.432C252.558,194.131 251.162,193.624 251.003,191.92C250.675,188.425 253.899,184.637 258.446,186.146Z" style="fill:rgb(71,46,46);fill-rule:nonzero;"/>
            </g>
            <g transform="matrix(1,0,0,1,-27.5046,-6.87614)">
                <path d="M254.329,194.358C254.849,196.433 253.041,197.131 253.041,197.131L252.465,194.358C252.465,194.358 253.768,192.125 254.329,194.358Z" style="fill:rgb(250,194,194);fill-rule:nonzero;"/>
            </g>
            <g transform="matrix(1,0,0,1,-27.5046,-6.87614)">
                <path d="M259.476,186.413L260.842,190.921C260.842,190.921 258.178,190.716 258.111,188.667C258.043,186.618 259.476,186.413 259.476,186.413Z" style="fill:rgb(238,48,133);fill-rule:nonzero;"/>
            </g>
            <g transform="matrix(1,0,0,1,-27.5046,-6.87614)">
                <path d="M265.331,185.064C266.989,188.371 263.978,189.113 265.553,191.781C266.604,193.559 269.154,193.707 269.154,193.707C269.154,193.707 267.784,196.652 264.15,194.945C260.818,193.379 258.564,189.534 259.212,186.247C259.861,182.961 264.214,182.841 265.331,185.064Z" style="fill:rgb(51,33,31);fill-rule:nonzero;"/>
            </g>
            <g transform="matrix(1,0,0,1,-27.5046,-6.87614)">
                <path d="M255.038,202.314C256.923,201.789 259.876,201.998 260.545,201.354C262.06,202.06 262.793,203.123 263.684,204.84C264.576,206.556 264.347,209.403 263.005,214.574C261.915,218.775 261.621,221.051 261.643,223.496C261.646,223.784 262.032,225.45 262.077,225.797C259.29,228.837 252.499,229.051 248.743,226.11C248.743,224.468 249.75,218.071 248.67,214.775C246.885,209.325 251.869,204.194 251.869,204.194C251.869,204.194 252.91,202.906 255.038,202.314Z" style="fill:rgb(239,86,153);fill-rule:nonzero;"/>
            </g>
            <g transform="matrix(1,0,0,1,-27.5046,-6.87614)">
                <path d="M255.65,201.714C258.978,201.714 261.066,200.391 261.066,200.391L261.371,201.942C261.371,201.942 259.338,203.655 256.993,203.551C254.645,203.446 253.11,203.164 253.11,203.164C253.11,203.164 253.799,201.714 255.65,201.714Z" style="fill:white;fill-rule:nonzero;"/>
            </g>
            <g transform="matrix(1,0,0,1,-27.5046,-6.87614)">
                <path d="M244.361,212.291L239.271,218.023C239.271,218.023 238.669,223.449 240.485,223.448C241.833,223.447 243.821,221.702 245.492,219.633C247.163,217.562 248.773,215.92 248.773,215.92L244.361,212.291Z" style="fill:rgb(250,194,194);fill-rule:nonzero;"/>
            </g>
            <g transform="matrix(1,0,0,1,-27.5046,-6.87614)">
                <path d="M247.258,205.751C249.159,203.848 251.752,203.857 253.086,205.623C254.746,207.821 254.708,210.679 253.799,211.759C251.474,214.521 248.412,216.123 248.412,216.123L244.139,213.318C244.139,213.318 245.416,207.596 247.258,205.751Z" style="fill:rgb(238,48,133);fill-rule:nonzero;"/>
            </g>
            <g transform="matrix(1,0,0,1,-27.5046,-6.87614)">
                <path d="M243.462,213.302L244.43,211.747C244.43,211.747 245.1,213.269 246.298,214.163C247.496,215.056 249.159,215.821 249.159,215.821L247.821,216.931C247.821,216.931 245.808,216.167 244.881,215.093C243.773,213.809 243.462,213.302 243.462,213.302Z" style="fill:white;fill-rule:nonzero;"/>
            </g>
            <g transform="matrix(1,0,0,1,-27.5046,-6.87614)">
                <path d="M278.621,241.619C278.621,241.619 277.973,239.548 276.776,239.92C275.154,240.423 270.5,242.887 269.504,243.601C269.753,244.096 277.093,258.012 277.093,258.012L279.53,256.473L278.621,241.619Z" style="fill:rgb(199,176,213);fill-rule:nonzero;"/>
            </g>
            <g transform="matrix(1,0,0,1,-27.5046,-6.87614)">
                <path d="M271.214,245.332C271.214,245.332 270.819,244.106 270.107,243.641C269.395,243.177 269.046,244.128 269.402,244.808C269.736,245.448 270.725,246.417 271.485,247.889C272.81,250.461 277.093,258.012 277.093,258.012L277.476,257.771L271.214,245.332Z" style="fill:rgb(172,147,194);fill-rule:nonzero;"/>
            </g>
            <g transform="matrix(1,0,0,1,-27.5046,-6.87614)">
                <path d="M284.815,254.552L277.409,258.266L270.725,245.827L278.131,242.114L284.815,254.552Z" style="fill:rgb(222,200,225);fill-rule:nonzero;"/>
            </g>
            <g transform="matrix(1,0,0,1,-27.5046,-6.87614)">
                <path d="M285.304,254.057L277.898,257.771L271.214,245.332L278.621,241.619L285.304,254.057Z" style="fill:rgb(241,223,237);fill-rule:nonzero;"/>
            </g>
            <g transform="matrix(1,0,0,1,-27.5046,-6.87614)">
                <path d="M271.214,245.332L270.725,245.827L277.409,258.266L277.898,257.771L271.214,245.332Z" style="fill:rgb(222,200,225);fill-rule:nonzero;"/>
            </g>
            <g transform="matrix(1,0,0,1,-27.5046,-6.87614)">
                <path d="M284.815,254.552L285.304,254.057L277.898,257.771L277.409,258.266L284.815,254.552Z" style="fill:rgb(199,176,213);fill-rule:nonzero;"/>
            </g>
            <g transform="matrix(1,0,0,1,-27.5046,-6.87614)">
                <path d="M279.882,241.877L279.241,243.406L278.983,244.58L279.798,243.702L280.712,242.042L279.882,241.877Z" style="fill:rgb(73,46,46);fill-rule:nonzero;"/>
            </g>
            <g transform="matrix(1,0,0,1,-27.5046,-6.87614)">
                <path d="M288.939,249.549C289.797,248.32 290.698,247.121 291.543,245.882C289.783,243.397 285.755,240.928 284.621,239.578C283.327,238.036 282.044,238.509 280.873,239.813C279.701,241.118 279.096,241.584 279.096,241.584C279.254,242.001 279.336,241.893 279.882,241.877C279.721,242.162 279.832,242.279 280.048,242.25C280.749,242.155 281.112,242.158 281.64,242.431C281.976,242.605 283.218,242.612 284.207,242.911C284.878,243.113 285.967,244.647 288.183,248.542C288.346,248.828 288.637,249.189 288.939,249.549Z" style="fill:rgb(250,194,194);fill-rule:nonzero;"/>
            </g>
            <g transform="matrix(1,0,0,1,-27.5046,-6.87614)">
                <path d="M280.933,241.277C280.933,241.277 281.872,241.202 282.334,240.845C282.795,240.489 282.582,240.046 282.093,239.976C281.605,239.906 281.111,240.16 281.111,240.16L280.933,241.277Z" style="fill:rgb(248,178,175);fill-rule:nonzero;"/>
            </g>
            <g transform="matrix(1,0,0,1,-27.5046,-6.87614)">
                <path d="M280.933,241.277L282.267,238.554L281.581,238.296C281.581,238.296 280.419,240.834 279.955,241.746C280.171,241.445 280.567,241.249 280.933,241.277Z" style="fill:rgb(73,46,46);fill-rule:nonzero;"/>
            </g>
            <g transform="matrix(1,0,0,1,-27.5046,-6.87614)">
                <path d="M282.267,238.554C282.224,238.669 282.036,238.704 281.846,238.633C281.657,238.56 281.538,238.41 281.581,238.296C281.625,238.181 281.813,238.146 282.003,238.218C282.191,238.29 282.31,238.44 282.267,238.554Z" style="fill:rgb(96,65,64);fill-rule:nonzero;"/>
            </g>
            <g transform="matrix(1,0,0,1,-27.5046,-6.87614)">
                <path d="M289.2,261.783C289.2,261.783 284.2,265.229 280.758,267.576C277.318,269.923 276.206,270.434 276.206,270.434L280.758,273.13C280.758,273.13 290.204,271.388 291.187,268.118C292.171,264.848 289.2,261.783 289.2,261.783Z" style="fill:rgb(51,33,31);fill-rule:nonzero;"/>
            </g>
            <g transform="matrix(1,0,0,1,-27.5046,-6.87614)">
                <path d="M276.206,266.953C278.245,266.984 282.582,267.184 285.564,267.457C286.921,267.58 289.88,267.648 289.88,267.648C289.88,267.648 294.432,269.424 292.93,271.468C291.427,273.512 287.838,276.169 284.744,275.831C281.65,275.493 273.728,271.468 273.728,271.468L270.139,269.364C270.139,269.364 273.984,266.918 276.206,266.953Z" style="fill:rgb(71,46,46);fill-rule:nonzero;"/>
            </g>
            <g transform="matrix(1,0,0,1,-27.5046,-6.87614)">
                <path d="M302.302,242.771C304.538,244.872 305.682,250.423 302.047,253.596C298.413,256.77 297.069,243.316 297.069,243.316C298.448,242.657 299.609,240.241 302.302,242.771Z" style="fill:rgb(245,161,198);fill-rule:nonzero;"/>
            </g>
            <g transform="matrix(1,0,0,1,-27.5046,-6.87614)">
                <path d="M292.194,227.657C293.909,226.467 297.207,226.838 298.638,229.861C299.43,231.535 298.311,236.036 298.133,239.196C297.991,241.745 298.844,243.217 298.844,243.217L296.659,244.118C294.472,245.019 292.194,244.118 292.194,244.118L292.264,240.23C292.264,240.23 290.648,240.164 290.236,239.786C289.244,238.878 288.086,237.319 288.546,233.832C289.229,228.64 291.562,228.095 292.194,227.657Z" style="fill:rgb(250,194,194);fill-rule:nonzero;"/>
            </g>
            <g transform="matrix(1,0,0,1,-27.5046,-6.87614)">
                <path d="M277.07,268.118C277.07,268.118 280.758,268.101 282.501,268.53C284.584,269.044 288.092,269.218 288.092,269.218L286.844,271.903C286.844,271.903 286.353,272.769 282.764,271.903C279.174,271.037 277.07,268.118 277.07,268.118Z" style="fill:rgb(51,33,31);fill-rule:nonzero;"/>
            </g>
            <g transform="matrix(1,0,0,1,-27.5046,-6.87614)">
                <path d="M277.07,268.118C282.383,269.593 293.68,272.146 293.68,272.146C293.68,272.146 301.786,268.012 302.975,271.558C305.142,278.015 302.101,280.762 298.919,282.527C297.153,283.507 295.539,285.584 289.293,284.635C283.058,283.688 273.51,279.303 271.625,277.067C269.425,274.46 267.523,270.982 270.139,269.364C270.567,269.099 271.038,268.841 271.548,268.613C273.078,267.93 274.96,267.533 277.07,268.118Z" style="fill:rgb(71,46,46);fill-rule:nonzero;"/>
            </g>
            <g transform="matrix(1,0,0,1,-27.5046,-6.87614)">
                <path d="M286.294,255.553C285.004,252.8 285.904,248.049 286.724,246.252C287.546,244.455 292.197,243.113 292.197,243.113L298.919,242.319C298.919,242.319 302.951,243.623 302.951,249.661C302.951,253.308 302.347,256.152 301.774,260.731C301.615,262.007 301.157,265.013 303.309,270.53C303.426,270.832 303.53,271.251 303.624,271.748C302.531,274.799 296.506,277.862 293.68,277.815C291.793,277.785 289.472,277.385 287.812,276.206C286.153,275.026 285.495,274.362 286.253,271.212C286.49,270.226 288.93,261.183 286.294,255.553Z" style="fill:rgb(249,202,223);fill-rule:nonzero;"/>
            </g>
            <g transform="matrix(1,0,0,1,-27.5046,-6.87614)">
                <path d="M292.232,242.009C292.232,242.009 294.228,242.813 296.471,242.009L298.714,241.206L299.46,242.797C299.46,242.797 299.123,243.89 296.901,244.597C294.679,245.304 292.671,245.17 290.485,244.092C290.471,242.653 292.232,242.009 292.232,242.009Z" style="fill:rgb(245,161,198);fill-rule:nonzero;"/>
            </g>
            <g transform="matrix(1,0,0,1,-27.5046,-6.87614)">
                <path d="M295.321,225.228C298.391,225.228 301.109,227.457 301.108,234.141C301.107,235.508 299.843,237.825 298.668,239.032C298.083,239.633 297.391,240.272 297.245,241.119C294.864,240.841 292.617,237.089 291.312,235.725C290.008,234.362 288.444,233.38 287.561,231.858C287.436,230.529 287.546,227.787 289.91,227.676C290.866,226.512 291.698,225.228 295.321,225.228Z" style="fill:rgb(51,33,31);fill-rule:nonzero;"/>
            </g>
            <g transform="matrix(1,0,0,1,-27.5046,-6.87614)">
                <path d="M291.862,234.6C292.407,236.774 290.513,237.504 290.513,237.504L289.91,234.6C289.91,234.6 291.275,232.262 291.862,234.6Z" style="fill:rgb(250,194,194);fill-rule:nonzero;"/>
            </g>
            <g transform="matrix(1,0,0,1,-27.5046,-6.87614)">
                <path d="M287.972,247.727C287.972,247.727 286.065,247.454 284.736,248.909C283.531,250.228 278.772,255.901 277.893,256.951C277.84,258.295 278.921,260.297 279.847,261.502C282.52,261.222 285.93,257.084 287.307,255.086C288.951,252.702 291.66,250.737 287.972,247.727Z" style="fill:rgb(250,194,194);fill-rule:nonzero;"/>
            </g>
            <g transform="matrix(1,0,0,1,-27.5046,-6.87614)">
                <path d="M285.915,258.585C287.916,256.127 290.143,253.651 290.828,250.664C291.64,247.12 290.388,245.884 290.388,245.884C288.3,244.371 285.629,244.694 283.241,248.399C282.436,249.648 281.38,251.257 280.402,252.854C281.107,255.521 283.396,257.578 285.915,258.585Z" style="fill:rgb(245,161,198);fill-rule:nonzero;"/>
            </g>
            <g transform="matrix(1,0,0,1,-27.5046,-6.87614)">
                <path d="M303.402,247.878C302.446,245.261 298.785,243.126 298.662,240.367C298.649,240.088 298.731,239.806 298.858,239.513C297.899,239.946 296.883,240.265 295.848,240.506C296.804,241.676 296.636,247.461 298.662,251.63C300.913,256.265 299.602,257.111 299.602,257.111C299.602,257.111 306.019,255.041 303.402,247.878Z" style="fill:rgb(51,33,31);fill-rule:nonzero;"/>
            </g>
            <g transform="matrix(1,0,0,1,-27.5046,-6.87614)">
                <path d="M299.254,238.38C299.254,238.38 299.313,240.488 298.983,240.843C298.537,241.321 296.865,241.862 296.254,241.624C295.73,241.42 294.959,240.358 294.889,239.831C297.046,239.653 299.254,238.38 299.254,238.38Z" style="fill:rgb(249,202,223);fill-rule:nonzero;"/>
            </g>
            <g transform="matrix(1,0,0,1,-27.5046,-6.87614)">
                <path d="M279.847,256.795C279.847,256.795 275.914,252.683 275.373,251.677C274.833,250.672 274.876,249.872 274.734,248.707C274.593,247.542 275.587,245.918 275.121,245.613C273.914,244.824 273.817,247.142 273.369,247.748C272.921,248.352 271.889,248.141 271.889,248.141C271.889,248.141 271.19,247.267 270.663,246.555C270.134,245.843 269.746,245.332 269.746,245.332C269.746,245.332 269.504,246.696 270.107,248.45C270.574,249.809 271.763,251.553 272.506,252.482C273.249,253.41 274.097,256.129 275.397,258.266C276.696,260.403 276.828,261.533 278.689,261.587C280.551,261.64 280.985,261.022 281.046,259.969C281.108,258.918 279.847,256.795 279.847,256.795Z" style="fill:rgb(250,194,194);fill-rule:nonzero;"/>
            </g>
        </g>
    </g>
</svg>
