<svg id="e05z7oubq3szj1" xmlns="http://www.w3.org/2000/svg" xmlns:xlink="http://www.w3.org/1999/xlink" viewBox="0 0 1210 1200" shape-rendering="geometricPrecision" text-rendering="geometricPrecision"><style><![CDATA[#e05z7oubq3szj19_to {animation: e05z7oubq3szj19_to__to 5000ms linear infinite normal forwards}@keyframes e05z7oubq3szj19_to__to { 0% {transform: translate(180.964500px,52.194676px)} 50% {transform: translate(181.442900px,50.286177px)} 100% {transform: translate(180.964500px,52.194676px)} }#e05z7oubq3szj94_to {animation: e05z7oubq3szj94_to__to 5000ms linear infinite normal forwards}@keyframes e05z7oubq3szj94_to__to { 0% {transform: translate(32.939499px,124.803108px);animation-timing-function: cubic-bezier(0.445000,0.050000,0.550000,0.950000)} 50% {transform: translate(33.799901px,128.886000px);animation-timing-function: cubic-bezier(0.445000,0.050000,0.550000,0.950000)} 100% {transform: translate(32.939499px,124.803108px)} }#e05z7oubq3szj129_to {animation: e05z7oubq3szj129_to__to 5000ms linear infinite normal forwards}@keyframes e05z7oubq3szj129_to__to { 0% {transform: translate(190.336182px,124.228672px);animation-timing-function: cubic-bezier(0.665000,0.165000,0.355000,0.905000)} 24% {transform: translate(190.382441px,117.444500px);animation-timing-function: cubic-bezier(0.665000,0.165000,0.355000,0.905000)} 50% {transform: translate(190.336182px,124.228672px);animation-timing-function: cubic-bezier(0.665000,0.165000,0.355000,0.905000)} 76% {transform: translate(190.382441px,117.444500px);animation-timing-function: cubic-bezier(0.665000,0.165000,0.355000,0.905000)} 100% {transform: translate(190.336182px,124.228672px)} }]]></style><g id="e05z7oubq3szj2" transform="matrix(1.00777000000000 0 0 1 2.22279000000000 1.70061000000000)" clip-rule="evenodd"><rect id="e05z7oubq3szj3" width="1199.990000" height="1199.990000" rx="0" ry="0" transform="matrix(1 0 0 1 -2.20600000000002 -1.70100000000002)" clip-rule="evenodd" fill="none" fill-rule="evenodd" stroke="none" stroke-width="1" stroke-linejoin="round" stroke-miterlimit="2"/><g id="e05z7oubq3szj4" transform="matrix(4.13453000000000 0 0 4.16667000000000 10.02560000000000 0.29939500000000)" clip-rule="evenodd"><g id="e05z7oubq3szj5" transform="matrix(1 0 0 1 -27.50460000000000 -6.87614000000000)" clip-rule="evenodd"><path id="e05z7oubq3szj6" d="M208.945000,293C193.921000,293,181.742000,286.523000,181.742000,278.530000C181.742000,278.383000,181.775000,278.242000,181.783000,278.096000C182.217000,270.305000,194.196000,264.059000,208.945000,264.059000C223.697000,264.059000,235.676000,270.305000,236.112000,278.096000C236.120000,278.242000,236.153000,278.383000,236.153000,278.530000C236.153000,286.523000,223.972000,293,208.945000,293Z" clip-rule="evenodd" fill="rgb(221,219,238)" stroke="none" stroke-width="1" stroke-linejoin="round" stroke-miterlimit="2"/></g><g id="e05z7oubq3szj7" transform="matrix(1 0 0 1 -27.50460000000000 -6.87614000000000)" clip-rule="evenodd"><path id="e05z7oubq3szj8" d="M287.633000,292.382000C274.101000,292.382000,263.131000,286.550000,263.131000,279.350000C263.131000,279.218000,263.162000,279.091000,263.169000,278.960000C263.560000,271.943000,274.349000,266.317000,287.633000,266.317000C300.919000,266.317000,311.709000,271.943000,312.100000,278.960000C312.108000,279.091000,312.137000,279.218000,312.137000,279.350000C312.137000,286.550000,301.168000,292.382000,287.633000,292.382000Z" clip-rule="evenodd" fill="rgb(221,219,238)" stroke="none" stroke-width="1" stroke-linejoin="round" stroke-miterlimit="2"/></g><path id="e05z7oubq3szj9" d="M46.477000,285.791000L36.417000,279.983000L54.527000,269.527000L55.618000,270.150000C57.162000,271.086000,58.991000,271.555000,60.923000,271.555000C63.208000,271.555000,65.638000,270.899000,67.911000,269.587000L144.776000,225.210000C147.979000,223.360000,150.935000,220.169000,153.276000,216.339000L160.023000,220.235000L46.477000,285.791000Z" clip-rule="evenodd" fill="rgb(221,219,238)" stroke="none" stroke-width="1" stroke-linejoin="round" stroke-miterlimit="2"/><g id="e05z7oubq3szj10" transform="matrix(1 0 0 1 -27.50460000000000 -6.87614000000000)" clip-rule="evenodd"><path id="e05z7oubq3szj11" d="M248.283000,247.751000C234.764000,247.751000,223.804000,241.923000,223.804000,234.730000C223.804000,234.598000,223.834000,234.470000,223.841000,234.340000C224.232000,227.330000,235.011000,221.710000,248.283000,221.710000C261.557000,221.710000,272.336000,227.330000,272.728000,234.340000C272.735000,234.470000,272.765000,234.598000,272.765000,234.730000C272.765000,241.923000,261.803000,247.751000,248.283000,247.751000Z" clip-rule="evenodd" fill="rgb(221,219,238)" stroke="none" stroke-width="1" stroke-linejoin="round" stroke-miterlimit="2"/></g><path id="e05z7oubq3szj12" d="M153.172000,20.579000L146.567000,16.821000L146.251000,16.642000L146.231000,16.650000C143.094000,14.966000,139.116000,14.973000,135.461000,17.084000L58.275000,61.647000C50.733000,66.001000,44.562000,77.791000,44.562000,87.847000L44.562000,257.288000C44.562000,261.616000,46.285000,264.606000,48.842000,266.270000L48.842000,266.279000L48.890000,266.306000C49.005000,266.380000,49.127000,266.440000,49.244000,266.509000L55.800000,270.255000L61.370000,265.867000L138.235000,221.489000C145.777000,217.134000,151.947000,205.344000,151.947000,195.289000L151.947000,27.320000C151.947000,25.825000,151.730000,24.469000,151.369000,23.230000L151.947000,23.584000L153.172000,20.579000Z" clip-rule="evenodd" fill="rgb(103,47,234)" stroke="none" stroke-width="1" stroke-linejoin="round" stroke-miterlimit="2"/><path id="e05z7oubq3szj13" d="M144.776000,225.210000L67.911000,269.587000C60.369000,273.941000,51.103000,271.064000,51.103000,261.008000L51.103000,91.567000C51.103000,81.511000,57.274000,69.721000,64.816000,65.367000L142.002000,20.804000C149.544000,16.449000,158.488000,20.984000,158.488000,31.040000L158.488000,199.010000C158.488000,209.065000,152.317000,220.855000,144.776000,225.210000Z" clip-rule="evenodd" fill="rgb(88,107,178)" stroke="none" stroke-width="1" stroke-linejoin="round" stroke-miterlimit="2"/><path id="e05z7oubq3szj14" d="M61.483000,268.475000C56.836000,268.475000,53.597000,264.443000,53.597000,257.180000L53.597000,92.699000C53.597000,82.708000,59.728000,70.993000,67.222000,66.667000L142.370000,23.281000C144.276000,22.180000,146.094000,21.660000,147.746000,21.660000C152.586000,21.660000,155.994000,26.131000,155.994000,33.581000L155.994000,198.062000C155.994000,208.053000,149.863000,219.010000,142.370000,223.337000L67.222000,266.723000C65.175000,267.905000,63.229000,268.475000,61.483000,268.475000Z" clip-rule="evenodd" fill="rgb(139,146,200)" stroke="none" stroke-width="1" stroke-linejoin="round" stroke-miterlimit="2"/><path id="e05z7oubq3szj15" d="M150.619000,204.379000L58.973000,257.291000L58.973000,86.198000L150.619000,33.286000L150.619000,204.379000Z" clip-rule="evenodd" fill="rgb(255,255,255)" stroke="none" stroke-width="1" stroke-linejoin="round" stroke-miterlimit="2"/><path id="e05z7oubq3szj16" d="M99.842000,55.041000C99.842000,56.284000,99.087000,57.729000,98.153000,58.267000C97.221000,58.805000,96.465000,58.234000,96.465000,56.991000C96.465000,55.747000,97.221000,54.303000,98.153000,53.764000C99.087000,53.226000,99.842000,53.798000,99.842000,55.041000Z" clip-rule="evenodd" fill="rgb(255,255,255)" stroke="none" stroke-width="1" stroke-linejoin="round" stroke-miterlimit="2"/><path id="e05z7oubq3szj17" d="M116.697000,47.562000L105.590000,53.974000C104.662000,54.510000,103.901000,53.936000,103.901000,52.697000C103.901000,51.459000,104.662000,50.008000,105.590000,49.471000L116.697000,43.058000C117.626000,42.523000,118.386000,43.097000,118.386000,44.335000C118.386000,45.573000,117.626000,47.025000,116.697000,47.562000Z" clip-rule="evenodd" fill="rgb(255,255,255)" stroke="none" stroke-width="1" stroke-linejoin="round" stroke-miterlimit="2"/><path id="e05z7oubq3szj18" d="M115.830000,228.979000L104.187000,235.702000C103.191000,236.276000,102.377000,237.833000,102.377000,239.159000C102.377000,240.486000,103.191000,241.101000,104.187000,240.526000L115.830000,233.804000C116.825000,233.230000,117.640000,231.675000,117.640000,230.347000C117.640000,229.020000,116.825000,228.405000,115.830000,228.979000Z" clip-rule="evenodd" fill="rgb(255,255,255)" stroke="none" stroke-width="1" stroke-linejoin="round" stroke-miterlimit="2"/><g id="e05z7oubq3szj19_to" transform="translate(180.964500,52.194676)"><g id="e05z7oubq3szj19" transform="translate(-180.964500,-52.194676)" clip-rule="evenodd"><path id="e05z7oubq3szj20" d="M230.371000,3.133000L227.417000,1.475000C227.148000,1.299000,226.869000,1.141000,226.578000,1.005000L226.559000,0.994000L226.558000,0.995000C224.737000,0.151000,222.530000,0.115000,220.544000,1.262000L141.920000,46.655000C133.399000,51.575000,128.149000,60.667000,128.149000,70.505000L128.149000,80.032000C128.149000,82.243000,129.200000,84.091000,130.746000,85.256000L130.753000,85.260000C131.155000,85.562000,131.592000,85.813000,132.051000,86.017000L134.869000,87.661000L137.978000,85.706000L142.333000,83.191000L142.333000,102.073000L145.742000,104.010000L148.747000,92.175000L147.285000,92.612000L156.495000,75.015000L216.601000,40.313000C225.122000,35.393000,230.371000,26.301000,230.371000,16.463000L230.371000,6.936000C230.371000,6.072000,230.201000,5.268000,229.913000,4.534000L230.371000,3.133000Z" clip-rule="evenodd" fill="rgb(154,153,204)" stroke="none" stroke-width="1" stroke-linejoin="round" stroke-miterlimit="2"/><path id="e05z7oubq3szj21" d="M223.953000,3.199000L145.329000,48.592000C136.808000,53.512000,131.559000,62.603000,131.559000,72.443000L131.559000,81.969000C131.559000,87.012000,137.019000,90.165000,141.387000,87.643000L145.742000,85.128000L145.742000,104.010000L159.904000,76.952000L220.010000,42.250000C228.531000,37.330000,233.780000,28.238000,233.780000,18.400000L233.780000,8.873000C233.780000,3.829000,228.321000,0.677000,223.953000,3.199000Z" clip-rule="evenodd" fill="rgb(187,183,219)" stroke="none" stroke-width="1" stroke-linejoin="round" stroke-miterlimit="2"/><path id="e05z7oubq3szj22" d="M147.739000,67.177000C148.356000,66.819000,148.815000,67.196000,148.815000,68.049000C148.815000,68.888000,148.356000,69.798000,147.739000,70.156000C147.123000,70.510000,146.664000,70.131000,146.664000,69.291000C146.664000,68.438000,147.123000,67.531000,147.739000,67.177000Z" clip-rule="evenodd" fill="rgb(255,255,255)" stroke="none" stroke-width="1" stroke-linejoin="round" stroke-miterlimit="2"/><path id="e05z7oubq3szj23" d="M151.363000,65.082000C151.980000,64.727000,152.439000,65.104000,152.439000,65.957000C152.439000,66.797000,151.980000,67.706000,151.363000,68.061000C150.746000,68.418000,150.287000,68.038000,150.287000,67.199000C150.287000,66.346000,150.746000,65.439000,151.363000,65.082000Z" clip-rule="evenodd" fill="rgb(255,255,255)" stroke="none" stroke-width="1" stroke-linejoin="round" stroke-miterlimit="2"/><path id="e05z7oubq3szj24" d="M154.987000,62.992000C155.604000,62.635000,156.063000,63.012000,156.063000,63.865000C156.063000,64.704000,155.604000,65.614000,154.987000,65.971000C154.371000,66.326000,153.912000,65.946000,153.912000,65.107000C153.912000,64.254000,154.371000,63.347000,154.987000,62.992000Z" clip-rule="evenodd" fill="rgb(255,255,255)" stroke="none" stroke-width="1" stroke-linejoin="round" stroke-miterlimit="2"/><path id="e05z7oubq3szj25" d="M158.611000,60.898000C159.228000,60.543000,159.687000,60.920000,159.687000,61.773000C159.687000,62.612000,159.228000,63.522000,158.611000,63.877000C157.994000,64.235000,157.535000,63.854000,157.535000,63.015000C157.535000,62.162000,157.994000,61.255000,158.611000,60.898000Z" clip-rule="evenodd" fill="rgb(255,255,255)" stroke="none" stroke-width="1" stroke-linejoin="round" stroke-miterlimit="2"/><path id="e05z7oubq3szj26" d="M183.975000,46.256000C184.592000,45.898000,185.051000,46.275000,185.051000,47.128000C185.051000,47.967000,184.592000,48.877000,183.975000,49.235000C183.359000,49.590000,182.900000,49.209000,182.900000,48.370000C182.900000,47.517000,183.359000,46.611000,183.975000,46.256000Z" clip-rule="evenodd" fill="rgb(255,255,255)" stroke="none" stroke-width="1" stroke-linejoin="round" stroke-miterlimit="2"/><path id="e05z7oubq3szj27" d="M187.599000,44.160000C188.215000,43.806000,188.674000,44.183000,188.674000,45.036000C188.674000,45.876000,188.215000,46.785000,187.599000,47.139000C186.983000,47.497000,186.524000,47.117000,186.524000,46.278000C186.524000,45.425000,186.983000,44.518000,187.599000,44.160000Z" clip-rule="evenodd" fill="rgb(255,255,255)" stroke="none" stroke-width="1" stroke-linejoin="round" stroke-miterlimit="2"/><path id="e05z7oubq3szj28" d="M191.223000,42.071000C191.839000,41.714000,192.299000,42.091000,192.299000,42.944000C192.299000,43.783000,191.839000,44.693000,191.223000,45.050000C190.606000,45.405000,190.148000,45.025000,190.148000,44.186000C190.148000,43.333000,190.606000,42.426000,191.223000,42.071000Z" clip-rule="evenodd" fill="rgb(255,255,255)" stroke="none" stroke-width="1" stroke-linejoin="round" stroke-miterlimit="2"/><path id="e05z7oubq3szj29" d="M194.847000,39.976000C195.463000,39.621000,195.922000,39.999000,195.922000,40.852000C195.922000,41.691000,195.463000,42.601000,194.847000,42.955000C194.230000,43.313000,193.771000,42.933000,193.771000,42.093000C193.771000,41.240000,194.230000,40.334000,194.847000,39.976000Z" clip-rule="evenodd" fill="rgb(255,255,255)" stroke="none" stroke-width="1" stroke-linejoin="round" stroke-miterlimit="2"/><path id="e05z7oubq3szj30" d="M198.471000,37.887000C199.087000,37.529000,199.546000,37.907000,199.546000,38.760000C199.546000,39.599000,199.087000,40.508000,198.471000,40.866000C197.854000,41.221000,197.395000,40.841000,197.395000,40.002000C197.395000,39.149000,197.854000,38.242000,198.471000,37.887000Z" clip-rule="evenodd" fill="rgb(255,255,255)" stroke="none" stroke-width="1" stroke-linejoin="round" stroke-miterlimit="2"/><path id="e05z7oubq3szj31" d="M202.095000,35.792000C202.712000,35.437000,203.170000,35.815000,203.170000,36.668000C203.170000,37.507000,202.712000,38.417000,202.095000,38.771000C201.478000,39.129000,201.019000,38.749000,201.019000,37.910000C201.019000,37.056000,201.478000,36.150000,202.095000,35.792000Z" clip-rule="evenodd" fill="rgb(255,255,255)" stroke="none" stroke-width="1" stroke-linejoin="round" stroke-miterlimit="2"/><path id="e05z7oubq3szj32" d="M205.719000,33.703000C206.336000,33.345000,206.795000,33.722000,206.795000,34.576000C206.795000,35.415000,206.336000,36.324000,205.719000,36.682000C205.102000,37.036000,204.643000,36.656000,204.643000,35.818000C204.643000,34.965000,205.102000,34.057000,205.719000,33.703000Z" clip-rule="evenodd" fill="rgb(255,255,255)" stroke="none" stroke-width="1" stroke-linejoin="round" stroke-miterlimit="2"/><path id="e05z7oubq3szj33" d="M209.342000,31.608000C209.960000,31.253000,210.419000,31.630000,210.419000,32.484000C210.419000,33.323000,209.960000,34.232000,209.342000,34.587000C208.726000,34.945000,208.267000,34.564000,208.267000,33.725000C208.267000,32.872000,208.726000,31.966000,209.342000,31.608000Z" clip-rule="evenodd" fill="rgb(255,255,255)" stroke="none" stroke-width="1" stroke-linejoin="round" stroke-miterlimit="2"/><path id="e05z7oubq3szj34" d="M212.966000,29.518000C213.584000,29.161000,214.043000,29.538000,214.043000,30.391000C214.043000,31.231000,213.584000,32.140000,212.966000,32.498000C212.350000,32.852000,211.891000,32.472000,211.891000,31.633000C211.891000,30.780000,212.350000,29.873000,212.966000,29.518000Z" clip-rule="evenodd" fill="rgb(255,255,255)" stroke="none" stroke-width="1" stroke-linejoin="round" stroke-miterlimit="2"/><path id="e05z7oubq3szj35" d="M216.590000,27.424000C217.208000,27.069000,217.667000,27.446000,217.667000,28.299000C217.667000,29.138000,217.208000,30.048000,216.590000,30.403000C215.971000,30.760000,215.515000,30.380000,215.515000,29.541000C215.515000,28.688000,215.971000,27.781000,216.590000,27.424000Z" clip-rule="evenodd" fill="rgb(255,255,255)" stroke="none" stroke-width="1" stroke-linejoin="round" stroke-miterlimit="2"/><path id="e05z7oubq3szj36" d="M220.214000,25.334000C220.832000,24.977000,221.288000,25.354000,221.288000,26.207000C221.288000,27.046000,220.832000,27.956000,220.214000,28.314000C219.595000,28.668000,219.138000,28.288000,219.138000,27.449000C219.138000,26.595000,219.595000,25.689000,220.214000,25.334000Z" clip-rule="evenodd" fill="rgb(255,255,255)" stroke="none" stroke-width="1" stroke-linejoin="round" stroke-miterlimit="2"/><path id="e05z7oubq3szj37" d="M223.836000,23.239000C224.455000,22.884000,224.911000,23.262000,224.911000,24.115000C224.911000,24.954000,224.455000,25.863000,223.836000,26.218000C223.219000,26.576000,222.763000,26.196000,222.763000,25.357000C222.763000,24.504000,223.219000,23.597000,223.836000,23.239000Z" clip-rule="evenodd" fill="rgb(255,255,255)" stroke="none" stroke-width="1" stroke-linejoin="round" stroke-miterlimit="2"/></g></g><g id="e05z7oubq3szj38" transform="matrix(1 0 0 1 -96.57160000000000 -2.06284000000000)" clip-rule="evenodd"><path id="e05z7oubq3szj39" d="M162.235000,58.808000C162.852000,58.450000,163.311000,58.828000,163.311000,59.681000C163.311000,60.520000,162.852000,61.430000,162.235000,61.787000C161.618000,62.142000,161.159000,61.762000,161.159000,60.923000C161.159000,60.070000,161.618000,59.163000,162.235000,58.808000Z" clip-rule="evenodd" fill="rgb(255,255,255)" stroke="none" stroke-width="1" stroke-linejoin="round" stroke-miterlimit="2"/></g><g id="e05z7oubq3szj40" transform="matrix(1 0 0 1 -96.57160000000000 -2.06284000000000)" clip-rule="evenodd"><path id="e05z7oubq3szj41" d="M165.858000,56.713000C166.476000,56.359000,166.935000,56.736000,166.935000,57.589000C166.935000,58.428000,166.476000,59.338000,165.858000,59.693000C165.242000,60.050000,164.783000,59.670000,164.783000,58.831000C164.783000,57.978000,165.242000,57.071000,165.858000,56.713000Z" clip-rule="evenodd" fill="rgb(255,255,255)" stroke="none" stroke-width="1" stroke-linejoin="round" stroke-miterlimit="2"/></g><g id="e05z7oubq3szj42" transform="matrix(1 0 0 1 -96.57160000000000 15.89150000000000)" clip-rule="evenodd"><path id="e05z7oubq3szj43" d="M169.482000,54.624000C170.099000,54.266000,170.558000,54.644000,170.558000,55.497000C170.558000,56.336000,170.099000,57.245000,169.482000,57.603000C168.866000,57.958000,168.407000,57.578000,168.407000,56.738000C168.407000,55.885000,168.866000,54.979000,169.482000,54.624000Z" clip-rule="evenodd" fill="rgb(255,255,255)" stroke="none" stroke-width="1" stroke-linejoin="round" stroke-miterlimit="2"/></g><g id="e05z7oubq3szj44" transform="matrix(1 0 0 1 -96.57160000000000 15.89150000000000)" clip-rule="evenodd"><path id="e05z7oubq3szj45" d="M173.107000,52.529000C173.723000,52.174000,174.179000,52.551000,174.179000,53.404000C174.179000,54.244000,173.723000,55.154000,173.107000,55.508000C172.487000,55.865000,172.031000,55.486000,172.031000,54.647000C172.031000,53.793000,172.487000,52.886000,173.107000,52.529000Z" clip-rule="evenodd" fill="rgb(255,255,255)" stroke="none" stroke-width="1" stroke-linejoin="round" stroke-miterlimit="2"/></g><g id="e05z7oubq3szj46" transform="matrix(1 0 0 1 -96.57160000000000 15.89150000000000)" clip-rule="evenodd"><path id="e05z7oubq3szj47" d="M176.728000,50.440000C177.347000,50.082000,177.803000,50.459000,177.803000,51.313000C177.803000,52.152000,177.347000,53.061000,176.728000,53.419000C176.111000,53.774000,175.655000,53.394000,175.655000,52.554000C175.655000,51.701000,176.111000,50.794000,176.728000,50.440000Z" clip-rule="evenodd" fill="rgb(255,255,255)" stroke="none" stroke-width="1" stroke-linejoin="round" stroke-miterlimit="2"/></g><g id="e05z7oubq3szj48" transform="matrix(1 0 0 1 -96.57160000000000 15.89150000000000)" clip-rule="evenodd"><path id="e05z7oubq3szj49" d="M180.351000,48.345000C180.968000,47.990000,181.427000,48.367000,181.427000,49.220000C181.427000,50.059000,180.968000,50.969000,180.351000,51.324000C179.735000,51.681000,179.276000,51.301000,179.276000,50.462000C179.276000,49.609000,179.735000,48.702000,180.351000,48.345000Z" clip-rule="evenodd" fill="rgb(255,255,255)" stroke="none" stroke-width="1" stroke-linejoin="round" stroke-miterlimit="2"/></g><g id="e05z7oubq3szj50" transform="matrix(1 0 0 1 -96.57160000000000 15.89150000000000)" clip-rule="evenodd"><path id="e05z7oubq3szj51" d="M222.349000,92.193000L168.888000,123.058000L168.888000,85.199000L222.349000,54.334000L222.349000,92.193000Z" clip-rule="evenodd" fill="rgb(249,202,223)" stroke="none" stroke-width="1" stroke-linejoin="round" stroke-miterlimit="2"/></g><g id="e05z7oubq3szj52" transform="matrix(1 0 0 1 -96.57160000000000 15.89150000000000)" clip-rule="evenodd"><path id="e05z7oubq3szj53" d="M168.888000,85.199000L165.568000,83.262000L165.568000,121.121000L168.888000,123.058000L168.888000,85.199000Z" clip-rule="evenodd" fill="rgb(245,161,198)" stroke="none" stroke-width="1" stroke-linejoin="round" stroke-miterlimit="2"/></g><g id="e05z7oubq3szj54" transform="matrix(1 0 0 1 -96.57160000000000 15.89150000000000)" clip-rule="evenodd"><path id="e05z7oubq3szj55" d="M222.349000,54.334000L219.030000,52.396000L165.568000,83.262000L168.888000,85.199000L222.349000,54.334000Z" clip-rule="evenodd" fill="rgb(248,187,214)" stroke="none" stroke-width="1" stroke-linejoin="round" stroke-miterlimit="2"/></g><g id="e05z7oubq3szj56" transform="matrix(1 0 0 1 -96.57160000000000 15.89150000000000)" clip-rule="evenodd"><path id="e05z7oubq3szj57" d="M216.428000,65.469000L173.266000,90.388000C172.714000,90.707000,172.263000,90.366000,172.263000,89.630000C172.263000,88.894000,172.714000,88.031000,173.266000,87.713000L216.428000,62.794000C216.980000,62.475000,217.431000,62.816000,217.431000,63.552000C217.431000,64.288000,216.980000,65.151000,216.428000,65.469000Z" clip-rule="evenodd" fill="rgb(97,83,163)" stroke="none" stroke-width="1" stroke-linejoin="round" stroke-miterlimit="2"/></g><g id="e05z7oubq3szj58" transform="matrix(1 0 0 1 -96.57160000000000 15.89150000000000)" clip-rule="evenodd"><path id="e05z7oubq3szj59" d="M202.547000,79.095000L173.266000,96.001000C172.714000,96.319000,172.263000,95.978000,172.263000,95.242000C172.263000,94.506000,172.714000,93.644000,173.266000,93.325000L202.547000,76.419000C203.099000,76.101000,203.551000,76.442000,203.551000,77.178000C203.551000,77.913000,203.099000,78.776000,202.547000,79.095000Z" clip-rule="evenodd" fill="rgb(97,83,163)" stroke="none" stroke-width="1" stroke-linejoin="round" stroke-miterlimit="2"/></g><g id="e05z7oubq3szj60" transform="matrix(1 0 0 1 -96.57160000000000 15.89150000000000)" clip-rule="evenodd"><path id="e05z7oubq3szj61" d="M178.511000,114.646000L174.968000,116.691000L174.968000,103.598000L178.511000,101.553000L178.511000,114.646000Z" clip-rule="evenodd" fill="rgb(239,86,153)" stroke="none" stroke-width="1" stroke-linejoin="round" stroke-miterlimit="2"/></g><g id="e05z7oubq3szj62" transform="matrix(1 0 0 1 -96.57160000000000 15.89150000000000)" clip-rule="evenodd"><path id="e05z7oubq3szj63" d="M185.676000,110.509000L182.133000,112.554000L182.133000,96.337000L185.676000,94.292000L185.676000,110.509000Z" clip-rule="evenodd" fill="rgb(97,83,163)" stroke="none" stroke-width="1" stroke-linejoin="round" stroke-miterlimit="2"/></g><g id="e05z7oubq3szj64" transform="matrix(1 0 0 1 -96.57160000000000 15.89150000000000)" clip-rule="evenodd"><path id="e05z7oubq3szj65" d="M192.841000,106.372000L189.298000,108.417000L189.298000,98.644000L192.841000,96.598000L192.841000,106.372000Z" clip-rule="evenodd" fill="rgb(239,86,153)" stroke="none" stroke-width="1" stroke-linejoin="round" stroke-miterlimit="2"/></g><g id="e05z7oubq3szj66" transform="matrix(1 0 0 1 -96.57160000000000 15.89150000000000)" clip-rule="evenodd"><path id="e05z7oubq3szj67" d="M200.066000,102.201000L196.524000,104.246000L196.524000,86.666000L200.066000,84.621000L200.066000,102.201000Z" clip-rule="evenodd" fill="rgb(239,86,153)" stroke="none" stroke-width="1" stroke-linejoin="round" stroke-miterlimit="2"/></g><g id="e05z7oubq3szj68" transform="matrix(1 0 0 1 -96.57160000000000 15.89150000000000)" clip-rule="evenodd"><path id="e05z7oubq3szj69" d="M207.231000,98.065000L203.689000,100.110000L203.689000,87.017000L207.231000,84.972000L207.231000,98.065000Z" clip-rule="evenodd" fill="rgb(239,86,153)" stroke="none" stroke-width="1" stroke-linejoin="round" stroke-miterlimit="2"/></g><g id="e05z7oubq3szj70" transform="matrix(1 0 0 1 -96.57160000000000 15.89150000000000)" clip-rule="evenodd"><path id="e05z7oubq3szj71" d="M214.396000,93.928000L210.854000,95.973000L210.854000,86.222000L214.396000,84.177000L214.396000,93.928000Z" clip-rule="evenodd" fill="rgb(239,86,153)" stroke="none" stroke-width="1" stroke-linejoin="round" stroke-miterlimit="2"/></g><path id="e05z7oubq3szj72" d="M174.519000,154.603000C176.155000,153.959000,176.654000,157.088000,178.143000,159.898000C179.633000,162.710000,181.489000,165.751000,179.621000,167.065000C177.753000,168.379000,172.661000,169.236000,171.536000,164.511000C170.412000,159.786000,173.116000,155.155000,174.519000,154.603000Z" clip-rule="evenodd" fill="rgb(76,196,214)" stroke="none" stroke-width="1" stroke-linejoin="round" stroke-miterlimit="2"/><path id="e05z7oubq3szj73" d="M202.330000,149.095000C199.259000,148.317000,197.385000,151.037000,193.755000,151.602000C189.357000,152.286000,187.742000,151.754000,186.148000,150.386000C185.707000,150.007000,188.050000,149.407000,188.915000,147.807000C190.099000,145.613000,189.521000,144.608000,185.955000,146.556000C182.388000,148.504000,179.466000,149.941000,178.825000,152.246000C178.533000,153.299000,177.950000,154.359000,176.372000,155.602000C175.400000,156.367000,173.770000,157.183000,172.435000,158.157000C171.918000,158.536000,171.449000,159.369000,171.014000,160.482000C171.446000,162.529000,171.791000,164.552000,173.153000,166.345000C173.538000,166.851000,173.972000,167.247000,174.429000,167.592000L174.432000,167.575000C174.664000,167.043000,180.284000,163.300000,184.582000,161.051000C186.943000,159.816000,192.968000,160.652000,197.181000,159.051000C201.393000,157.449000,205.400000,149.874000,202.330000,149.095000Z" clip-rule="evenodd" fill="rgb(250,194,194)" stroke="none" stroke-width="1" stroke-linejoin="round" stroke-miterlimit="2"/><path id="e05z7oubq3szj74" d="M175.013000,160.288000C173.862000,157.216000,174.519000,154.603000,174.519000,154.603000C174.519000,154.603000,153.031000,162.683000,150.376000,164.200000C148.791000,159.470000,146.188000,149.768000,143.341000,142.747000C136.144000,124.993000,131.348000,119.699000,124.118000,122.628000C115.167000,129.779000,129.244000,144.915000,129.994000,156.595000C133.205000,169.688000,139.428000,180.850000,142.640000,182.711000C142.766000,182.817000,142.891000,182.926000,143.054000,182.978000C146.584000,184.097000,149.492000,183.141000,155.974000,180.850000C164.857000,177.712000,179.621000,167.065000,179.621000,167.065000C179.621000,167.065000,176.423000,164.048000,175.013000,160.288000Z" clip-rule="evenodd" fill="rgb(113,206,229)" stroke="none" stroke-width="1" stroke-linejoin="round" stroke-miterlimit="2"/><path id="e05z7oubq3szj75" d="M86.165000,195.343000C88.687000,182.857000,81.376000,169.339000,82.410000,154.829000C81.243000,142.758000,101.522000,131.054000,101.522000,131.054000L121.150000,119.962000C121.150000,119.962000,130.255000,126.886000,135.897000,134.585000C146.622000,149.219000,142.154000,179.684000,143.800000,193.105000C144.008000,194.804000,145.808000,207.156000,145.808000,207.156000C145.808000,207.156000,127.641000,217.856000,121.811000,221.223000C110.160000,227.949000,75.882000,247.528000,75.882000,247.528000C75.882000,247.528000,84.586000,203.159000,86.165000,195.343000Z" clip-rule="evenodd" fill="rgb(170,223,238)" stroke="none" stroke-width="1" stroke-linejoin="round" stroke-miterlimit="2"/><path id="e05z7oubq3szj76" d="M129.378000,131.924000C131.032000,135.002000,135.189000,144.635000,135.189000,144.635000L130.255000,148.927000L136.143000,151.427000C136.143000,151.427000,137.692000,166.792000,136.143000,175.040000C134.592000,183.288000,129.378000,196.364000,129.378000,196.364000C129.378000,196.364000,124.604000,149.189000,123.399000,142.817000C122.193000,136.445000,117.582000,133.976000,117.582000,133.976000L118.921000,126.886000C118.921000,126.886000,126.671000,126.886000,129.378000,131.924000Z" clip-rule="evenodd" fill="rgb(113,206,229)" stroke="none" stroke-width="1" stroke-linejoin="round" stroke-miterlimit="2"/><path id="e05z7oubq3szj77" d="M118.346000,131.795000C118.346000,131.795000,125.810000,142.863000,127.876000,152.574000C129.942000,162.283000,130.255000,193.794000,130.255000,193.794000L126.956000,197.317000C126.956000,197.317000,119.402000,161.760000,114.856000,154.183000C110.310000,146.606000,104.909000,139.579000,104.909000,139.579000L118.346000,131.795000Z" clip-rule="evenodd" fill="rgb(97,83,163)" stroke="none" stroke-width="1" stroke-linejoin="round" stroke-miterlimit="2"/><path id="e05z7oubq3szj78" d="M135.652000,154.869000L137.005000,154.608000C137.005000,154.608000,133.826000,138.181000,132.553000,131.663000C131.395000,125.738000,127.232000,122.881000,124.855000,121.703000C123.645000,121.108000,121.579000,120.346000,120.845000,120.711000L121.456000,121.946000L121.462000,121.946000C122.046000,121.946000,129.627000,123.869000,131.200000,131.926000C132.472000,138.445000,135.652000,154.869000,135.652000,154.869000Z" clip-rule="evenodd" fill="rgb(51,33,31)" stroke="none" stroke-width="1" stroke-linejoin="round" stroke-miterlimit="2"/><path id="e05z7oubq3szj79" d="M118.944000,127.900000L121.150000,139.633000C121.150000,139.633000,121.150000,142.758000,119.488000,144.331000C117.316000,146.387000,112.222000,146.044000,108.204000,142.599000C101.801000,137.110000,100.887000,134.586000,100.887000,134.586000L104.039000,117.071000L118.944000,127.900000Z" clip-rule="evenodd" fill="rgb(248,178,175)" stroke="none" stroke-width="1" stroke-linejoin="round" stroke-miterlimit="2"/><path id="e05z7oubq3szj80" d="M102.293000,97.820000C106.535000,92.412000,118.731000,87.857000,126.677000,99.616000C135.009000,111.947000,127.135000,132.107000,119.837000,130.930000C115.749000,130.271000,106.545000,126.547000,102.513000,119.962000C97.974000,112.551000,98.996000,102.020000,102.293000,97.820000Z" clip-rule="evenodd" fill="rgb(250,194,194)" stroke="none" stroke-width="1" stroke-linejoin="round" stroke-miterlimit="2"/><path id="e05z7oubq3szj81" d="M130.255000,103.780000C128.651000,106.573000,124.742000,109.738000,117.896000,110.365000C112.293000,110.879000,107.791000,109.372000,107.791000,109.372000L108.646000,115.006000C108.646000,115.006000,107.520000,115.092000,106.579000,114.802000C105.727000,111.984000,103.193000,112.257000,102.390000,113.843000C101.449000,115.698000,102.513000,119.962000,102.513000,119.962000C102.513000,119.962000,95.823000,116.190000,95.515000,107.606000C95.324000,102.256000,99.551000,90.487000,109.305000,88.894000C119.059000,87.299000,126.782000,92.210000,129.378000,97.351000C130.677000,99.927000,130.979000,102.518000,130.255000,103.780000Z" clip-rule="evenodd" fill="rgb(51,33,31)" stroke="none" stroke-width="1" stroke-linejoin="round" stroke-miterlimit="2"/><path id="e05z7oubq3szj82" d="M101.912000,128.886000C101.912000,128.886000,112.623000,142.309000,116.854000,151.600000C124.776000,168.994000,126.956000,197.317000,126.956000,197.317000C126.956000,197.317000,119.018000,181.021000,116.028000,175.579000C113.844000,171.604000,105.970000,158.938000,105.970000,158.938000L112.882000,153.839000L103.765000,152.574000L95.509000,135.134000C95.509000,135.134000,97.393000,130.979000,101.912000,128.886000Z" clip-rule="evenodd" fill="rgb(113,206,229)" stroke="none" stroke-width="1" stroke-linejoin="round" stroke-miterlimit="2"/><path id="e05z7oubq3szj83" d="M129.858000,216.533000C129.636000,206.710000,129.332000,195.316000,129.332000,195.221000L127.954000,195.211000C127.954000,195.310000,128.278000,207.404000,128.500000,217.422000C128.906000,217.091000,129.858000,216.533000,129.858000,216.533000Z" clip-rule="evenodd" fill="rgb(113,206,229)" stroke="none" stroke-width="1" stroke-linejoin="round" stroke-miterlimit="2"/><path id="e05z7oubq3szj84" d="M133.229000,157.147000C133.229000,159.621000,134.616000,161.626000,136.328000,161.626000C138.040000,161.626000,139.428000,159.621000,139.428000,157.147000C139.428000,154.675000,138.040000,152.670000,136.328000,152.670000C134.616000,152.670000,133.229000,154.675000,133.229000,157.147000Z" clip-rule="evenodd" fill="rgb(182,157,157)" stroke="none" stroke-width="1" stroke-linejoin="round" stroke-miterlimit="2"/><path id="e05z7oubq3szj85" d="M138.948000,154.356000C138.728000,153.999000,137.704000,153.141000,136.558000,153.602000L136.549000,153.610000C135.364000,153.922000,134.463000,155.414000,134.463000,157.216000C134.463000,159.244000,135.602000,160.887000,137.005000,160.887000C137.202000,160.887000,137.391000,160.848000,137.574000,160.788000C138.068000,160.681000,138.799000,160.323000,139.428000,159.174000C140.487000,157.236000,139.628000,155.457000,138.948000,154.356000Z" clip-rule="evenodd" fill="rgb(92,67,66)" stroke="none" stroke-width="1" stroke-linejoin="round" stroke-miterlimit="2"/><path id="e05z7oubq3szj86" d="M135.717000,157.216000C135.717000,158.993000,136.713000,160.433000,137.943000,160.433000C139.173000,160.433000,140.170000,158.993000,140.170000,157.216000C140.170000,155.439000,139.173000,153.999000,137.943000,153.999000C136.713000,153.999000,135.717000,155.439000,135.717000,157.216000Z" clip-rule="evenodd" fill="rgb(255,255,255)" stroke="none" stroke-width="1" stroke-linejoin="round" stroke-miterlimit="2"/><path id="e05z7oubq3szj87" d="M97.766000,131.665000C99.130000,128.822000,102.064000,127.466000,102.172000,127.442000L102.087000,129.107000C102.004000,129.125000,100.053000,130.048000,98.991000,132.294000C97.980000,134.435000,97.593000,138.650000,101.504000,146.564000C104.899000,153.435000,107.021000,159.042000,108.368000,163.491000C108.004000,163.521000,107.637000,163.592000,107.283000,163.747000C107.677000,163.589000,107.667000,163.555000,107.254000,163.646000C107.158000,163.659000,107.081000,163.723000,106.990000,163.752000C105.664000,159.383000,103.581000,153.879000,100.269000,147.174000C96.921000,140.397000,96.078000,135.179000,97.766000,131.665000Z" clip-rule="evenodd" fill="rgb(51,33,31)" stroke="none" stroke-width="1" stroke-linejoin="round" stroke-miterlimit="2"/><path id="e05z7oubq3szj88" d="M101.228000,178.467000L113.074000,173.195000L111.757000,170.256000L99.910000,175.527000L101.228000,178.467000Z" clip-rule="evenodd" fill="rgb(113,206,229)" stroke="none" stroke-width="1" stroke-linejoin="round" stroke-miterlimit="2"/><path id="e05z7oubq3szj89" d="M110.066000,192.180000L111.487000,191.087000C111.440000,191.026000,106.726000,184.825000,104.186000,176.002000C103.325000,173.015000,103.105000,170.384000,103.546000,168.388000C104.032000,166.191000,105.269000,164.836000,107.325000,164.245000C110.244000,163.399000,113.984000,163.661000,117.100000,173.162000C120.259000,182.799000,118.501000,188.982000,118.483000,189.043000L120.203000,189.551000C120.283000,189.279000,122.136000,182.765000,118.804000,172.603000C116.075000,164.287000,112.156000,160.992000,106.830000,162.520000C104.159000,163.288000,102.419000,165.183000,101.795000,168.002000C101.289000,170.288000,101.521000,173.225000,102.462000,176.498000C105.101000,185.664000,109.864000,191.919000,110.066000,192.180000Z" clip-rule="evenodd" fill="rgb(255,255,255)" stroke="none" stroke-width="1" stroke-linejoin="round" stroke-miterlimit="2"/><path id="e05z7oubq3szj90" d="M117.727000,189.377000C117.771000,190.269000,118.530000,190.958000,119.422000,190.914000C120.315000,190.870000,121.003000,190.110000,120.959000,189.218000C120.915000,188.325000,120.155000,187.637000,119.263000,187.681000C118.370000,187.725000,117.682000,188.484000,117.727000,189.377000Z" clip-rule="evenodd" fill="rgb(141,141,141)" stroke="none" stroke-width="1" stroke-linejoin="round" stroke-miterlimit="2"/><path id="e05z7oubq3szj91" d="M109.160000,191.714000C109.204000,192.606000,109.963000,193.294000,110.855000,193.250000C111.748000,193.206000,112.436000,192.446000,112.392000,191.553000C112.348000,190.662000,111.588000,189.973000,110.696000,190.017000C109.803000,190.061000,109.115000,190.821000,109.160000,191.714000Z" clip-rule="evenodd" fill="rgb(141,141,141)" stroke="none" stroke-width="1" stroke-linejoin="round" stroke-miterlimit="2"/><path id="e05z7oubq3szj92" d="M120.203000,189.551000C120.203000,189.551000,129.546000,185.819000,134.797000,182.587000C140.047000,179.354000,144.909000,177.890000,143.378000,180.721000C141.847000,183.552000,138.396000,183.755000,137.273000,185.903000C136.149000,188.051000,141.387000,186.154000,145.815000,185.903000C150.244000,185.652000,159.123000,186.757000,153.184000,193.252000C147.245000,199.747000,140.504000,198.247000,133.229000,198.547000C125.953000,198.847000,122.540000,199.659000,122.540000,199.659000L120.203000,189.551000Z" clip-rule="evenodd" fill="rgb(250,194,194)" stroke="none" stroke-width="1" stroke-linejoin="round" stroke-miterlimit="2"/><path id="e05z7oubq3szj93" d="M73.807000,176.955000C74.496000,162.144000,72.123000,150.089000,86.963000,142.758000C94.472000,143.598000,99.457000,174.362000,97.123000,186.183000C99.230000,186.289000,126.193000,184.705000,126.193000,184.705000C126.193000,184.705000,130.500000,200.269000,125.794000,203.048000C117.582000,204.020000,102.357000,206.232000,95.509000,206.232000C88.662000,206.232000,77.484000,207.022000,74.355000,198.971000C72.937000,195.323000,73.612000,181.130000,73.807000,176.955000Z" clip-rule="evenodd" fill="rgb(113,206,229)" stroke="none" stroke-width="1" stroke-linejoin="round" stroke-miterlimit="2"/><g id="e05z7oubq3szj94_to" transform="translate(32.939499,124.803108)"><g id="e05z7oubq3szj94" transform="translate(-32.939499,-124.803108)" clip-rule="evenodd"><g id="e05z7oubq3szj95" transform="matrix(1 0 0 1 0 -17.95440000000000)" clip-rule="evenodd"><path id="e05z7oubq3szj96" d="M65.879000,199.140000L2.976000,235.391000L2.976000,88.102000L65.879000,51.851000L65.879000,199.140000Z" clip-rule="evenodd" fill="rgb(249,202,223)" stroke="none" stroke-width="1" stroke-linejoin="round" stroke-miterlimit="2"/></g><g id="e05z7oubq3szj97" transform="matrix(1 0 0 1 0 -17.95440000000000)" clip-rule="evenodd"><path id="e05z7oubq3szj98" d="M65.879000,51.851000L62.903000,50.124000L0,86.375000L2.976000,88.102000L65.879000,51.851000Z" clip-rule="evenodd" fill="rgb(248,187,214)" stroke="none" stroke-width="1" stroke-linejoin="round" stroke-miterlimit="2"/></g><g id="e05z7oubq3szj99" transform="matrix(1 0 0 1 0 -17.95440000000000)" clip-rule="evenodd"><path id="e05z7oubq3szj100" d="M2.976000,235.391000L0,233.665000L0,86.375000L2.976000,88.102000L2.976000,235.391000Z" clip-rule="evenodd" fill="rgb(245,161,198)" stroke="none" stroke-width="1" stroke-linejoin="round" stroke-miterlimit="2"/></g><g id="e05z7oubq3szj101" transform="matrix(1 0 0 1 0 -17.95440000000000)" clip-rule="evenodd"><path id="e05z7oubq3szj102" d="M58.506000,67.474000L35.602000,80.697000C34.956000,81.070000,34.427000,80.671000,34.427000,79.809000C34.427000,78.948000,34.956000,77.938000,35.602000,77.565000L58.506000,64.341000C59.153000,63.968000,59.681000,64.368000,59.681000,65.229000C59.681000,66.091000,59.153000,67.101000,58.506000,67.474000Z" clip-rule="evenodd" fill="rgb(245,161,198)" stroke="none" stroke-width="1" stroke-linejoin="round" stroke-miterlimit="2"/></g><g id="e05z7oubq3szj103" transform="matrix(1 0 0 1 0 -17.95440000000000)" clip-rule="evenodd"><path id="e05z7oubq3szj104" d="M58.506000,74.556000L35.602000,87.780000C34.956000,88.153000,34.427000,87.753000,34.427000,86.892000C34.427000,86.030000,34.956000,85.020000,35.602000,84.647000L58.506000,71.424000C59.153000,71.050000,59.681000,71.450000,59.681000,72.311000C59.681000,73.173000,59.153000,74.183000,58.506000,74.556000Z" clip-rule="evenodd" fill="rgb(245,161,198)" stroke="none" stroke-width="1" stroke-linejoin="round" stroke-miterlimit="2"/></g><g id="e05z7oubq3szj105" transform="matrix(1 0 0 1 0 -17.95440000000000)" clip-rule="evenodd"><path id="e05z7oubq3szj106" d="M58.506000,81.612000L35.602000,94.837000C34.956000,95.210000,34.427000,94.810000,34.427000,93.948000C34.427000,93.087000,34.956000,92.077000,35.602000,91.704000L58.506000,78.480000C59.153000,78.107000,59.681000,78.507000,59.681000,79.368000C59.681000,80.230000,59.153000,81.239000,58.506000,81.612000Z" clip-rule="evenodd" fill="rgb(245,161,198)" stroke="none" stroke-width="1" stroke-linejoin="round" stroke-miterlimit="2"/></g><g id="e05z7oubq3szj107" transform="matrix(1 0 0 1 0 -17.95440000000000)" clip-rule="evenodd"><path id="e05z7oubq3szj108" d="M58.506000,117.392000L35.602000,130.616000C34.956000,130.989000,34.427000,130.590000,34.427000,129.728000C34.427000,128.866000,34.956000,127.857000,35.602000,127.483000L58.506000,114.259000C59.153000,113.886000,59.681000,114.286000,59.681000,115.148000C59.681000,116.009000,59.153000,117.019000,58.506000,117.392000Z" clip-rule="evenodd" fill="rgb(245,161,198)" stroke="none" stroke-width="1" stroke-linejoin="round" stroke-miterlimit="2"/></g><g id="e05z7oubq3szj109" transform="matrix(1 0 0 1 0 -17.95440000000000)" clip-rule="evenodd"><path id="e05z7oubq3szj110" d="M58.506000,124.474000L35.602000,137.698000C34.956000,138.072000,34.427000,137.672000,34.427000,136.810000C34.427000,135.948000,34.956000,134.939000,35.602000,134.566000L58.506000,121.342000C59.153000,120.969000,59.681000,121.368000,59.681000,122.230000C59.681000,123.092000,59.153000,124.101000,58.506000,124.474000Z" clip-rule="evenodd" fill="rgb(245,161,198)" stroke="none" stroke-width="1" stroke-linejoin="round" stroke-miterlimit="2"/></g><g id="e05z7oubq3szj111" transform="matrix(1 0 0 1 -27.38230000000000 -2.93321000000000)" clip-rule="evenodd"><path id="e05z7oubq3szj112" d="M58.506000,131.531000L35.602000,144.755000C34.956000,145.128000,34.427000,144.728000,34.427000,143.867000C34.427000,143.005000,34.956000,141.995000,35.602000,141.622000L58.506000,128.399000C59.153000,128.026000,59.681000,128.425000,59.681000,129.287000C59.681000,130.148000,59.153000,131.158000,58.506000,131.531000Z" clip-rule="evenodd" fill="rgb(245,161,198)" stroke="none" stroke-width="1" stroke-linejoin="round" stroke-miterlimit="2"/></g><g id="e05z7oubq3szj113" transform="matrix(1 0 0 1 -27.22580000000000 -3.08968000000000)" clip-rule="evenodd"><path id="e05z7oubq3szj114" d="M59.681000,108.183000L34.427000,122.763000L34.427000,99.891000L59.681000,85.311000L59.681000,108.183000Z" clip-rule="evenodd" fill="rgb(255,255,255)" stroke="none" stroke-width="1" stroke-linejoin="round" stroke-miterlimit="2"/></g><g id="e05z7oubq3szj115" transform="matrix(1 0 0 1 -27.53880000000000 -2.46380000000000)" clip-rule="evenodd"><path id="e05z7oubq3szj116" d="M59.681000,172.758000L34.427000,187.339000L34.427000,171.348000L59.681000,156.768000L59.681000,172.758000Z" clip-rule="evenodd" fill="rgb(255,255,255)" stroke="none" stroke-width="1" stroke-linejoin="round" stroke-miterlimit="2"/></g><g id="e05z7oubq3szj117" transform="matrix(1 0 0 1 -27.38230000000000 -2.93321000000000)" clip-rule="evenodd"><path id="e05z7oubq3szj118" d="M58.506000,138.712000L35.602000,151.935000C34.956000,152.308000,34.427000,151.909000,34.427000,151.048000C34.427000,150.186000,34.956000,149.176000,35.602000,148.803000L58.506000,135.579000C59.153000,135.206000,59.681000,135.606000,59.681000,136.467000C59.681000,137.328000,59.153000,138.339000,58.506000,138.712000Z" clip-rule="evenodd" fill="rgb(245,161,198)" stroke="none" stroke-width="1" stroke-linejoin="round" stroke-miterlimit="2"/></g><g id="e05z7oubq3szj119" transform="matrix(1 0 0 1 -27.38230000000000 -2.93321000000000)" clip-rule="evenodd"><path id="e05z7oubq3szj120" d="M58.506000,145.794000L35.602000,159.017000C34.956000,159.390000,34.427000,158.991000,34.427000,158.130000C34.427000,157.268000,34.956000,156.258000,35.602000,155.885000L58.506000,142.661000C59.153000,142.288000,59.681000,142.688000,59.681000,143.549000C59.681000,144.411000,59.153000,145.421000,58.506000,145.794000Z" clip-rule="evenodd" fill="rgb(245,161,198)" stroke="none" stroke-width="1" stroke-linejoin="round" stroke-miterlimit="2"/></g><g id="e05z7oubq3szj121" transform="matrix(1 0 0 1 0 -17.95440000000000)" clip-rule="evenodd"><path id="e05z7oubq3szj122" d="M58.506000,152.850000L35.602000,166.074000C34.956000,166.447000,34.427000,166.048000,34.427000,165.186000C34.427000,164.325000,34.956000,163.315000,35.602000,162.942000L58.506000,149.718000C59.153000,149.345000,59.681000,149.745000,59.681000,150.606000C59.681000,151.468000,59.153000,152.477000,58.506000,152.850000Z" clip-rule="evenodd" fill="rgb(245,161,198)" stroke="none" stroke-width="1" stroke-linejoin="round" stroke-miterlimit="2"/></g><g id="e05z7oubq3szj123" transform="matrix(1 0 0 1 0 -17.95440000000000)" clip-rule="evenodd"><path id="e05z7oubq3szj124" d="M58.506000,181.316000L35.602000,194.540000C34.956000,194.913000,34.427000,194.513000,34.427000,193.652000C34.427000,192.791000,34.956000,191.780000,35.602000,191.407000L58.506000,178.183000C59.153000,177.810000,59.681000,178.210000,59.681000,179.072000C59.681000,179.933000,59.153000,180.943000,58.506000,181.316000Z" clip-rule="evenodd" fill="rgb(245,161,198)" stroke="none" stroke-width="1" stroke-linejoin="round" stroke-miterlimit="2"/></g><g id="e05z7oubq3szj125" transform="matrix(1 0 0 1 0 -17.95440000000000)" clip-rule="evenodd"><path id="e05z7oubq3szj126" d="M58.506000,188.398000L35.602000,201.623000C34.956000,201.995000,34.427000,201.595000,34.427000,200.734000C34.427000,199.873000,34.956000,198.863000,35.602000,198.490000L58.506000,185.265000C59.153000,184.892000,59.681000,185.293000,59.681000,186.154000C59.681000,187.015000,59.153000,188.025000,58.506000,188.398000Z" clip-rule="evenodd" fill="rgb(245,161,198)" stroke="none" stroke-width="1" stroke-linejoin="round" stroke-miterlimit="2"/></g><g id="e05z7oubq3szj127" transform="matrix(1 0 0 1 0 -17.95440000000000)" clip-rule="evenodd"><path id="e05z7oubq3szj128" d="M58.506000,195.455000L35.602000,208.679000C34.956000,209.051000,34.427000,208.652000,34.427000,207.791000C34.427000,206.929000,34.956000,205.920000,35.602000,205.547000L58.506000,192.322000C59.153000,191.949000,59.681000,192.349000,59.681000,193.211000C59.681000,194.072000,59.153000,195.082000,58.506000,195.455000Z" clip-rule="evenodd" fill="rgb(245,161,198)" stroke="none" stroke-width="1" stroke-linejoin="round" stroke-miterlimit="2"/></g></g></g><g id="e05z7oubq3szj129_to" transform="translate(190.336182,124.228672)"><g id="e05z7oubq3szj129" transform="translate(-190.336182,-124.228672)" clip-rule="evenodd"><g id="e05z7oubq3szj130" transform="matrix(1 0 0 1 122.24200000000000 8.31249000000000)" clip-rule="evenodd"><path id="e05z7oubq3szj131" d="M87.434000,91.427000L88.472000,90.247000L84.110000,87.954000L83.964000,87.877000L83.669000,87.722000L83.656000,87.735000C75.531000,83.928000,66.669000,100.826000,65.689000,102.759000L63.887000,101.813000C63.793000,101.762000,63.696000,101.711000,63.594000,101.660000L63.495000,101.608000L63.493000,101.610000C59.847000,99.803000,52.088000,98.285000,45.397000,112.557000C40.327000,123.371000,42.534000,129.815000,46.154000,133.546000C46.389000,133.788000,46.629000,134.021000,46.874000,134.241000C47.976000,135.229000,49.164000,135.987000,50.297000,136.572000L50.290000,136.575000L56.339000,139.687000L56.779000,138.741000C60.692000,139.945000,65.593000,142.043000,65.593000,142.043000C65.593000,142.043000,72.770000,130.682000,76.686000,125.319000C78.276000,123.141000,81.574000,118.247000,84.321000,112.608000C84.566000,112.105000,84.805000,111.596000,85.039000,111.083000C88.172000,104.230000,90.234000,96.575000,87.434000,91.427000Z" clip-rule="evenodd" fill="rgb(238,48,133)" stroke="none" stroke-width="1" stroke-linejoin="round" stroke-miterlimit="2"/></g><g id="e05z7oubq3szj132" transform="matrix(1 0 0 1 122.24200000000000 8.31249000000000)" clip-rule="evenodd"><path id="e05z7oubq3szj133" d="M79.123000,99.734000L74.867000,128.787000L72.202000,124.001000L69.049000,125.815000L66.130000,107.235000L61.874000,136.288000L59.209000,131.509000L51.157000,136.158000C47.537000,132.426000,45.329000,125.983000,50.399000,115.168000C59.503000,95.750000,70.595000,105.562000,70.595000,105.562000C70.595000,105.562000,81.688000,82.941000,90.792000,91.848000C95.858000,96.804000,93.657000,105.787000,90.041000,113.695000L82.042000,118.313000L79.123000,99.734000Z" clip-rule="evenodd" fill="rgb(239,86,153)" stroke="none" stroke-width="1" stroke-linejoin="round" stroke-miterlimit="2"/></g><g id="e05z7oubq3szj134" transform="matrix(1 0 0 1 122.24200000000000 8.31249000000000)" clip-rule="evenodd"><path id="e05z7oubq3szj135" d="M62.228000,139.188000L66.088000,112.846000L68.360000,127.322000L71.699000,125.394000L75.221000,131.686000L79.081000,105.344000L81.353000,119.821000L89.324000,115.219000C86.576000,120.859000,83.278000,125.753000,81.688000,127.930000C77.772000,133.294000,70.595000,144.654000,70.595000,144.654000C70.595000,144.654000,63.419000,141.580000,59.503000,140.739000C57.914000,140.398000,54.622000,139.313000,51.876000,136.852000L58.722000,132.900000L62.228000,139.188000Z" clip-rule="evenodd" fill="rgb(239,86,153)" stroke="none" stroke-width="1" stroke-linejoin="round" stroke-miterlimit="2"/></g><g id="e05z7oubq3szj136" transform="matrix(1 0 0 1 122.24200000000000 8.31249000000000)" clip-rule="evenodd"><path id="e05z7oubq3szj137" d="M59.209000,131.509000L61.874000,136.288000L66.130000,107.235000L69.049000,125.815000L72.202000,124.001000L74.867000,128.787000L79.123000,99.734000L82.042000,118.313000L90.041000,113.695000C89.807000,114.207000,89.568000,114.717000,89.324000,115.219000L81.353000,119.821000L79.081000,105.344000L75.221000,131.686000L71.699000,125.394000L68.360000,127.322000L66.088000,112.846000L62.228000,139.188000L58.722000,132.900000L51.876000,136.852000C51.631000,136.633000,51.391000,136.400000,51.157000,136.158000L59.209000,131.509000Z" clip-rule="evenodd" fill="rgb(255,255,255)" stroke="none" stroke-width="1" stroke-linejoin="round" stroke-miterlimit="2"/></g></g></g><g id="e05z7oubq3szj138" transform="matrix(1 0 0 1 -27.50460000000000 -6.87614000000000)" clip-rule="evenodd"><path id="e05z7oubq3szj139" d="M217.419000,238.655000C217.419000,238.655000,223.662000,237.573000,224.044000,244.682000C224.424000,251.793000,215.615000,244.917000,215.615000,244.917000L217.419000,238.655000Z" clip-rule="evenodd" fill="rgb(154,153,204)" stroke="none" stroke-width="1" stroke-linejoin="round" stroke-miterlimit="2"/></g><g id="e05z7oubq3szj140" transform="matrix(1 0 0 1 -27.50460000000000 -6.87614000000000)" clip-rule="evenodd"><path id="e05z7oubq3szj141" d="M200.238000,246.205000C200.238000,246.205000,199.590000,244.134000,198.393000,244.506000C196.771000,245.009000,192.117000,247.473000,191.122000,248.187000C191.370000,248.682000,198.711000,262.598000,198.711000,262.598000L201.147000,261.059000L200.238000,246.205000Z" clip-rule="evenodd" fill="rgb(199,176,213)" stroke="none" stroke-width="1" stroke-linejoin="round" stroke-miterlimit="2"/></g><g id="e05z7oubq3szj142" transform="matrix(1 0 0 1 -27.50460000000000 -6.87614000000000)" clip-rule="evenodd"><path id="e05z7oubq3szj143" d="M192.832000,249.918000C192.832000,249.918000,192.435000,248.692000,191.724000,248.228000C191.012000,247.763000,190.664000,248.714000,191.019000,249.394000C191.352000,250.035000,192.342000,251.004000,193.101000,252.475000C194.427000,255.048000,198.711000,262.598000,198.711000,262.598000L199.093000,262.357000L192.832000,249.918000Z" clip-rule="evenodd" fill="rgb(172,147,194)" stroke="none" stroke-width="1" stroke-linejoin="round" stroke-miterlimit="2"/></g><g id="e05z7oubq3szj144" transform="matrix(1 0 0 1 -27.50460000000000 -6.87614000000000)" clip-rule="evenodd"><path id="e05z7oubq3szj145" d="M206.432000,259.140000L199.026000,262.852000L192.342000,250.413000L199.749000,246.700000L206.432000,259.140000Z" clip-rule="evenodd" fill="rgb(222,200,225)" stroke="none" stroke-width="1" stroke-linejoin="round" stroke-miterlimit="2"/></g><g id="e05z7oubq3szj146" transform="matrix(1 0 0 1 -27.50460000000000 -6.87614000000000)" clip-rule="evenodd"><path id="e05z7oubq3szj147" d="M206.921000,258.645000L199.515000,262.357000L192.832000,249.918000L200.238000,246.205000L206.921000,258.645000Z" clip-rule="evenodd" fill="rgb(241,223,237)" stroke="none" stroke-width="1" stroke-linejoin="round" stroke-miterlimit="2"/></g><g id="e05z7oubq3szj148" transform="matrix(1 0 0 1 -27.50460000000000 -6.87614000000000)" clip-rule="evenodd"><path id="e05z7oubq3szj149" d="M192.832000,249.918000L192.342000,250.413000L199.026000,262.852000L199.515000,262.357000L192.832000,249.918000Z" clip-rule="evenodd" fill="rgb(222,200,225)" stroke="none" stroke-width="1" stroke-linejoin="round" stroke-miterlimit="2"/></g><g id="e05z7oubq3szj150" transform="matrix(1 0 0 1 -27.50460000000000 -6.87614000000000)" clip-rule="evenodd"><path id="e05z7oubq3szj151" d="M206.432000,259.140000L206.921000,258.645000L199.515000,262.357000L199.026000,262.852000L206.432000,259.140000Z" clip-rule="evenodd" fill="rgb(199,176,213)" stroke="none" stroke-width="1" stroke-linejoin="round" stroke-miterlimit="2"/></g><g id="e05z7oubq3szj152" transform="matrix(1 0 0 1 -27.50460000000000 -6.87614000000000)" clip-rule="evenodd"><path id="e05z7oubq3szj153" d="M191.724000,273.298000C191.724000,273.298000,201.832000,267.840000,203.952000,267.800000C208.397000,261.313000,212.315000,258.620000,212.823000,258.914000C215.659000,260.555000,213.272000,276.241000,213.272000,276.241000C213.272000,276.241000,193.693000,276.540000,191.724000,273.298000Z" clip-rule="evenodd" fill="rgb(51,33,31)" stroke="none" stroke-width="1" stroke-linejoin="round" stroke-miterlimit="2"/></g><g id="e05z7oubq3szj154" transform="matrix(1 0 0 1 -27.50460000000000 -6.87614000000000)" clip-rule="evenodd"><path id="e05z7oubq3szj155" d="M201.500000,246.464000L200.857000,247.992000L200.599000,249.166000L201.416000,248.288000L202.328000,246.628000L201.500000,246.464000Z" clip-rule="evenodd" fill="rgb(73,46,46)" stroke="none" stroke-width="1" stroke-linejoin="round" stroke-miterlimit="2"/></g><g id="e05z7oubq3szj156" transform="matrix(1 0 0 1 -27.50460000000000 -6.87614000000000)" clip-rule="evenodd"><path id="e05z7oubq3szj157" d="M210.556000,254.135000C211.414000,252.906000,212.314000,251.707000,213.160000,250.468000C211.400000,247.983000,207.373000,245.515000,206.238000,244.164000C204.944000,242.623000,203.661000,243.094000,202.490000,244.399000C201.318000,245.704000,200.713000,246.170000,200.713000,246.170000C200.871000,246.587000,200.953000,246.479000,201.500000,246.464000C201.337000,246.748000,201.448000,246.865000,201.665000,246.836000C202.366000,246.742000,202.729000,246.745000,203.257000,247.017000C203.593000,247.191000,204.836000,247.198000,205.824000,247.497000C206.495000,247.699000,207.585000,249.233000,209.800000,253.128000C209.963000,253.414000,210.254000,253.775000,210.556000,254.135000Z" clip-rule="evenodd" fill="rgb(250,194,194)" stroke="none" stroke-width="1" stroke-linejoin="round" stroke-miterlimit="2"/></g><g id="e05z7oubq3szj158" transform="matrix(1 0 0 1 -27.50460000000000 -6.87614000000000)" clip-rule="evenodd"><path id="e05z7oubq3szj159" d="M202.549000,245.863000C202.549000,245.863000,203.489000,245.788000,203.950000,245.431000C204.411000,245.075000,204.198000,244.633000,203.710000,244.562000C203.221000,244.492000,202.728000,244.747000,202.728000,244.747000L202.549000,245.863000Z" clip-rule="evenodd" fill="rgb(248,178,175)" stroke="none" stroke-width="1" stroke-linejoin="round" stroke-miterlimit="2"/></g><g id="e05z7oubq3szj160" transform="matrix(1 0 0 1 -27.50460000000000 -6.87614000000000)" clip-rule="evenodd"><path id="e05z7oubq3szj161" d="M202.549000,245.863000L203.884000,243.140000L203.198000,242.882000C203.198000,242.882000,202.035000,245.420000,201.572000,246.332000C201.788000,246.031000,202.184000,245.835000,202.549000,245.863000Z" clip-rule="evenodd" fill="rgb(73,46,46)" stroke="none" stroke-width="1" stroke-linejoin="round" stroke-miterlimit="2"/></g><g id="e05z7oubq3szj162" transform="matrix(1 0 0 1 -27.50460000000000 -6.87614000000000)" clip-rule="evenodd"><path id="e05z7oubq3szj163" d="M203.884000,243.140000C203.840000,243.255000,203.652000,243.290000,203.462000,243.218000C203.273000,243.147000,203.155000,242.996000,203.198000,242.882000C203.241000,242.767000,203.429000,242.732000,203.619000,242.804000C203.808000,242.876000,203.927000,243.026000,203.884000,243.140000Z" clip-rule="evenodd" fill="rgb(96,65,64)" stroke="none" stroke-width="1" stroke-linejoin="round" stroke-miterlimit="2"/></g><g id="e05z7oubq3szj164" transform="matrix(1 0 0 1 -27.50460000000000 -6.87614000000000)" clip-rule="evenodd"><path id="e05z7oubq3szj165" d="M202.967000,273.070000C202.967000,273.070000,202.967000,270.443000,203.952000,268.690000C204.635000,267.473000,204.796000,265.878000,203.686000,264.518000C201.585000,261.944000,201.196000,261.106000,200.387000,263.062000C199.578000,265.019000,200.642000,265.528000,199.291000,267.716000C197.939000,269.903000,196.121000,273.509000,196.121000,273.509000C196.121000,273.509000,203.041000,275.338000,202.967000,273.070000Z" clip-rule="evenodd" fill="rgb(255,255,255)" stroke="none" stroke-width="1" stroke-linejoin="round" stroke-miterlimit="2"/></g><g id="e05z7oubq3szj166" transform="matrix(1 0 0 1 -27.50460000000000 -6.87614000000000)" clip-rule="evenodd"><path id="e05z7oubq3szj167" d="M226.101000,265.401000C226.101000,265.401000,230.139000,272.580000,228.733000,277.389000C228.286000,278.919000,226.659000,280.190000,224.183000,281.969000C221.340000,284.011000,220.814000,286.008000,214.821000,286.613000C209.143000,287.187000,194.071000,284.616000,190.664000,279.988000C187.736000,276.012000,190.468000,271.573000,194.298000,271.570000C199.660000,271.566000,208.635000,271.439000,208.530000,271.379000L226.101000,265.401000Z" clip-rule="evenodd" fill="rgb(71,46,46)" stroke="none" stroke-width="1" stroke-linejoin="round" stroke-miterlimit="2"/></g><g id="e05z7oubq3szj168" transform="matrix(1 0 0 1 -27.50460000000000 -6.87614000000000)" clip-rule="evenodd"><path id="e05z7oubq3szj169" d="M217.497000,239.472000C217.497000,239.472000,220.377000,239.452000,221.457000,240.402000C223.733000,242.405000,224.637000,245.977000,225.091000,249.740000C225.545000,253.503000,224.688000,256.264000,224.688000,259.748000C224.688000,263.231000,227.308000,265.486000,227.313000,268.095000C227.321000,272.992000,221.969000,275.312000,218.226000,276.012000C212.823000,277.022000,208.530000,274.498000,207.104000,272.082000C206.838000,270.967000,206.867000,269.375000,207.853000,267.944000C208.539000,266.951000,205.818000,259.589000,205.808000,255.796000C205.798000,252.217000,205.282000,248.147000,207.696000,245.901000C208.829000,244.846000,210.388000,244.119000,211.619000,243.643000C214.743000,242.434000,217.497000,239.472000,217.497000,239.472000Z" clip-rule="evenodd" fill="rgb(187,183,219)" stroke="none" stroke-width="1" stroke-linejoin="round" stroke-miterlimit="2"/></g><g id="e05z7oubq3szj170" transform="matrix(1 0 0 1 -27.50460000000000 -6.87614000000000)" clip-rule="evenodd"><path id="e05z7oubq3szj171" d="M218.228000,235.130000C218.228000,235.130000,217.875000,239.984000,218.784000,241.050000C219.692000,242.115000,218.784000,243.115000,216.534000,243.473000C213.952000,243.884000,212.067000,244.265000,210.857000,243.499000C211.212000,242.732000,211.619000,237.540000,211.619000,237.540000L218.228000,235.130000Z" clip-rule="evenodd" fill="rgb(248,178,175)" stroke="none" stroke-width="1" stroke-linejoin="round" stroke-miterlimit="2"/></g><g id="e05z7oubq3szj172" transform="matrix(1 0 0 1 -27.50460000000000 -6.87614000000000)" clip-rule="evenodd"><path id="e05z7oubq3szj173" d="M220.408000,228.815000C219.260000,226.381000,215.002000,223.575000,210.940000,227.370000C206.680000,231.350000,208.358000,239.362000,211.495000,239.915000C213.091000,240.197000,216.272000,239.413000,218.387000,237.252000C220.769000,234.818000,221.298000,230.708000,220.408000,228.815000Z" clip-rule="evenodd" fill="rgb(250,194,194)" stroke="none" stroke-width="1" stroke-linejoin="round" stroke-miterlimit="2"/></g><g id="e05z7oubq3szj174" transform="matrix(1 0 0 1 -27.50460000000000 -6.87614000000000)" clip-rule="evenodd"><path id="e05z7oubq3szj175" d="M208.530000,226.428000C208.530000,226.428000,209.283000,229.625000,212.274000,230.886000C212.583000,231.926000,212.420000,232.483000,211.844000,233.645000C211.949000,233.977000,212.480000,234.168000,212.480000,234.168000C213.181000,233.172000,214.491000,232.614000,214.975000,233.730000C215.413000,234.736000,214.802000,235.457000,213.927000,236.509000C213.278000,239.480000,217.458000,241.276000,217.458000,241.276000C217.458000,241.276000,219.384000,238.324000,221.163000,236.371000C222.940000,234.417000,223.553000,230.139000,220.929000,228.178000C220.255000,225.049000,217.341000,223.228000,214.288000,224.390000C212.898000,224.920000,212.095000,225.472000,211.157000,225.866000C209.644000,226.502000,208.530000,226.428000,208.530000,226.428000Z" clip-rule="evenodd" fill="rgb(51,33,31)" stroke="none" stroke-width="1" stroke-linejoin="round" stroke-miterlimit="2"/></g><g id="e05z7oubq3szj176" transform="matrix(1 0 0 1 -27.50460000000000 -6.87614000000000)" clip-rule="evenodd"><path id="e05z7oubq3szj177" d="M200.600000,266.173000C201.743000,266.326000,201.764000,266.182000,202.700000,265.295000C206.735000,261.464000,210.004000,255.356000,210.857000,253.530000C211.866000,251.370000,205.282000,251.141000,205.282000,251.141000C205.282000,251.141000,200.515000,259.504000,198.594000,262.799000C198.213000,263.452000,199.618000,266.041000,200.600000,266.173000Z" clip-rule="evenodd" fill="rgb(250,194,194)" stroke="none" stroke-width="1" stroke-linejoin="round" stroke-miterlimit="2"/></g><g id="e05z7oubq3szj178" transform="matrix(1 0 0 1 -27.50460000000000 -6.87614000000000)" clip-rule="evenodd"><path id="e05z7oubq3szj179" d="M208.382000,260.677000C205.325000,259.835000,203.070000,258.942000,201.147000,256.325000C203.827000,250.255000,206.835000,244.393000,209.443000,245.538000C212.480000,246.870000,213.791000,251.189000,211.619000,255.618000C210.902000,257.078000,209.846000,259.305000,208.382000,260.677000Z" clip-rule="evenodd" fill="rgb(154,153,204)" stroke="none" stroke-width="1" stroke-linejoin="round" stroke-miterlimit="2"/></g><g id="e05z7oubq3szj180" transform="matrix(1 0 0 1 -27.50460000000000 -6.87614000000000)" clip-rule="evenodd"><path id="e05z7oubq3szj181" d="M209.846000,268.541000C209.846000,268.541000,212.586000,269.381000,214.598000,269.314000C216.611000,269.248000,218.784000,268.929000,218.784000,268.929000C218.784000,268.929000,217.331000,270.662000,214.598000,270.560000C211.866000,270.460000,209.846000,268.541000,209.846000,268.541000Z" clip-rule="evenodd" fill="rgb(154,153,204)" stroke="none" stroke-width="1" stroke-linejoin="round" stroke-miterlimit="2"/></g><g id="e05z7oubq3szj182" transform="matrix(1 0 0 1 -27.50460000000000 -6.87614000000000)" clip-rule="evenodd"><path id="e05z7oubq3szj183" d="M217.419000,265.401000C217.419000,265.401000,215.904000,266.320000,213.784000,266.724000C211.664000,267.128000,209.846000,267.164000,209.846000,267.164000C209.846000,267.164000,211.563000,265.895000,213.632000,265.401000C215.702000,264.907000,217.419000,265.401000,217.419000,265.401000Z" clip-rule="evenodd" fill="rgb(154,153,204)" stroke="none" stroke-width="1" stroke-linejoin="round" stroke-miterlimit="2"/></g><g id="e05z7oubq3szj184" transform="matrix(1 0 0 1 -27.50460000000000 -6.87614000000000)" clip-rule="evenodd"><path id="e05z7oubq3szj185" d="M218.349000,239.970000C218.349000,239.970000,219.337000,240.746000,219.639000,241.972000C219.942000,243.200000,217.951000,244.715000,215.615000,244.917000C213.279000,245.118000,209.275000,244.752000,209.275000,244.752000C209.275000,244.752000,209.544000,242.786000,211.966000,242.488000C214.389000,242.190000,216.611000,242.244000,217.570000,241.548000C218.529000,240.851000,218.349000,239.970000,218.349000,239.970000Z" clip-rule="evenodd" fill="rgb(154,153,204)" stroke="none" stroke-width="1" stroke-linejoin="round" stroke-miterlimit="2"/></g><g id="e05z7oubq3szj186" transform="matrix(1 0 0 1 -27.50460000000000 -6.87614000000000)" clip-rule="evenodd"><path id="e05z7oubq3szj187" d="M200.621000,261.586000C200.621000,261.586000,197.531000,257.270000,196.990000,256.263000C196.450000,255.258000,196.492000,254.458000,196.351000,253.293000C196.211000,252.129000,197.204000,250.504000,196.738000,250.199000C195.531000,249.410000,195.433000,251.729000,194.986000,252.334000C194.538000,252.939000,193.506000,252.727000,193.506000,252.727000C193.506000,252.727000,192.807000,251.854000,192.280000,251.141000C191.752000,250.428000,191.363000,249.918000,191.363000,249.918000C191.363000,249.918000,191.122000,251.282000,191.724000,253.036000C192.191000,254.395000,193.380000,256.139000,194.124000,257.068000C194.866000,257.996000,195.714000,260.715000,197.014000,262.852000C198.313000,264.989000,198.445000,266.118000,200.306000,266.173000C202.169000,266.227000,202.601000,265.608000,202.664000,264.556000C202.725000,263.504000,200.621000,261.586000,200.621000,261.586000Z" clip-rule="evenodd" fill="rgb(250,194,194)" stroke="none" stroke-width="1" stroke-linejoin="round" stroke-miterlimit="2"/></g><g id="e05z7oubq3szj188" transform="matrix(1 0 0 1 -27.50460000000000 -6.87614000000000)" clip-rule="evenodd"><path id="e05z7oubq3szj189" d="M240.417000,203.480000C240.417000,203.480000,239.769000,201.409000,238.572000,201.781000C236.949000,202.284000,232.295000,204.749000,231.300000,205.463000C231.547000,205.958000,238.889000,219.874000,238.889000,219.874000L241.326000,218.335000L240.417000,203.480000Z" clip-rule="evenodd" fill="rgb(199,176,213)" stroke="none" stroke-width="1" stroke-linejoin="round" stroke-miterlimit="2"/></g><g id="e05z7oubq3szj190" transform="matrix(1 0 0 1 -27.50460000000000 -6.87614000000000)" clip-rule="evenodd"><path id="e05z7oubq3szj191" d="M233.010000,207.193000C233.010000,207.193000,232.614000,205.968000,231.902000,205.504000C231.191000,205.039000,230.842000,205.989000,231.197000,206.670000C231.531000,207.310000,232.521000,208.279000,233.280000,209.751000C234.606000,212.323000,238.889000,219.874000,238.889000,219.874000L239.271000,219.633000L233.010000,207.193000Z" clip-rule="evenodd" fill="rgb(172,147,194)" stroke="none" stroke-width="1" stroke-linejoin="round" stroke-miterlimit="2"/></g><g id="e05z7oubq3szj192" transform="matrix(1 0 0 1 -27.50460000000000 -6.87614000000000)" clip-rule="evenodd"><path id="e05z7oubq3szj193" d="M246.611000,216.415000L239.205000,220.128000L232.521000,207.688000L239.927000,203.975000L246.611000,216.415000Z" clip-rule="evenodd" fill="rgb(222,200,225)" stroke="none" stroke-width="1" stroke-linejoin="round" stroke-miterlimit="2"/></g><g id="e05z7oubq3szj194" transform="matrix(1 0 0 1 -27.50460000000000 -6.87614000000000)" clip-rule="evenodd"><path id="e05z7oubq3szj195" d="M247.100000,215.920000L239.694000,219.633000L233.010000,207.193000L240.417000,203.480000L247.100000,215.920000Z" clip-rule="evenodd" fill="rgb(241,223,237)" stroke="none" stroke-width="1" stroke-linejoin="round" stroke-miterlimit="2"/></g><g id="e05z7oubq3szj196" transform="matrix(1 0 0 1 -27.50460000000000 -6.87614000000000)" clip-rule="evenodd"><path id="e05z7oubq3szj197" d="M233.010000,207.193000L232.521000,207.688000L239.205000,220.128000L239.694000,219.633000L233.010000,207.193000Z" clip-rule="evenodd" fill="rgb(222,200,225)" stroke="none" stroke-width="1" stroke-linejoin="round" stroke-miterlimit="2"/></g><g id="e05z7oubq3szj198" transform="matrix(1 0 0 1 -27.50460000000000 -6.87614000000000)" clip-rule="evenodd"><path id="e05z7oubq3szj199" d="M246.611000,216.415000L247.100000,215.920000L239.694000,219.633000L239.205000,220.128000L246.611000,216.415000Z" clip-rule="evenodd" fill="rgb(199,176,213)" stroke="none" stroke-width="1" stroke-linejoin="round" stroke-miterlimit="2"/></g><g id="e05z7oubq3szj200" transform="matrix(1 0 0 1 -27.50460000000000 -6.87614000000000)" clip-rule="evenodd"><path id="e05z7oubq3szj201" d="M241.642000,218.655000C241.642000,218.655000,237.709000,214.545000,237.169000,213.539000C236.628000,212.533000,236.670000,211.733000,236.530000,210.568000C236.388000,209.404000,237.382000,207.779000,236.917000,207.474000C235.710000,206.685000,235.612000,209.005000,235.165000,209.609000C234.716000,210.215000,233.685000,210.003000,233.685000,210.003000C233.685000,210.003000,232.986000,209.130000,232.458000,208.417000C231.930000,207.704000,231.542000,207.193000,231.542000,207.193000C231.542000,207.193000,231.300000,208.557000,231.902000,210.311000C232.369000,211.671000,233.559000,213.415000,234.301000,214.343000C235.045000,215.271000,235.893000,217.990000,237.192000,220.128000C238.492000,222.264000,238.624000,223.393000,240.485000,223.448000C241.326000,223.259000,243.030000,221.705000,243.092000,220.653000C243.154000,219.601000,241.642000,218.655000,241.642000,218.655000Z" clip-rule="evenodd" fill="rgb(250,194,194)" stroke="none" stroke-width="1" stroke-linejoin="round" stroke-miterlimit="2"/></g><g id="e05z7oubq3szj202" transform="matrix(1 0 0 1 -27.50460000000000 -6.87614000000000)" clip-rule="evenodd"><path id="e05z7oubq3szj203" d="M241.678000,203.739000L241.036000,205.267000L240.778000,206.441000L241.593000,205.563000L242.506000,203.903000L241.678000,203.739000Z" clip-rule="evenodd" fill="rgb(73,46,46)" stroke="none" stroke-width="1" stroke-linejoin="round" stroke-miterlimit="2"/></g><g id="e05z7oubq3szj204" transform="matrix(1 0 0 1 -27.50460000000000 -6.87614000000000)" clip-rule="evenodd"><path id="e05z7oubq3szj205" d="M250.735000,211.411000C251.592000,210.181000,252.493000,208.982000,253.338000,207.743000C251.579000,205.259000,247.550000,202.791000,246.417000,201.439000C245.123000,199.898000,243.839000,200.370000,242.668000,201.675000C241.497000,202.979000,240.892000,203.445000,240.892000,203.445000C241.049000,203.862000,241.131000,203.755000,241.678000,203.739000C241.516000,204.023000,241.627000,204.140000,241.843000,204.111000C242.545000,204.017000,242.908000,204.020000,243.435000,204.293000C243.772000,204.467000,245.014000,204.474000,246.003000,204.772000C246.673000,204.974000,247.763000,206.509000,249.979000,210.403000C250.141000,210.689000,250.433000,211.051000,250.735000,211.411000Z" clip-rule="evenodd" fill="rgb(250,194,194)" stroke="none" stroke-width="1" stroke-linejoin="round" stroke-miterlimit="2"/></g><g id="e05z7oubq3szj206" transform="matrix(1 0 0 1 -27.50460000000000 -6.87614000000000)" clip-rule="evenodd"><path id="e05z7oubq3szj207" d="M242.728000,203.138000C242.728000,203.138000,243.668000,203.063000,244.128000,202.707000C244.589000,202.350000,244.377000,201.908000,243.888000,201.838000C243.400000,201.767000,242.907000,202.022000,242.907000,202.022000L242.728000,203.138000Z" clip-rule="evenodd" fill="rgb(248,178,175)" stroke="none" stroke-width="1" stroke-linejoin="round" stroke-miterlimit="2"/></g><g id="e05z7oubq3szj208" transform="matrix(1 0 0 1 -27.50460000000000 -6.87614000000000)" clip-rule="evenodd"><path id="e05z7oubq3szj209" d="M242.728000,203.138000L244.062000,200.416000L243.377000,200.157000C243.377000,200.157000,242.213000,202.695000,241.751000,203.607000C241.966000,203.306000,242.363000,203.110000,242.728000,203.138000Z" clip-rule="evenodd" fill="rgb(73,46,46)" stroke="none" stroke-width="1" stroke-linejoin="round" stroke-miterlimit="2"/></g><g id="e05z7oubq3szj210" transform="matrix(1 0 0 1 -27.50460000000000 -6.87614000000000)" clip-rule="evenodd"><path id="e05z7oubq3szj211" d="M244.062000,200.416000C244.019000,200.530000,243.831000,200.565000,243.641000,200.494000C243.452000,200.423000,243.334000,200.271000,243.377000,200.157000C243.420000,200.043000,243.608000,200.008000,243.797000,200.080000C243.987000,200.151000,244.105000,200.301000,244.062000,200.416000Z" clip-rule="evenodd" fill="rgb(96,65,64)" stroke="none" stroke-width="1" stroke-linejoin="round" stroke-miterlimit="2"/></g><g id="e05z7oubq3szj212" transform="matrix(1 0 0 1 -27.50460000000000 -6.87614000000000)" clip-rule="evenodd"><path id="e05z7oubq3szj213" d="M263.005000,200.192000C265.641000,202.441000,264.128000,207.229000,264.128000,207.229000C264.128000,207.229000,256.470000,208.046000,256.032000,206.017000C255.594000,203.988000,256.251000,200.822000,256.251000,200.822000C256.251000,200.822000,260.370000,197.944000,263.005000,200.192000Z" clip-rule="evenodd" fill="rgb(238,48,133)" stroke="none" stroke-width="1" stroke-linejoin="round" stroke-miterlimit="2"/></g><g id="e05z7oubq3szj214" transform="matrix(1 0 0 1 -27.50460000000000 -6.87614000000000)" clip-rule="evenodd"><path id="e05z7oubq3szj215" d="M250.998000,220.653000C250.998000,220.653000,246.310000,222.721000,242.198000,224.663000C238.135000,225.582000,236.716000,229.304000,236.716000,229.304000L241.270000,232C241.270000,232,250.714000,230.259000,251.698000,226.988000C252.681000,223.718000,250.998000,220.653000,250.998000,220.653000Z" clip-rule="evenodd" fill="rgb(51,33,31)" stroke="none" stroke-width="1" stroke-linejoin="round" stroke-miterlimit="2"/></g><g id="e05z7oubq3szj216" transform="matrix(1 0 0 1 -27.50460000000000 -6.87614000000000)" clip-rule="evenodd"><path id="e05z7oubq3szj217" d="M244.733000,226.988000C244.733000,226.988000,245.479000,224.802000,242.198000,224.663000C238.916000,224.524000,237.295000,225.166000,235.259000,224.164000C233.222000,223.163000,232.604000,224.034000,231.985000,225.455000C231.366000,226.876000,232.162000,230.335000,234.240000,230.338000C236.317000,230.342000,244.846000,229.824000,244.733000,226.988000Z" clip-rule="evenodd" fill="rgb(255,255,255)" stroke="none" stroke-width="1" stroke-linejoin="round" stroke-miterlimit="2"/></g><g id="e05z7oubq3szj218" transform="matrix(1 0 0 1 -27.50460000000000 -6.87614000000000)" clip-rule="evenodd"><path id="e05z7oubq3szj219" d="M236.716000,225.822000C238.756000,225.854000,243.092000,226.054000,246.075000,226.326000C247.432000,226.450000,250.391000,226.518000,250.391000,226.518000C250.391000,226.518000,254.943000,228.294000,253.441000,230.338000C251.939000,232.383000,248.349000,235.039000,245.255000,234.701000C242.161000,234.363000,234.240000,230.338000,234.240000,230.338000L230.650000,228.234000C230.650000,228.234000,234.495000,225.788000,236.716000,225.822000Z" clip-rule="evenodd" fill="rgb(71,46,46)" stroke="none" stroke-width="1" stroke-linejoin="round" stroke-miterlimit="2"/></g><g id="e05z7oubq3szj220" transform="matrix(1 0 0 1 -27.50460000000000 -6.87614000000000)" clip-rule="evenodd"><path id="e05z7oubq3szj221" d="M237.582000,226.988000C237.582000,226.988000,241.270000,226.971000,243.011000,227.400000C245.094000,227.914000,248.603000,228.089000,248.603000,228.089000L247.355000,230.773000C247.355000,230.773000,246.864000,231.639000,243.275000,230.773000C239.685000,229.907000,237.582000,226.988000,237.582000,226.988000Z" clip-rule="evenodd" fill="rgb(51,33,31)" stroke="none" stroke-width="1" stroke-linejoin="round" stroke-miterlimit="2"/></g><g id="e05z7oubq3szj222" transform="matrix(1 0 0 1 -27.50460000000000 -6.87614000000000)" clip-rule="evenodd"><path id="e05z7oubq3szj223" d="M237.582000,226.988000C239.968000,227.650000,243.564000,228.531000,246.799000,229.300000C249.711000,220.653000,260.842000,221.306000,260.842000,221.306000C260.842000,221.306000,262.297000,226.882000,263.487000,230.428000C265.653000,236.885000,262.612000,239.633000,259.428000,241.397000C257.664000,242.377000,256.049000,244.454000,249.803000,243.506000C243.569000,242.558000,234.021000,238.174000,232.135000,235.937000C229.936000,233.330000,228.034000,229.852000,230.650000,228.234000C231.078000,227.969000,231.548000,227.711000,232.059000,227.483000C233.589000,226.801000,235.470000,226.403000,237.582000,226.988000Z" clip-rule="evenodd" fill="rgb(71,46,46)" stroke="none" stroke-width="1" stroke-linejoin="round" stroke-miterlimit="2"/></g><g id="e05z7oubq3szj224" transform="matrix(1 0 0 1 -27.50460000000000 -6.87614000000000)" clip-rule="evenodd"><path id="e05z7oubq3szj225" d="M254.645000,187.727000C256.282000,186.591000,259.432000,186.945000,260.799000,189.832000C261.555000,191.430000,260.487000,195.728000,260.318000,198.746000C260.181000,201.179000,260.997000,202.586000,260.997000,202.586000L258.910000,203.446000C256.821000,204.306000,254.645000,203.446000,254.645000,203.446000L254.713000,199.734000C254.713000,199.734000,252.958000,199.740000,252.465000,199.535000C251.572000,199.163000,250.604000,198.018000,251.162000,193.624000C251.791000,188.664000,254.042000,188.146000,254.645000,187.727000Z" clip-rule="evenodd" fill="rgb(250,194,194)" stroke="none" stroke-width="1" stroke-linejoin="round" stroke-miterlimit="2"/></g><g id="e05z7oubq3szj226" transform="matrix(1 0 0 1 -27.50460000000000 -6.87614000000000)" clip-rule="evenodd"><path id="e05z7oubq3szj227" d="M258.446000,186.146000C260.514000,186.833000,263.013000,187.369000,263.005000,192.218000C263.001000,195.904000,260.820000,197.131000,259.484000,200.391000C256.032000,198.752000,254.358000,196.010000,253.804000,195.432000C252.558000,194.131000,251.162000,193.624000,251.003000,191.920000C250.675000,188.425000,253.899000,184.637000,258.446000,186.146000Z" clip-rule="evenodd" fill="rgb(71,46,46)" stroke="none" stroke-width="1" stroke-linejoin="round" stroke-miterlimit="2"/></g><g id="e05z7oubq3szj228" transform="matrix(1 0 0 1 -27.50460000000000 -6.87614000000000)" clip-rule="evenodd"><path id="e05z7oubq3szj229" d="M254.329000,194.358000C254.849000,196.433000,253.041000,197.131000,253.041000,197.131000L252.465000,194.358000C252.465000,194.358000,253.768000,192.125000,254.329000,194.358000Z" clip-rule="evenodd" fill="rgb(250,194,194)" stroke="none" stroke-width="1" stroke-linejoin="round" stroke-miterlimit="2"/></g><g id="e05z7oubq3szj230" transform="matrix(1 0 0 1 -27.50460000000000 -6.87614000000000)" clip-rule="evenodd"><path id="e05z7oubq3szj231" d="M259.476000,186.413000L260.842000,190.921000C260.842000,190.921000,258.178000,190.716000,258.111000,188.667000C258.043000,186.618000,259.476000,186.413000,259.476000,186.413000Z" clip-rule="evenodd" fill="rgb(238,48,133)" stroke="none" stroke-width="1" stroke-linejoin="round" stroke-miterlimit="2"/></g><g id="e05z7oubq3szj232" transform="matrix(1 0 0 1 -27.50460000000000 -6.87614000000000)" clip-rule="evenodd"><path id="e05z7oubq3szj233" d="M265.331000,185.064000C266.989000,188.371000,263.978000,189.113000,265.553000,191.781000C266.604000,193.559000,269.154000,193.707000,269.154000,193.707000C269.154000,193.707000,267.784000,196.652000,264.150000,194.945000C260.818000,193.379000,258.564000,189.534000,259.212000,186.247000C259.861000,182.961000,264.214000,182.841000,265.331000,185.064000Z" clip-rule="evenodd" fill="rgb(51,33,31)" stroke="none" stroke-width="1" stroke-linejoin="round" stroke-miterlimit="2"/></g><g id="e05z7oubq3szj234" transform="matrix(1 0 0 1 -27.50460000000000 -6.87614000000000)" clip-rule="evenodd"><path id="e05z7oubq3szj235" d="M255.038000,202.314000C256.923000,201.789000,259.876000,201.998000,260.545000,201.354000C262.060000,202.060000,262.793000,203.123000,263.684000,204.840000C264.576000,206.556000,264.347000,209.403000,263.005000,214.574000C261.915000,218.775000,261.621000,221.051000,261.643000,223.496000C261.646000,223.784000,262.032000,225.450000,262.077000,225.797000C259.290000,228.837000,252.499000,229.051000,248.743000,226.110000C248.743000,224.468000,249.750000,218.071000,248.670000,214.775000C246.885000,209.325000,251.869000,204.194000,251.869000,204.194000C251.869000,204.194000,252.910000,202.906000,255.038000,202.314000Z" clip-rule="evenodd" fill="rgb(239,86,153)" stroke="none" stroke-width="1" stroke-linejoin="round" stroke-miterlimit="2"/></g><g id="e05z7oubq3szj236" transform="matrix(1 0 0 1 -27.50460000000000 -6.87614000000000)" clip-rule="evenodd"><path id="e05z7oubq3szj237" d="M255.650000,201.714000C258.978000,201.714000,261.066000,200.391000,261.066000,200.391000L261.371000,201.942000C261.371000,201.942000,259.338000,203.655000,256.993000,203.551000C254.645000,203.446000,253.110000,203.164000,253.110000,203.164000C253.110000,203.164000,253.799000,201.714000,255.650000,201.714000Z" clip-rule="evenodd" fill="rgb(255,255,255)" stroke="none" stroke-width="1" stroke-linejoin="round" stroke-miterlimit="2"/></g><g id="e05z7oubq3szj238" transform="matrix(1 0 0 1 -27.50460000000000 -6.87614000000000)" clip-rule="evenodd"><path id="e05z7oubq3szj239" d="M244.361000,212.291000L239.271000,218.023000C239.271000,218.023000,238.669000,223.449000,240.485000,223.448000C241.833000,223.447000,243.821000,221.702000,245.492000,219.633000C247.163000,217.562000,248.773000,215.920000,248.773000,215.920000L244.361000,212.291000Z" clip-rule="evenodd" fill="rgb(250,194,194)" stroke="none" stroke-width="1" stroke-linejoin="round" stroke-miterlimit="2"/></g><g id="e05z7oubq3szj240" transform="matrix(1 0 0 1 -27.50460000000000 -6.87614000000000)" clip-rule="evenodd"><path id="e05z7oubq3szj241" d="M247.258000,205.751000C249.159000,203.848000,251.752000,203.857000,253.086000,205.623000C254.746000,207.821000,254.708000,210.679000,253.799000,211.759000C251.474000,214.521000,248.412000,216.123000,248.412000,216.123000L244.139000,213.318000C244.139000,213.318000,245.416000,207.596000,247.258000,205.751000Z" clip-rule="evenodd" fill="rgb(238,48,133)" stroke="none" stroke-width="1" stroke-linejoin="round" stroke-miterlimit="2"/></g><g id="e05z7oubq3szj242" transform="matrix(1 0 0 1 -27.50460000000000 -6.87614000000000)" clip-rule="evenodd"><path id="e05z7oubq3szj243" d="M243.462000,213.302000L244.430000,211.747000C244.430000,211.747000,245.100000,213.269000,246.298000,214.163000C247.496000,215.056000,249.159000,215.821000,249.159000,215.821000L247.821000,216.931000C247.821000,216.931000,245.808000,216.167000,244.881000,215.093000C243.773000,213.809000,243.462000,213.302000,243.462000,213.302000Z" clip-rule="evenodd" fill="rgb(255,255,255)" stroke="none" stroke-width="1" stroke-linejoin="round" stroke-miterlimit="2"/></g><g id="e05z7oubq3szj244" transform="matrix(1 0 0 1 -27.50460000000000 -6.87614000000000)" clip-rule="evenodd"><path id="e05z7oubq3szj245" d="M278.621000,241.619000C278.621000,241.619000,277.973000,239.548000,276.776000,239.920000C275.154000,240.423000,270.500000,242.887000,269.504000,243.601000C269.753000,244.096000,277.093000,258.012000,277.093000,258.012000L279.530000,256.473000L278.621000,241.619000Z" clip-rule="evenodd" fill="rgb(199,176,213)" stroke="none" stroke-width="1" stroke-linejoin="round" stroke-miterlimit="2"/></g><g id="e05z7oubq3szj246" transform="matrix(1 0 0 1 -27.50460000000000 -6.87614000000000)" clip-rule="evenodd"><path id="e05z7oubq3szj247" d="M271.214000,245.332000C271.214000,245.332000,270.819000,244.106000,270.107000,243.641000C269.395000,243.177000,269.046000,244.128000,269.402000,244.808000C269.736000,245.448000,270.725000,246.417000,271.485000,247.889000C272.810000,250.461000,277.093000,258.012000,277.093000,258.012000L277.476000,257.771000L271.214000,245.332000Z" clip-rule="evenodd" fill="rgb(172,147,194)" stroke="none" stroke-width="1" stroke-linejoin="round" stroke-miterlimit="2"/></g><g id="e05z7oubq3szj248" transform="matrix(1 0 0 1 -27.50460000000000 -6.87614000000000)" clip-rule="evenodd"><path id="e05z7oubq3szj249" d="M284.815000,254.552000L277.409000,258.266000L270.725000,245.827000L278.131000,242.114000L284.815000,254.552000Z" clip-rule="evenodd" fill="rgb(222,200,225)" stroke="none" stroke-width="1" stroke-linejoin="round" stroke-miterlimit="2"/></g><g id="e05z7oubq3szj250" transform="matrix(1 0 0 1 -27.50460000000000 -6.87614000000000)" clip-rule="evenodd"><path id="e05z7oubq3szj251" d="M285.304000,254.057000L277.898000,257.771000L271.214000,245.332000L278.621000,241.619000L285.304000,254.057000Z" clip-rule="evenodd" fill="rgb(241,223,237)" stroke="none" stroke-width="1" stroke-linejoin="round" stroke-miterlimit="2"/></g><g id="e05z7oubq3szj252" transform="matrix(1 0 0 1 -27.50460000000000 -6.87614000000000)" clip-rule="evenodd"><path id="e05z7oubq3szj253" d="M271.214000,245.332000L270.725000,245.827000L277.409000,258.266000L277.898000,257.771000L271.214000,245.332000Z" clip-rule="evenodd" fill="rgb(222,200,225)" stroke="none" stroke-width="1" stroke-linejoin="round" stroke-miterlimit="2"/></g><g id="e05z7oubq3szj254" transform="matrix(1 0 0 1 -27.50460000000000 -6.87614000000000)" clip-rule="evenodd"><path id="e05z7oubq3szj255" d="M284.815000,254.552000L285.304000,254.057000L277.898000,257.771000L277.409000,258.266000L284.815000,254.552000Z" clip-rule="evenodd" fill="rgb(199,176,213)" stroke="none" stroke-width="1" stroke-linejoin="round" stroke-miterlimit="2"/></g><g id="e05z7oubq3szj256" transform="matrix(1 0 0 1 -27.50460000000000 -6.87614000000000)" clip-rule="evenodd"><path id="e05z7oubq3szj257" d="M279.882000,241.877000L279.241000,243.406000L278.983000,244.580000L279.798000,243.702000L280.712000,242.042000L279.882000,241.877000Z" clip-rule="evenodd" fill="rgb(73,46,46)" stroke="none" stroke-width="1" stroke-linejoin="round" stroke-miterlimit="2"/></g><g id="e05z7oubq3szj258" transform="matrix(1 0 0 1 -27.50460000000000 -6.87614000000000)" clip-rule="evenodd"><path id="e05z7oubq3szj259" d="M288.939000,249.549000C289.797000,248.320000,290.698000,247.121000,291.543000,245.882000C289.783000,243.397000,285.755000,240.928000,284.621000,239.578000C283.327000,238.036000,282.044000,238.509000,280.873000,239.813000C279.701000,241.118000,279.096000,241.584000,279.096000,241.584000C279.254000,242.001000,279.336000,241.893000,279.882000,241.877000C279.721000,242.162000,279.832000,242.279000,280.048000,242.250000C280.749000,242.155000,281.112000,242.158000,281.640000,242.431000C281.976000,242.605000,283.218000,242.612000,284.207000,242.911000C284.878000,243.113000,285.967000,244.647000,288.183000,248.542000C288.346000,248.828000,288.637000,249.189000,288.939000,249.549000Z" clip-rule="evenodd" fill="rgb(250,194,194)" stroke="none" stroke-width="1" stroke-linejoin="round" stroke-miterlimit="2"/></g><g id="e05z7oubq3szj260" transform="matrix(1 0 0 1 -27.50460000000000 -6.87614000000000)" clip-rule="evenodd"><path id="e05z7oubq3szj261" d="M280.933000,241.277000C280.933000,241.277000,281.872000,241.202000,282.334000,240.845000C282.795000,240.489000,282.582000,240.046000,282.093000,239.976000C281.605000,239.906000,281.111000,240.160000,281.111000,240.160000L280.933000,241.277000Z" clip-rule="evenodd" fill="rgb(248,178,175)" stroke="none" stroke-width="1" stroke-linejoin="round" stroke-miterlimit="2"/></g><g id="e05z7oubq3szj262" transform="matrix(1 0 0 1 -27.50460000000000 -6.87614000000000)" clip-rule="evenodd"><path id="e05z7oubq3szj263" d="M280.933000,241.277000L282.267000,238.554000L281.581000,238.296000C281.581000,238.296000,280.419000,240.834000,279.955000,241.746000C280.171000,241.445000,280.567000,241.249000,280.933000,241.277000Z" clip-rule="evenodd" fill="rgb(73,46,46)" stroke="none" stroke-width="1" stroke-linejoin="round" stroke-miterlimit="2"/></g><g id="e05z7oubq3szj264" transform="matrix(1 0 0 1 -27.50460000000000 -6.87614000000000)" clip-rule="evenodd"><path id="e05z7oubq3szj265" d="M282.267000,238.554000C282.224000,238.669000,282.036000,238.704000,281.846000,238.633000C281.657000,238.560000,281.538000,238.410000,281.581000,238.296000C281.625000,238.181000,281.813000,238.146000,282.003000,238.218000C282.191000,238.290000,282.310000,238.440000,282.267000,238.554000Z" clip-rule="evenodd" fill="rgb(96,65,64)" stroke="none" stroke-width="1" stroke-linejoin="round" stroke-miterlimit="2"/></g><g id="e05z7oubq3szj266" transform="matrix(1 0 0 1 -27.50460000000000 -6.87614000000000)" clip-rule="evenodd"><path id="e05z7oubq3szj267" d="M289.200000,261.783000C289.200000,261.783000,284.200000,265.229000,280.758000,267.576000C277.318000,269.923000,276.206000,270.434000,276.206000,270.434000L280.758000,273.130000C280.758000,273.130000,290.204000,271.388000,291.187000,268.118000C292.171000,264.848000,289.200000,261.783000,289.200000,261.783000Z" clip-rule="evenodd" fill="rgb(51,33,31)" stroke="none" stroke-width="1" stroke-linejoin="round" stroke-miterlimit="2"/></g><g id="e05z7oubq3szj268" transform="matrix(1 0 0 1 -27.50460000000000 -6.87614000000000)" clip-rule="evenodd"><path id="e05z7oubq3szj269" d="M276.206000,266.953000C278.245000,266.984000,282.582000,267.184000,285.564000,267.457000C286.921000,267.580000,289.880000,267.648000,289.880000,267.648000C289.880000,267.648000,294.432000,269.424000,292.930000,271.468000C291.427000,273.512000,287.838000,276.169000,284.744000,275.831000C281.650000,275.493000,273.728000,271.468000,273.728000,271.468000L270.139000,269.364000C270.139000,269.364000,273.984000,266.918000,276.206000,266.953000Z" clip-rule="evenodd" fill="rgb(71,46,46)" stroke="none" stroke-width="1" stroke-linejoin="round" stroke-miterlimit="2"/></g><g id="e05z7oubq3szj270" transform="matrix(1 0 0 1 -27.50460000000000 -6.87614000000000)" clip-rule="evenodd"><path id="e05z7oubq3szj271" d="M302.302000,242.771000C304.538000,244.872000,305.682000,250.423000,302.047000,253.596000C298.413000,256.770000,297.069000,243.316000,297.069000,243.316000C298.448000,242.657000,299.609000,240.241000,302.302000,242.771000Z" clip-rule="evenodd" fill="rgb(245,161,198)" stroke="none" stroke-width="1" stroke-linejoin="round" stroke-miterlimit="2"/></g><g id="e05z7oubq3szj272" transform="matrix(1 0 0 1 -27.50460000000000 -6.87614000000000)" clip-rule="evenodd"><path id="e05z7oubq3szj273" d="M292.194000,227.657000C293.909000,226.467000,297.207000,226.838000,298.638000,229.861000C299.430000,231.535000,298.311000,236.036000,298.133000,239.196000C297.991000,241.745000,298.844000,243.217000,298.844000,243.217000L296.659000,244.118000C294.472000,245.019000,292.194000,244.118000,292.194000,244.118000L292.264000,240.230000C292.264000,240.230000,290.648000,240.164000,290.236000,239.786000C289.244000,238.878000,288.086000,237.319000,288.546000,233.832000C289.229000,228.640000,291.562000,228.095000,292.194000,227.657000Z" clip-rule="evenodd" fill="rgb(250,194,194)" stroke="none" stroke-width="1" stroke-linejoin="round" stroke-miterlimit="2"/></g><g id="e05z7oubq3szj274" transform="matrix(1 0 0 1 -27.50460000000000 -6.87614000000000)" clip-rule="evenodd"><path id="e05z7oubq3szj275" d="M277.070000,268.118000C277.070000,268.118000,280.758000,268.101000,282.501000,268.530000C284.584000,269.044000,288.092000,269.218000,288.092000,269.218000L286.844000,271.903000C286.844000,271.903000,286.353000,272.769000,282.764000,271.903000C279.174000,271.037000,277.070000,268.118000,277.070000,268.118000Z" clip-rule="evenodd" fill="rgb(51,33,31)" stroke="none" stroke-width="1" stroke-linejoin="round" stroke-miterlimit="2"/></g><g id="e05z7oubq3szj276" transform="matrix(1 0 0 1 -27.50460000000000 -6.87614000000000)" clip-rule="evenodd"><path id="e05z7oubq3szj277" d="M277.070000,268.118000C282.383000,269.593000,293.680000,272.146000,293.680000,272.146000C293.680000,272.146000,301.786000,268.012000,302.975000,271.558000C305.142000,278.015000,302.101000,280.762000,298.919000,282.527000C297.153000,283.507000,295.539000,285.584000,289.293000,284.635000C283.058000,283.688000,273.510000,279.303000,271.625000,277.067000C269.425000,274.460000,267.523000,270.982000,270.139000,269.364000C270.567000,269.099000,271.038000,268.841000,271.548000,268.613000C273.078000,267.930000,274.960000,267.533000,277.070000,268.118000Z" clip-rule="evenodd" fill="rgb(71,46,46)" stroke="none" stroke-width="1" stroke-linejoin="round" stroke-miterlimit="2"/></g><g id="e05z7oubq3szj278" transform="matrix(1 0 0 1 -27.50460000000000 -6.87614000000000)" clip-rule="evenodd"><path id="e05z7oubq3szj279" d="M286.294000,255.553000C285.004000,252.800000,285.904000,248.049000,286.724000,246.252000C287.546000,244.455000,292.197000,243.113000,292.197000,243.113000L298.919000,242.319000C298.919000,242.319000,302.951000,243.623000,302.951000,249.661000C302.951000,253.308000,302.347000,256.152000,301.774000,260.731000C301.615000,262.007000,301.157000,265.013000,303.309000,270.530000C303.426000,270.832000,303.530000,271.251000,303.624000,271.748000C302.531000,274.799000,296.506000,277.862000,293.680000,277.815000C291.793000,277.785000,289.472000,277.385000,287.812000,276.206000C286.153000,275.026000,285.495000,274.362000,286.253000,271.212000C286.490000,270.226000,288.930000,261.183000,286.294000,255.553000Z" clip-rule="evenodd" fill="rgb(249,202,223)" stroke="none" stroke-width="1" stroke-linejoin="round" stroke-miterlimit="2"/></g><g id="e05z7oubq3szj280" transform="matrix(1 0 0 1 -27.50460000000000 -6.87614000000000)" clip-rule="evenodd"><path id="e05z7oubq3szj281" d="M292.232000,242.009000C292.232000,242.009000,294.228000,242.813000,296.471000,242.009000L298.714000,241.206000L299.460000,242.797000C299.460000,242.797000,299.123000,243.890000,296.901000,244.597000C294.679000,245.304000,292.671000,245.170000,290.485000,244.092000C290.471000,242.653000,292.232000,242.009000,292.232000,242.009000Z" clip-rule="evenodd" fill="rgb(245,161,198)" stroke="none" stroke-width="1" stroke-linejoin="round" stroke-miterlimit="2"/></g><g id="e05z7oubq3szj282" transform="matrix(1 0 0 1 -27.50460000000000 -6.87614000000000)" clip-rule="evenodd"><path id="e05z7oubq3szj283" d="M295.321000,225.228000C298.391000,225.228000,301.109000,227.457000,301.108000,234.141000C301.107000,235.508000,299.843000,237.825000,298.668000,239.032000C298.083000,239.633000,297.391000,240.272000,297.245000,241.119000C294.864000,240.841000,292.617000,237.089000,291.312000,235.725000C290.008000,234.362000,288.444000,233.380000,287.561000,231.858000C287.436000,230.529000,287.546000,227.787000,289.910000,227.676000C290.866000,226.512000,291.698000,225.228000,295.321000,225.228000Z" clip-rule="evenodd" fill="rgb(51,33,31)" stroke="none" stroke-width="1" stroke-linejoin="round" stroke-miterlimit="2"/></g><g id="e05z7oubq3szj284" transform="matrix(1 0 0 1 -27.50460000000000 -6.87614000000000)" clip-rule="evenodd"><path id="e05z7oubq3szj285" d="M291.862000,234.600000C292.407000,236.774000,290.513000,237.504000,290.513000,237.504000L289.910000,234.600000C289.910000,234.600000,291.275000,232.262000,291.862000,234.600000Z" clip-rule="evenodd" fill="rgb(250,194,194)" stroke="none" stroke-width="1" stroke-linejoin="round" stroke-miterlimit="2"/></g><g id="e05z7oubq3szj286" transform="matrix(1 0 0 1 -27.50460000000000 -6.87614000000000)" clip-rule="evenodd"><path id="e05z7oubq3szj287" d="M287.972000,247.727000C287.972000,247.727000,286.065000,247.454000,284.736000,248.909000C283.531000,250.228000,278.772000,255.901000,277.893000,256.951000C277.840000,258.295000,278.921000,260.297000,279.847000,261.502000C282.520000,261.222000,285.930000,257.084000,287.307000,255.086000C288.951000,252.702000,291.660000,250.737000,287.972000,247.727000Z" clip-rule="evenodd" fill="rgb(250,194,194)" stroke="none" stroke-width="1" stroke-linejoin="round" stroke-miterlimit="2"/></g><g id="e05z7oubq3szj288" transform="matrix(1 0 0 1 -27.50460000000000 -6.87614000000000)" clip-rule="evenodd"><path id="e05z7oubq3szj289" d="M285.915000,258.585000C287.916000,256.127000,290.143000,253.651000,290.828000,250.664000C291.640000,247.120000,290.388000,245.884000,290.388000,245.884000C288.300000,244.371000,285.629000,244.694000,283.241000,248.399000C282.436000,249.648000,281.380000,251.257000,280.402000,252.854000C281.107000,255.521000,283.396000,257.578000,285.915000,258.585000Z" clip-rule="evenodd" fill="rgb(245,161,198)" stroke="none" stroke-width="1" stroke-linejoin="round" stroke-miterlimit="2"/></g><g id="e05z7oubq3szj290" transform="matrix(1 0 0 1 -27.50460000000000 -6.87614000000000)" clip-rule="evenodd"><path id="e05z7oubq3szj291" d="M303.402000,247.878000C302.446000,245.261000,298.785000,243.126000,298.662000,240.367000C298.649000,240.088000,298.731000,239.806000,298.858000,239.513000C297.899000,239.946000,296.883000,240.265000,295.848000,240.506000C296.804000,241.676000,296.636000,247.461000,298.662000,251.630000C300.913000,256.265000,299.602000,257.111000,299.602000,257.111000C299.602000,257.111000,306.019000,255.041000,303.402000,247.878000Z" clip-rule="evenodd" fill="rgb(51,33,31)" stroke="none" stroke-width="1" stroke-linejoin="round" stroke-miterlimit="2"/></g><g id="e05z7oubq3szj292" transform="matrix(1 0 0 1 -27.50460000000000 -6.87614000000000)" clip-rule="evenodd"><path id="e05z7oubq3szj293" d="M299.254000,238.380000C299.254000,238.380000,299.313000,240.488000,298.983000,240.843000C298.537000,241.321000,296.865000,241.862000,296.254000,241.624000C295.730000,241.420000,294.959000,240.358000,294.889000,239.831000C297.046000,239.653000,299.254000,238.380000,299.254000,238.380000Z" clip-rule="evenodd" fill="rgb(249,202,223)" stroke="none" stroke-width="1" stroke-linejoin="round" stroke-miterlimit="2"/></g><g id="e05z7oubq3szj294" transform="matrix(1 0 0 1 -27.50460000000000 -6.87614000000000)" clip-rule="evenodd"><path id="e05z7oubq3szj295" d="M279.847000,256.795000C279.847000,256.795000,275.914000,252.683000,275.373000,251.677000C274.833000,250.672000,274.876000,249.872000,274.734000,248.707000C274.593000,247.542000,275.587000,245.918000,275.121000,245.613000C273.914000,244.824000,273.817000,247.142000,273.369000,247.748000C272.921000,248.352000,271.889000,248.141000,271.889000,248.141000C271.889000,248.141000,271.190000,247.267000,270.663000,246.555000C270.134000,245.843000,269.746000,245.332000,269.746000,245.332000C269.746000,245.332000,269.504000,246.696000,270.107000,248.450000C270.574000,249.809000,271.763000,251.553000,272.506000,252.482000C273.249000,253.410000,274.097000,256.129000,275.397000,258.266000C276.696000,260.403000,276.828000,261.533000,278.689000,261.587000C280.551000,261.640000,280.985000,261.022000,281.046000,259.969000C281.108000,258.918000,279.847000,256.795000,279.847000,256.795000Z" clip-rule="evenodd" fill="rgb(250,194,194)" stroke="none" stroke-width="1" stroke-linejoin="round" stroke-miterlimit="2"/></g></g></g></svg>