<?xml version="1.0" encoding="UTF-8" standalone="no"?>
<!DOCTYPE svg PUBLIC "-//W3C//DTD SVG 1.1//EN" "http://www.w3.org/Graphics/SVG/1.1/DTD/svg11.dtd">
<svg width="100%" height="100%" viewBox="0 0 124 41" version="1.1" xmlns="http://www.w3.org/2000/svg" xmlns:xlink="http://www.w3.org/1999/xlink" xml:space="preserve" xmlns:serif="http://www.serif.com/" style="fill-rule:evenodd;clip-rule:evenodd;stroke-linejoin:round;stroke-miterlimit:2;">
    <g transform="matrix(1,0,0,1,0,-382.913)">
        <g id="Layer1">
        </g>
        <g id="Layer11" serif:id="Layer1">
        </g>
        <g id="Artboard2" transform="matrix(0.933852,0,0,1.06711,611.88,-29.8261)">
            <rect x="-655.222" y="386.78" width="132.244" height="38.335" style="fill:none;"/>
            <g transform="matrix(1.07083,0,0,0.937107,107.383,19.9449)">
                <g transform="matrix(1,0,0,1,101.004,34.673)">
                    <g transform="matrix(38.1938,0,0,38.1938,-811.95,385.2)">
                        <path d="M0.274,-0.378C0.296,-0.378 0.317,-0.373 0.336,-0.362C0.348,-0.355 0.359,-0.345 0.37,-0.332L0.179,-0.332C0.19,-0.345 0.201,-0.355 0.213,-0.362C0.232,-0.373 0.253,-0.378 0.274,-0.378ZM0.527,-0.359C0.512,-0.392 0.492,-0.421 0.466,-0.444C0.44,-0.469 0.411,-0.487 0.378,-0.5C0.345,-0.513 0.31,-0.52 0.274,-0.52C0.239,-0.52 0.204,-0.513 0.17,-0.5C0.138,-0.487 0.109,-0.469 0.083,-0.444C0.057,-0.42 0.037,-0.391 0.022,-0.359C0.007,-0.327 0,-0.292 0,-0.253C0,-0.203 0.013,-0.157 0.038,-0.116C0.063,-0.076 0.097,-0.043 0.139,-0.02C0.181,0.003 0.226,0.015 0.274,0.015C0.31,0.015 0.345,0.008 0.378,-0.005C0.403,-0.015 0.427,-0.03 0.451,-0.049L0.367,-0.169L0.366,-0.168L0.365,-0.167L0.363,-0.165L0.362,-0.164C0.338,-0.139 0.308,-0.126 0.274,-0.126C0.241,-0.126 0.212,-0.139 0.187,-0.164C0.167,-0.183 0.155,-0.207 0.151,-0.234L0.487,-0.234L0.487,-0.235L0.547,-0.235L0.549,-0.249L0.549,-0.253C0.549,-0.291 0.542,-0.326 0.527,-0.359Z" style="fill:rgb(59,59,59);fill-rule:nonzero;"/>
                    </g>
                    <g transform="matrix(38.1938,0,0,38.1938,-790.055,385.2)">
                        <path d="M0.385,-0.349C0.371,-0.361 0.355,-0.37 0.339,-0.375C0.322,-0.381 0.303,-0.384 0.284,-0.384C0.248,-0.384 0.218,-0.373 0.193,-0.35C0.168,-0.326 0.156,-0.298 0.156,-0.264C0.156,-0.237 0.161,-0.213 0.172,-0.192C0.182,-0.171 0.198,-0.154 0.218,-0.142C0.238,-0.129 0.261,-0.123 0.287,-0.123C0.326,-0.123 0.358,-0.135 0.386,-0.159L0.471,-0.051C0.459,-0.038 0.442,-0.026 0.419,-0.016C0.397,-0.006 0.374,0.001 0.35,0.006C0.326,0.011 0.304,0.014 0.284,0.014C0.228,0.014 0.178,0.002 0.134,-0.022C0.091,-0.046 0.058,-0.078 0.035,-0.117C0.012,-0.156 0,-0.199 0,-0.244C0,-0.285 0.007,-0.323 0.021,-0.356C0.035,-0.391 0.055,-0.42 0.08,-0.444C0.105,-0.468 0.135,-0.487 0.17,-0.5C0.206,-0.514 0.243,-0.521 0.284,-0.521C0.317,-0.521 0.35,-0.515 0.381,-0.505C0.413,-0.494 0.441,-0.479 0.466,-0.459L0.385,-0.349Z" style="fill:rgb(59,59,59);fill-rule:nonzero;"/>
                    </g>
                    <g transform="matrix(55.8077,0,0,55.8077,-755.228,415.901)">
                        <path d="M0.162,-0.641C0.162,-0.625 0.159,-0.612 0.151,-0.6C0.144,-0.588 0.134,-0.578 0.122,-0.57C0.11,-0.563 0.096,-0.559 0.081,-0.559C0.066,-0.559 0.053,-0.563 0.041,-0.57C0.028,-0.577 0.018,-0.587 0.011,-0.6C0.004,-0.613 0,-0.626 0,-0.641C0,-0.656 0.004,-0.67 0.011,-0.682C0.019,-0.695 0.028,-0.705 0.041,-0.712C0.053,-0.719 0.066,-0.723 0.081,-0.723C0.096,-0.723 0.11,-0.719 0.122,-0.712C0.134,-0.705 0.144,-0.695 0.151,-0.682C0.159,-0.67 0.162,-0.656 0.162,-0.641Z" style="fill:rgb(103,47,234);"/>
                    </g>
                    <g transform="matrix(38.1938,0,0,38.1938,-735.898,385.2)">
                        <path d="M0.162,-0.5L0.162,0.001L0.006,0.001L0.006,-0.499L0.162,-0.5ZM0.162,-0.641C0.162,-0.625 0.159,-0.612 0.151,-0.6C0.144,-0.588 0.134,-0.578 0.122,-0.57C0.11,-0.563 0.096,-0.559 0.081,-0.559C0.066,-0.559 0.053,-0.563 0.041,-0.57C0.028,-0.577 0.018,-0.587 0.011,-0.6C0.004,-0.613 0,-0.626 0,-0.641C0,-0.656 0.004,-0.67 0.011,-0.682C0.019,-0.695 0.028,-0.705 0.041,-0.712C0.053,-0.719 0.066,-0.723 0.081,-0.723C0.096,-0.723 0.11,-0.719 0.122,-0.712C0.134,-0.705 0.144,-0.695 0.151,-0.682C0.159,-0.67 0.162,-0.656 0.162,-0.641Z" style="fill:rgb(59,59,59);fill-rule:nonzero;"/>
                    </g>
                    <g transform="matrix(38.1938,0,0,38.1938,-728.774,385.2)">
                        <path d="M0.156,-0.251C0.156,-0.286 0.169,-0.316 0.195,-0.341C0.221,-0.366 0.251,-0.379 0.286,-0.379C0.322,-0.379 0.352,-0.366 0.378,-0.341C0.404,-0.316 0.417,-0.286 0.417,-0.251C0.417,-0.229 0.411,-0.208 0.399,-0.189C0.387,-0.17 0.371,-0.154 0.351,-0.143C0.33,-0.132 0.309,-0.126 0.286,-0.126C0.263,-0.126 0.242,-0.132 0.222,-0.143C0.202,-0.154 0.186,-0.17 0.174,-0.189C0.162,-0.208 0.156,-0.228 0.156,-0.251ZM0,0.192L0.156,0.192L0.156,-0.014L0.178,-0.004C0.213,0.009 0.249,0.015 0.286,0.015C0.324,0.015 0.36,0.009 0.395,-0.004C0.429,-0.017 0.46,-0.035 0.487,-0.06C0.514,-0.084 0.535,-0.113 0.55,-0.146C0.565,-0.178 0.573,-0.214 0.573,-0.251C0.573,-0.29 0.565,-0.326 0.55,-0.358C0.535,-0.39 0.514,-0.419 0.487,-0.444C0.459,-0.469 0.428,-0.488 0.395,-0.5C0.36,-0.513 0.324,-0.52 0.286,-0.52C0.236,-0.52 0.189,-0.508 0.145,-0.485C0.101,-0.462 0.066,-0.43 0.04,-0.389C0.014,-0.349 0,-0.305 0,-0.255L0,0.192Z" style="fill:rgb(59,59,59);fill-rule:nonzero;"/>
                    </g>
                    <g transform="matrix(38.1938,0,0,38.1938,-705.966,385.2)">
                        <path d="M0.079,-0.157C0.11,-0.126 0.148,-0.111 0.192,-0.111C0.239,-0.111 0.262,-0.125 0.262,-0.152C0.262,-0.166 0.249,-0.177 0.224,-0.184C0.205,-0.188 0.176,-0.195 0.137,-0.206C0.104,-0.214 0.077,-0.23 0.055,-0.252C0.033,-0.275 0.022,-0.309 0.022,-0.356C0.022,-0.392 0.031,-0.422 0.049,-0.447C0.068,-0.472 0.091,-0.49 0.12,-0.501C0.15,-0.514 0.182,-0.52 0.217,-0.52C0.237,-0.52 0.257,-0.517 0.278,-0.511C0.3,-0.504 0.32,-0.496 0.337,-0.486C0.357,-0.475 0.374,-0.463 0.388,-0.45L0.302,-0.364C0.277,-0.383 0.25,-0.393 0.22,-0.393C0.185,-0.393 0.167,-0.383 0.167,-0.363C0.167,-0.345 0.18,-0.332 0.207,-0.325C0.236,-0.317 0.265,-0.31 0.294,-0.303C0.326,-0.295 0.353,-0.28 0.375,-0.258C0.396,-0.236 0.407,-0.201 0.407,-0.154C0.407,-0.118 0.398,-0.088 0.379,-0.062C0.36,-0.036 0.335,-0.017 0.303,-0.004C0.272,0.009 0.239,0.016 0.205,0.016C0.177,0.016 0.151,0.014 0.128,0.009C0.106,0.005 0.084,-0.002 0.064,-0.012C0.044,-0.022 0.022,-0.036 0,-0.053L0.079,-0.157Z" style="fill:rgb(59,59,59);fill-rule:nonzero;"/>
                    </g>
                </g>
                <g transform="matrix(1,0,0,1,101.004,34.673)">
                    <path d="M-752.402,385.57L-752.402,385.816L-752.402,387.196C-752.402,389.645 -753.273,391.74 -755.013,393.48C-755.822,394.289 -756.903,394.929 -758.258,395.401C-759.527,395.849 -760.782,396.073 -762.026,396.073L-763.07,396.073C-765.905,396.011 -768.161,395.146 -769.84,393.48C-770.971,392.324 -771.655,391.311 -771.891,390.441L-766.203,387.14C-766.141,388.122 -765.749,388.955 -765.028,389.639C-764.307,390.323 -763.449,390.664 -762.454,390.664C-761.671,390.664 -760.956,390.441 -760.31,389.993C-759.676,389.558 -759.222,388.998 -758.948,388.315L-758.93,388.24L-758.892,388.147C-758.868,388.06 -758.843,387.973 -758.818,387.886C-758.768,387.737 -758.737,387.587 -758.725,387.438L-758.725,387.382L-758.687,387.252L-758.687,387.14L-758.669,387.14L-758.669,385.182L-758.818,385.256L-758.967,385.312C-760.21,385.822 -761.516,386.077 -762.883,386.077C-764.699,386.077 -766.396,385.623 -767.975,384.715C-769.554,383.833 -770.822,382.596 -771.779,381.004C-772.736,379.413 -773.215,377.641 -773.215,375.689C-773.215,374.21 -772.935,372.842 -772.376,371.586C-771.841,370.343 -771.083,369.236 -770.101,368.267C-769.143,367.347 -768.037,366.632 -766.781,366.122C-765.513,365.612 -764.214,365.357 -762.883,365.357C-760.571,365.357 -758.855,365.656 -757.736,366.253C-754.444,367.663 -752.671,370.455 -752.416,374.627C-752.81,374.749 -753.185,374.917 -753.541,375.129C-754.384,375.63 -755.078,376.324 -755.624,377.212C-756.125,378.077 -756.375,379.033 -756.375,380.08C-756.375,381.104 -756.114,382.071 -755.59,382.982C-755.089,383.847 -754.406,384.541 -753.541,385.064C-753.181,385.279 -752.801,385.448 -752.402,385.57ZM-767.359,375.596C-767.359,376.926 -766.874,378.064 -765.905,379.009C-764.922,379.966 -763.791,380.445 -762.51,380.445C-761.217,380.445 -760.08,379.966 -759.098,379.009C-758.128,378.064 -757.643,376.926 -757.643,375.596C-757.643,374.75 -757.867,373.955 -758.314,373.209C-758.762,372.463 -759.359,371.878 -760.105,371.456C-760.863,371.033 -761.665,370.822 -762.51,370.822C-763.356,370.822 -764.145,371.033 -764.879,371.456C-765.625,371.878 -766.228,372.463 -766.688,373.209C-767.135,373.955 -767.359,374.75 -767.359,375.596Z" style="fill:rgb(59,59,59);fill-rule:nonzero;"/>
                </g>
                <g transform="matrix(1,0,0,1,101.004,34.673)">
                    <path d="M-747.516,375.336L-747.516,371.195L-751.451,371.195L-750.109,366.085L-747.516,366.085L-747.516,358.737L-741.567,358.774L-741.567,366.085L-737.614,366.085L-738.938,371.195L-741.567,371.195L-741.567,377.517C-741.567,379.208 -740.51,380.053 -738.397,380.053C-737.713,380.053 -737.191,379.972 -736.83,379.811L-738.546,385.741C-738.857,385.791 -739.161,385.816 -739.46,385.816C-741.238,385.816 -742.717,385.53 -743.898,384.958C-744.744,384.553 -745.443,384.001 -745.995,383.302C-745.924,383.198 -745.856,383.091 -745.791,382.982C-745.29,382.14 -745.04,381.172 -745.04,380.08C-745.04,379.033 -745.29,378.077 -745.791,377.212C-746.246,376.44 -746.821,375.815 -747.516,375.336Z" style="fill:rgb(59,59,59);fill-rule:nonzero;"/>
                </g>
            </g>
        </g>
    </g>
</svg>
